<svg width="125" height="50" viewBox="0 0 125 50" fill="none" xmlns="http://www.w3.org/2000/svg">
<g id="MaxDekor 1">
<g id="&#208;&#161;&#208;&#187;&#208;&#190;&#208;&#185;_x0020_1">
<g id="_2105539644832">
<path id="Vector" d="M35.4153 13.0127C37.2697 11.309 39.1333 9.61263 41.0509 7.97723C43.4675 5.91661 47.9373 1.78126 51.3513 1.72909C53.6285 1.69436 54.0446 2.72473 53.2559 4.50094C52.8047 5.51708 52.0847 6.85888 51.8938 7.24737C50.1272 10.8441 47.5982 15.9075 47.3373 16.4498C46.7086 18.8232 53.988 11.894 54.0301 11.8544C56.9142 9.13284 63.2799 3.01101 67.6895 1.85726L67.6896 1.85752L67.696 1.85593C69.5432 1.41354 70.9671 2.02561 69.8688 4.27416C68.0573 7.95873 66.394 11.7089 64.6678 15.4313C63.8659 17.4666 66.8652 17.2083 67.9489 17.0749C72.132 16.56 82.793 13.5271 84.521 8.37304C86.1659 3.46684 78.3968 2.62691 74.5696 2.18665C71.9002 1.87962 73.5985 1.72922 76.3344 1.72922C82.2648 1.72922 85.048 3.30553 86.1299 5.21483C88.9364 10.1688 78.2193 18.8132 65.8834 18.7657C59.9268 18.743 61.8863 15.4531 63.3668 12.2674C64.6824 9.43642 66.0822 6.63596 67.3701 3.79703C63.2382 5.82465 59.0629 10.0134 56.0536 12.903C53.447 15.4061 50.5603 18.7601 46.5369 18.7657C45.4688 18.7672 44.625 18.3955 44.4827 17.2469C44.3792 16.4126 46.3603 12.0873 48.0352 8.70523C48.8021 7.1566 49.6969 5.3048 50.5412 3.71585C46.8921 5.29548 42.9193 8.40032 39.1109 11.6365C38.3666 12.2691 32.9802 17.0773 30.6611 18.5305C30.5132 18.6232 30.1633 18.7656 30.0257 18.7656C28.5689 18.7656 35.0065 13.3881 35.4153 13.0125V13.0127Z" fill="#2E355C"/>
<path id="Vector_2" d="M108.83 29.8039C108.993 29.8237 109.158 29.8393 109.324 29.8502C109.516 29.863 109.712 29.8693 109.91 29.8693C110.454 29.8693 110.928 29.8091 111.333 29.689C111.733 29.5699 112.066 29.3922 112.332 29.1559L112.333 29.1553C112.554 28.9606 112.721 28.7322 112.831 28.4704C112.943 28.2073 112.998 27.9083 112.998 27.5737C112.998 26.8165 112.774 26.2511 112.325 25.8772C111.871 25.4987 111.182 25.3094 110.26 25.3094C109.905 25.3094 109.621 25.3331 109.409 25.3805C109.212 25.4247 109.081 25.4869 109.018 25.5671L109.017 25.5686C108.96 25.6452 108.915 25.8233 108.882 26.104C108.848 26.3993 108.83 26.8 108.83 27.3066V29.8039ZM109.311 30.0498C109.116 30.0369 108.921 30.0176 108.725 29.9917C108.672 29.9891 108.63 29.9452 108.63 29.8917V27.3065C108.63 26.7938 108.648 26.3853 108.683 26.0812C108.72 25.765 108.778 25.5542 108.857 25.4479L108.861 25.4423C108.954 25.3256 109.122 25.2398 109.366 25.1854C109.594 25.1342 109.892 25.1086 110.26 25.1086C111.23 25.1086 111.961 25.3136 112.453 25.7236C112.95 26.1379 113.199 26.7545 113.199 27.5736C113.199 27.934 113.137 28.2587 113.015 28.5476C112.893 28.838 112.709 29.0906 112.464 29.3055C112.176 29.5616 111.818 29.7533 111.389 29.8805C110.965 30.0068 110.472 30.0695 109.91 30.0695C109.711 30.0695 109.512 30.0631 109.311 30.0497L109.311 30.0498ZM108.83 30.5289V32.9202C108.83 33.3347 108.834 33.669 108.84 33.9235C108.846 34.1845 108.856 34.376 108.869 34.499C108.879 34.5919 108.895 34.6733 108.916 34.7428C108.936 34.8088 108.961 34.8643 108.992 34.9086L108.996 34.9133C109.043 34.9905 109.157 35.0564 109.336 35.1111C109.532 35.1712 109.799 35.2141 110.135 35.2394H110.137C110.222 35.2468 110.289 35.2762 110.337 35.3284C110.384 35.3802 110.409 35.4496 110.409 35.5363C110.409 35.6272 110.388 35.6985 110.349 35.7507C110.302 35.8113 110.237 35.8415 110.152 35.8415C110.148 35.8415 110.144 35.8411 110.14 35.8407C109.723 35.8206 109.348 35.8061 109.015 35.7965C108.666 35.7864 108.353 35.7816 108.078 35.7816C107.776 35.7816 107.456 35.7862 107.117 35.7963C106.789 35.8061 106.435 35.8207 106.054 35.8409L106.049 35.8411V35.8415C105.967 35.8415 105.905 35.8098 105.862 35.7462C105.861 35.7438 105.859 35.7412 105.858 35.7387C105.826 35.6883 105.811 35.6211 105.811 35.5363C105.811 35.4548 105.828 35.3894 105.863 35.3389C105.904 35.2812 105.962 35.2483 106.038 35.2399L106.046 35.2391C106.378 35.2086 106.64 35.1635 106.833 35.1037C107.008 35.0491 107.118 34.9857 107.162 34.9144C107.218 34.8136 107.262 34.6003 107.293 34.2739C107.325 33.9392 107.341 33.4887 107.341 32.9228V27.2186C107.341 26.8724 107.338 26.5935 107.332 26.3819C107.325 26.1648 107.315 26.007 107.303 25.909C107.293 25.8349 107.278 25.7683 107.257 25.709C107.237 25.653 107.212 25.6036 107.18 25.5614L107.177 25.5559C107.146 25.5124 107.104 25.4738 107.052 25.4408C106.996 25.4054 106.928 25.3765 106.848 25.3547L106.848 25.355C106.755 25.3299 106.632 25.3073 106.477 25.2868C106.321 25.2661 106.13 25.2468 105.903 25.2284L105.899 25.2281C105.826 25.2192 105.772 25.1873 105.734 25.132C105.702 25.0845 105.686 25.023 105.686 24.947C105.686 24.8478 105.699 24.7703 105.727 24.714C105.766 24.6346 105.827 24.5953 105.911 24.5953C105.915 24.5953 105.919 24.5957 105.923 24.596C106.342 24.6161 106.719 24.6307 107.055 24.6403C107.407 24.6504 107.722 24.6549 108.001 24.6549C108.084 24.6549 108.209 24.6524 108.38 24.648C108.555 24.6432 108.787 24.636 109.074 24.6268V24.6267C109.3 24.6114 109.542 24.5998 109.802 24.5918C110.065 24.5838 110.335 24.5799 110.611 24.5799C111.314 24.5799 111.929 24.6538 112.455 24.8018C112.985 24.9512 113.425 25.1762 113.775 25.4769C114.07 25.7243 114.29 26.0158 114.438 26.3521C114.584 26.6867 114.657 27.0634 114.657 27.4829C114.657 27.8371 114.596 28.1677 114.473 28.4743C114.351 28.7792 114.168 29.059 113.924 29.3126L113.922 29.3148C113.698 29.5442 113.432 29.7432 113.125 29.9122C112.85 30.0633 112.542 30.1905 112.2 30.2935C112.51 30.8943 112.835 31.4894 113.175 32.0789C113.536 32.7051 113.914 33.3227 114.307 33.9318L114.309 33.9351C114.501 34.2303 114.676 34.4705 114.834 34.6555C114.99 34.8361 115.127 34.9621 115.247 35.0327L115.251 35.0353C115.329 35.0818 115.442 35.122 115.589 35.1561C115.745 35.1917 115.935 35.2197 116.16 35.24H116.162C116.239 35.2484 116.297 35.2812 116.338 35.3388C116.374 35.389 116.392 35.4548 116.392 35.5364C116.392 35.6236 116.377 35.6919 116.346 35.742C116.306 35.8087 116.246 35.8416 116.167 35.8416C116.163 35.8416 116.159 35.8412 116.155 35.8408C115.796 35.8208 115.5 35.8065 115.265 35.797C115.01 35.7868 114.821 35.7817 114.698 35.7817C114.474 35.7817 114.288 35.7829 114.135 35.7846C113.947 35.787 113.775 35.7904 113.621 35.7943C113.578 35.7954 113.541 35.7699 113.526 35.733H113.526C113.472 35.6018 113.395 35.4373 113.295 35.241C113.198 35.0487 113.08 34.8267 112.941 34.5763C112.597 33.9923 112.23 33.3571 111.84 32.6711C111.459 32.0005 111.061 31.2902 110.647 30.5409C110.534 30.5486 110.421 30.5549 110.308 30.5596C110.172 30.565 110.044 30.5677 109.926 30.5677C109.716 30.5677 109.508 30.5637 109.302 30.5557C109.137 30.5492 108.98 30.5404 108.83 30.5291L108.83 30.5289ZM108.63 32.9202V30.4206L108.631 30.4124C108.635 30.3574 108.683 30.3161 108.738 30.3207C108.925 30.3366 109.116 30.3482 109.309 30.3559C109.502 30.3632 109.707 30.3672 109.927 30.3672C110.052 30.3672 110.177 30.3647 110.3 30.3598C110.425 30.3546 110.557 30.347 110.696 30.3362C110.734 30.3336 110.772 30.3527 110.791 30.3881C111.222 31.1684 111.63 31.8966 112.014 32.5723C112.399 33.2494 112.765 33.8836 113.113 34.4742H113.113L113.114 34.4765C113.257 34.733 113.376 34.9576 113.474 35.1507C113.561 35.3221 113.631 35.4699 113.684 35.5929C113.82 35.5895 113.969 35.5866 114.133 35.5849C114.327 35.5825 114.517 35.581 114.698 35.581C114.814 35.581 115.005 35.5861 115.273 35.597C115.515 35.6068 115.813 35.6212 116.166 35.6408H116.168C116.172 35.6408 116.175 35.6397 116.176 35.6378C116.187 35.6199 116.192 35.5861 116.192 35.5362C116.192 35.4966 116.187 35.4693 116.176 35.4543C116.17 35.4457 116.158 35.4403 116.141 35.4385L116.141 35.4383C115.905 35.417 115.707 35.3879 115.545 35.3508C115.377 35.312 115.246 35.264 115.149 35.2061L115.146 35.2049C115.007 35.1225 114.852 34.9826 114.683 34.7854C114.519 34.5942 114.339 34.347 114.142 34.0442L114.139 34.0396C113.745 33.429 113.366 32.8088 113.002 32.179C112.643 31.5571 112.299 30.9246 111.97 30.2813C111.966 30.2741 111.963 30.2664 111.96 30.2578C111.946 30.2046 111.977 30.1496 112.03 30.1347C112.403 30.0307 112.736 29.898 113.029 29.7367C113.319 29.5771 113.57 29.3896 113.78 29.1744L113.78 29.174C114.007 28.9389 114.176 28.6807 114.288 28.3999C114.401 28.1179 114.457 27.8121 114.457 27.4829C114.457 27.0907 114.39 26.7402 114.255 26.4318C114.12 26.125 113.918 25.8579 113.647 25.6305L113.647 25.6297C113.318 25.3478 112.903 25.1359 112.401 24.9943C111.894 24.8516 111.297 24.7802 110.611 24.7802C110.322 24.7802 110.054 24.784 109.808 24.7915C109.558 24.7992 109.317 24.8108 109.087 24.8266V24.8262L109.084 24.8266C108.801 24.8355 108.569 24.8427 108.385 24.8476C108.196 24.8527 108.067 24.8555 108.001 24.8555C107.737 24.8555 107.42 24.8504 107.05 24.8399C106.708 24.8302 106.329 24.8156 105.914 24.7957H105.911C105.91 24.7957 105.909 24.7979 105.906 24.8024C105.893 24.8295 105.887 24.8778 105.887 24.9469C105.887 24.9823 105.891 25.0067 105.899 25.0192C105.903 25.0241 105.91 25.0273 105.922 25.0289C106.145 25.047 106.338 25.0666 106.503 25.0884C106.669 25.1106 106.801 25.1348 106.9 25.1615L106.9 25.1617L106.9 25.162C107 25.189 107.086 25.2259 107.159 25.2716C107.234 25.319 107.295 25.3761 107.341 25.4415L107.342 25.4428C107.385 25.5014 107.419 25.5678 107.445 25.6424C107.471 25.714 107.489 25.7939 107.501 25.8831C107.514 25.9875 107.525 26.1518 107.531 26.3762C107.538 26.6049 107.542 26.8858 107.542 27.2185V32.9227C107.542 33.4902 107.525 33.9469 107.492 34.2927C107.459 34.6475 107.406 34.8875 107.336 35.0123L107.333 35.0178C107.263 35.1328 107.116 35.2247 106.892 35.2945C106.687 35.3584 106.411 35.4063 106.064 35.4379L106.06 35.4385C106.043 35.4403 106.032 35.4451 106.027 35.453C106.016 35.4681 106.011 35.4958 106.011 35.5362C106.011 35.5819 106.016 35.6137 106.026 35.6314L106.028 35.6341C106.031 35.6386 106.038 35.6408 106.049 35.6408C106.424 35.6209 106.779 35.6062 107.112 35.5964C107.468 35.5859 107.79 35.581 108.078 35.581C108.34 35.581 108.654 35.5859 109.02 35.5967C109.36 35.6064 109.737 35.6211 110.15 35.6408H110.152C110.171 35.6408 110.184 35.637 110.19 35.6292C110.202 35.6131 110.208 35.5823 110.208 35.5362C110.208 35.5012 110.202 35.4771 110.19 35.4635C110.177 35.4502 110.154 35.4418 110.12 35.439C109.769 35.4124 109.488 35.3669 109.277 35.3023C109.052 35.2332 108.902 35.1393 108.827 35.0202C108.785 34.9589 108.751 34.8857 108.725 34.8006C108.7 34.7177 108.682 34.6242 108.671 34.52C108.657 34.394 108.647 34.1969 108.64 33.9282C108.634 33.6531 108.63 33.317 108.63 32.92L108.63 32.9202ZM108.73 29.8918C109.12 29.9436 109.513 29.9697 109.91 29.9697C111.017 29.9697 111.844 29.7232 112.398 29.2307C112.865 28.8211 113.099 28.2687 113.099 27.5737C113.099 25.9975 112.152 25.2091 110.26 25.2091C109.537 25.2091 109.096 25.3076 108.94 25.5047C108.802 25.6836 108.73 26.2825 108.73 27.3066V29.8918H108.73ZM108.73 30.4206V32.9202C108.73 33.7317 108.743 34.2608 108.77 34.5095C108.791 34.7065 108.836 34.8595 108.911 34.9657C109.033 35.1628 109.441 35.2874 110.128 35.3392C110.247 35.3496 110.308 35.4145 110.308 35.5363C110.308 35.6736 110.255 35.7411 110.152 35.7411C109.292 35.6995 108.6 35.6815 108.078 35.6815C107.502 35.6815 106.826 35.6995 106.049 35.7411C105.956 35.7411 105.911 35.6736 105.911 35.5363C105.911 35.4144 105.956 35.3496 106.049 35.3392C106.733 35.2769 107.134 35.1525 107.247 34.9657C107.375 34.7428 107.441 34.0611 107.441 32.9228V27.2186C107.441 26.5391 107.428 26.0983 107.401 25.8961C107.38 25.7328 107.335 25.6032 107.261 25.502C107.184 25.3906 107.054 25.3076 106.874 25.2583C106.683 25.2066 106.362 25.1649 105.911 25.1287C105.826 25.1183 105.786 25.0587 105.786 24.9473C105.786 24.779 105.826 24.6959 105.911 24.6959C106.776 24.7376 107.473 24.7555 108.001 24.7555C108.149 24.7555 108.51 24.7451 109.08 24.7269C109.537 24.6959 110.046 24.6802 110.611 24.6802C112.001 24.6802 113.032 24.9709 113.711 25.5542C114.276 26.0288 114.557 26.6717 114.557 27.4832C114.557 28.1649 114.324 28.7537 113.852 29.2436C113.417 29.6897 112.818 30.0189 112.056 30.2315C112.714 31.5175 113.438 32.7698 114.223 33.9858C114.613 34.5875 114.937 34.9657 115.197 35.1191C115.372 35.2254 115.69 35.2978 116.152 35.3392C116.244 35.3496 116.292 35.4145 116.292 35.5363C116.292 35.6736 116.25 35.7411 116.167 35.7411C115.417 35.6995 114.926 35.6815 114.698 35.6815C114.274 35.6815 113.913 35.6865 113.618 35.6944C113.51 35.4326 113.313 35.0412 113.027 34.5251C112.335 33.3506 111.56 31.9867 110.704 30.4363C110.43 30.4569 110.17 30.4673 109.926 30.4673C109.497 30.4673 109.099 30.4519 108.73 30.4206ZM96.6323 25.0761C95.9926 25.0761 95.4171 25.2076 94.9057 25.4714C94.3939 25.7352 93.9448 26.1315 93.5591 26.6602L93.559 26.6603L93.5591 26.6604C93.2159 27.1269 92.9583 27.6533 92.7866 28.2397C92.6146 28.8275 92.5284 29.4767 92.5284 30.1872C92.5284 31.8548 92.9652 33.1649 93.8389 34.1257C94.2101 34.5327 94.6278 34.8377 95.0923 35.0408C95.557 35.2438 96.0701 35.3452 96.6323 35.3452C97.2747 35.3452 97.8525 35.2141 98.3651 34.9519C98.8777 34.6896 99.3272 34.2952 99.7132 33.7686L99.7158 33.7653C100.058 33.3011 100.314 32.7759 100.486 32.1896C100.658 31.6006 100.744 30.9487 100.744 30.234C100.744 29.4034 100.632 28.6594 100.409 28.0026C100.187 27.3484 99.8539 26.7796 99.4099 26.2959L99.4054 26.2904C99.0302 25.8864 98.6128 25.5828 98.1523 25.3806C97.6903 25.1778 97.1836 25.0763 96.6323 25.0763V25.0761ZM94.8141 25.2936C95.3548 25.0148 95.9611 24.8754 96.6323 24.8754C97.2108 24.8754 97.7439 24.983 98.2321 25.1973C98.7176 25.4105 99.1571 25.7297 99.5514 26.1544L99.5571 26.1603C100.02 26.6647 100.368 27.2573 100.599 27.9385C100.829 28.6168 100.944 29.382 100.944 30.234C100.944 30.966 100.855 31.6366 100.678 32.2453C100.5 32.8543 100.233 33.4003 99.8768 33.8836L99.8746 33.8869C99.4703 34.4386 98.9971 34.8529 98.456 35.1297C97.914 35.4072 97.3057 35.5457 96.6324 35.5457C96.0433 35.5457 95.5035 35.4386 95.0127 35.2239C94.5217 35.0097 94.0814 34.6882 93.6912 34.2606C92.7825 33.2611 92.3281 31.9063 92.3281 30.1873C92.3281 29.4589 92.4171 28.7908 92.595 28.1834C92.7733 27.5745 93.041 27.0275 93.3981 26.5423L93.3982 26.5424C93.8026 25.9878 94.2751 25.5715 94.8141 25.2936ZM96.6323 24.3468C97.5418 24.3468 98.3643 24.5004 99.0994 24.8078C99.836 25.1161 100.484 25.5783 101.043 26.1948L101.048 26.2005C101.533 26.7383 101.898 27.3393 102.141 28.0032C102.384 28.6685 102.506 29.397 102.506 30.1873C102.506 31.0986 102.349 31.9242 102.036 32.6636C101.722 33.4042 101.251 34.0567 100.625 34.6202C100.081 35.1096 99.4756 35.4773 98.8095 35.7226C98.144 35.9676 97.4183 36.0902 96.6323 36.0902C95.7278 36.0902 94.9085 35.9341 94.1742 35.6208C93.4394 35.3075 92.791 34.8376 92.2293 34.2105C91.7418 33.6664 91.3758 33.0612 91.1318 32.3951C90.8881 31.7294 90.7659 31.0037 90.7659 30.2184C90.7659 29.3145 90.9225 28.4945 91.2354 27.7591C91.5485 27.0224 92.0177 26.3722 92.6427 25.8088L92.6487 25.8037C93.19 25.3194 93.7924 24.9554 94.4558 24.7123C95.121 24.4687 95.8466 24.3467 96.6324 24.3467L96.6323 24.3468ZM99.0228 24.9927C98.3125 24.6956 97.5157 24.5471 96.6323 24.5471C95.8691 24.5471 95.1662 24.6652 94.5238 24.9003C93.8841 25.1346 93.3034 25.4858 92.7813 25.9531L92.7764 25.9576C92.1732 26.5015 91.7208 27.1284 91.4192 27.8375C91.1173 28.5472 90.9663 29.3411 90.9663 30.2187C90.9663 30.9806 91.0842 31.6835 91.3197 32.3264C91.5551 32.9691 91.908 33.5531 92.378 34.0776C92.9196 34.682 93.5444 35.135 94.2525 35.4371C94.9611 35.7391 95.7543 35.89 96.6324 35.89C97.3952 35.89 98.0979 35.7716 98.7407 35.535C99.3826 35.2986 99.966 34.9439 100.491 34.4716C101.096 33.9276 101.549 33.2988 101.852 32.5853C102.155 31.8718 102.306 31.0722 102.306 30.1873C102.306 29.4199 102.188 28.7148 101.953 28.072C101.718 27.431 101.367 26.8518 100.899 26.334L100.895 26.3292C100.356 25.7347 99.7317 25.2894 99.0228 24.9927ZM96.6323 24.9758C95.322 24.9758 94.2689 25.5176 93.4785 26.6016C92.7784 27.5532 92.4282 28.7483 92.4282 30.1873C92.4282 31.8805 92.8737 33.213 93.765 34.1933C94.5262 35.0282 95.481 35.4455 96.6323 35.4455C97.9479 35.4455 99.0035 34.9061 99.7938 33.8277C100.494 32.8788 100.844 31.6807 100.844 30.2339C100.844 28.5514 100.391 27.216 99.4836 26.2279C98.7117 25.3932 97.7622 24.9758 96.6323 24.9758ZM96.6323 24.4468C98.4253 24.4468 99.8706 25.051 100.969 26.262C101.926 27.3199 102.406 28.629 102.406 30.1873C102.406 31.9841 101.788 33.4387 100.558 34.5458C99.4886 35.5078 98.1811 35.9901 96.6321 35.9901C94.8497 35.9901 93.4069 35.3752 92.3035 34.1439C91.3461 33.0757 90.8661 31.7661 90.8661 30.2184C90.8661 28.437 91.4815 26.9902 92.7095 25.8832C93.7758 24.9265 95.0833 24.4468 96.6323 24.4468ZM86.7615 24.8511C86.801 25.3338 86.84 25.7786 86.8784 26.1858C86.9178 26.6019 86.9582 26.9998 87 27.379C87.0002 27.3827 87.0005 27.3862 87.0005 27.3898H87.0006V27.4365C87.0006 27.5161 86.9617 27.5749 86.8835 27.612C86.83 27.6377 86.7561 27.6506 86.6618 27.6506C86.6067 27.6506 86.5581 27.6354 86.515 27.6056C86.4756 27.5788 86.4434 27.5403 86.4171 27.491C86.4152 27.4875 86.4136 27.484 86.4123 27.4803C86.2341 27.0793 86.0368 26.7291 85.8205 26.4305C85.6067 26.1355 85.3749 25.8922 85.1251 25.7018C84.8165 25.4962 84.4856 25.3418 84.1333 25.2389C83.7789 25.1355 83.4015 25.0836 83.0015 25.0836C82.3793 25.0836 81.8193 25.2139 81.3203 25.4745C80.8203 25.7356 80.3796 26.1279 79.9975 26.6521L79.9978 26.6522C79.6595 27.1192 79.4058 27.6454 79.237 28.2312V28.2314C79.0674 28.8193 78.9827 29.4685 78.9827 30.1794C78.9827 30.9222 79.094 31.5954 79.3168 32.1981C79.5387 32.7993 79.8716 33.3315 80.3152 33.7945L80.3156 33.7948C80.7009 34.2005 81.1296 34.5044 81.6007 34.7067C82.0726 34.9094 82.5886 35.0106 83.1475 35.0106C83.6147 35.0106 84.0452 34.9616 84.4384 34.8641C84.8306 34.7666 85.1867 34.6209 85.5065 34.4267L85.5064 34.4265C85.7765 34.2613 86.0326 34.0538 86.2749 33.804C86.5184 33.5534 86.7482 33.2598 86.9649 32.9228L86.9683 32.9178C86.994 32.88 87.0267 32.8507 87.0675 32.8309C87.1073 32.8114 87.153 32.8014 87.2054 32.8014C87.2526 32.8014 87.2992 32.8101 87.3453 32.8269C87.3888 32.8426 87.4312 32.8656 87.473 32.8954L87.476 32.8978C87.5135 32.9237 87.5433 32.9513 87.5649 32.981C87.5935 33.0202 87.608 33.0618 87.608 33.1066C87.608 33.1408 87.6021 33.1745 87.5903 33.2084C87.5795 33.2389 87.5643 33.2686 87.5445 33.2979C87.0313 34.2231 86.3924 34.9182 85.6276 35.383C84.8604 35.8493 83.9691 36.0824 82.9538 36.0824C82.0547 36.0824 81.2447 35.9286 80.5235 35.6209C79.8015 35.3124 79.1701 34.8499 78.6295 34.2328L78.6279 34.2309C78.1533 33.6927 77.7973 33.0881 77.5601 32.4179C77.3227 31.7474 77.2039 31.0113 77.2039 30.2106C77.2039 29.2992 77.357 28.4762 77.6629 27.7423C77.9693 27.0074 78.4286 26.3627 79.0405 25.8095L79.0403 25.8093C79.5712 25.3249 80.1658 24.9608 80.8242 24.7181C81.4815 24.4756 82.202 24.3543 82.9856 24.3543C83.3369 24.3543 83.6698 24.3741 83.9847 24.4135C84.2998 24.4529 84.5972 24.5125 84.8771 24.5916L84.8834 24.5937C85.1244 24.6638 85.348 24.7169 85.5539 24.7523C85.7582 24.7877 85.9437 24.8054 86.1099 24.8054C86.2646 24.8054 86.4429 24.7901 86.6472 24.7599C86.7018 24.7519 86.7527 24.7899 86.7607 24.8446L86.7615 24.8511ZM86.6796 26.2047C86.6416 25.8027 86.6053 25.3918 86.5705 24.9727C86.3991 24.995 86.2459 25.0061 86.1099 25.0061C85.9336 25.0061 85.7366 24.9872 85.5201 24.95C85.3091 24.9132 85.0779 24.8584 84.8275 24.7855L84.8231 24.7844C84.554 24.708 84.2665 24.6509 83.9603 24.6125C83.6538 24.574 83.3289 24.555 82.9856 24.555C82.2253 24.555 81.5279 24.6721 80.8931 24.9061C80.2591 25.1399 79.6866 25.4903 79.175 25.9575L79.1748 25.9572L79.1746 25.9575C78.5851 26.4905 78.1428 27.1112 77.8477 27.8192C77.5522 28.5282 77.4043 29.3255 77.4043 30.2109C77.4043 30.9893 77.5192 31.7029 77.7488 32.3516C77.9776 32.9983 78.3209 33.5812 78.7779 34.0996L78.7798 34.1017C79.3002 34.6956 79.9075 35.1405 80.6018 35.4371C81.2971 35.7341 82.0811 35.8822 82.9538 35.8822C83.9328 35.8822 84.7896 35.6591 85.5242 35.2127C86.2587 34.7664 86.8742 34.0953 87.3705 33.2C87.3724 33.196 87.3748 33.1921 87.3774 33.1881C87.3887 33.1718 87.3966 33.1568 87.4016 33.1429C87.4056 33.1315 87.4076 33.1195 87.4076 33.107C87.4076 33.1053 87.4062 33.1026 87.4036 33.0989C87.3956 33.0881 87.3819 33.076 87.363 33.0627L87.357 33.059C87.3299 33.0394 87.3033 33.0248 87.2771 33.0154C87.2537 33.0069 87.2299 33.0024 87.2053 33.0024C87.1837 33.0024 87.1671 33.0055 87.155 33.0115C87.1466 33.0156 87.1399 33.0214 87.1343 33.0293L87.1328 33.0313C86.9093 33.3792 86.6711 33.6832 86.418 33.9439C86.1639 34.2055 85.8947 34.4234 85.6103 34.5975V34.5973L85.61 34.5975C85.272 34.8026 84.8973 34.9563 84.4859 35.0584C84.0758 35.1604 83.6295 35.2114 83.1473 35.2114C82.5617 35.2114 82.0197 35.1047 81.5221 34.8909C81.0256 34.6777 80.5747 34.3584 80.1706 33.9328C79.7075 33.4497 79.3601 32.8942 79.1286 32.2674C78.8976 31.6417 78.7819 30.9456 78.7819 30.1796C78.7819 29.4515 78.8697 28.7833 79.0448 28.1759C79.2208 27.5666 79.4842 27.0196 79.8354 26.5348L79.8357 26.5349L79.8358 26.5348C80.2362 25.9854 80.7001 25.573 81.2276 25.2975C81.7567 25.0213 82.3476 24.8833 83.0013 24.8833C83.4186 24.8833 83.8146 24.938 84.1885 25.0473C84.5609 25.156 84.91 25.3186 85.2355 25.5356C85.2386 25.5374 85.2416 25.5396 85.2447 25.5418C85.5108 25.7445 85.7567 26.0019 85.9821 26.3131C86.2052 26.6209 86.409 26.9829 86.5938 27.3988C86.6046 27.4188 86.6159 27.4329 86.6281 27.4413C86.6366 27.4471 86.6477 27.4502 86.6615 27.4502C86.7257 27.4502 86.771 27.4438 86.797 27.4312C86.7984 27.4308 86.7992 27.4349 86.7995 27.4366L86.7999 27.4374V27.3932C86.7597 27.025 86.7194 26.629 86.6793 26.2047H86.6796ZM86.7998 27.4366C86.8001 27.4374 86.8002 27.4375 86.8002 27.4374L86.7998 27.4366ZM86.6618 24.8591C86.7386 25.7976 86.8182 26.6402 86.9005 27.3898V27.4365C86.9005 27.5115 86.8208 27.5504 86.6618 27.5504C86.5929 27.5504 86.5424 27.5141 86.5053 27.4441C86.1418 26.6248 85.7016 26.0154 85.1843 25.6213C84.5477 25.1962 83.8184 24.9835 83.0017 24.9835C81.7258 24.9835 80.6993 25.5201 79.9169 26.5935C79.2274 27.5452 78.8826 28.7405 78.8826 30.1796C78.8826 31.6884 79.3362 32.9174 80.2434 33.864C81.0336 34.6961 82.0044 35.1111 83.1477 35.1111C84.097 35.1111 84.9007 34.9114 85.5587 34.5119C86.1131 34.1723 86.609 33.6615 87.0492 32.977C87.0809 32.9277 87.1315 32.9019 87.2055 32.9019C87.2774 32.9019 87.3461 32.9277 87.4151 32.977C87.4762 33.0186 87.508 33.06 87.508 33.1066C87.508 33.1533 87.4921 33.1974 87.4601 33.244C86.4498 35.0693 84.9484 35.982 82.954 35.982C81.1823 35.982 79.7659 35.3779 78.7051 34.1671C77.7714 33.1091 77.3046 31.7893 77.3046 30.2103C77.3046 28.4135 77.9068 26.9695 79.108 25.8829C80.1506 24.9313 81.4421 24.4543 82.986 24.4543C83.6808 24.4543 84.3014 24.5322 84.8505 24.6877C85.3464 24.8329 85.7681 24.9055 86.1103 24.9055C86.2693 24.9055 86.4525 24.8899 86.662 24.8588L86.6618 24.8591ZM73.0579 35.8407C72.3149 35.8134 71.6175 35.7928 70.9651 35.7789C70.3205 35.7652 69.7079 35.7584 69.1267 35.7584C68.4788 35.7584 67.8199 35.7652 67.1498 35.7789C66.4696 35.7928 65.7644 35.8135 65.0351 35.8408L65.0316 35.8409V35.8413C64.953 35.8413 64.8933 35.8085 64.8529 35.7418C64.8223 35.6916 64.8068 35.6232 64.8068 35.5362C64.8068 35.4591 64.8226 35.396 64.8536 35.3469C64.8901 35.2891 64.9436 35.254 65.0131 35.2407C65.0173 35.24 65.0213 35.2396 65.0252 35.2392C65.2314 35.2189 65.4052 35.1972 65.5469 35.1736C65.683 35.1507 65.787 35.1269 65.8592 35.1011C65.9128 35.0779 65.9613 35.05 66.0039 35.017C66.0446 34.9854 66.0798 34.9494 66.1088 34.9086L66.1084 34.9084C66.1636 34.8292 66.2064 34.628 66.2367 34.3049C66.2684 33.97 66.2841 33.5089 66.2841 32.9224V27.467C66.2841 27.0585 66.2809 26.7314 66.275 26.4841C66.2688 26.2246 66.2597 26.0374 66.2479 25.9234H66.2478C66.2378 25.8419 66.2221 25.7702 66.2011 25.7067C66.1805 25.6448 66.154 25.5895 66.1224 25.5402L66.1221 25.54C66.0696 25.4664 65.9515 25.4042 65.7673 25.352C65.5641 25.2947 65.2883 25.2537 64.9395 25.2281L64.9316 25.2273C64.859 25.2184 64.8024 25.1881 64.7621 25.1362C64.7247 25.088 64.7057 25.0249 64.7057 24.9468C64.7057 24.8459 64.7219 24.767 64.7538 24.7099L64.7541 24.7095L64.7538 24.7093C64.7966 24.633 64.8611 24.595 64.9465 24.595C64.9506 24.595 64.9548 24.5954 64.9589 24.5957C65.4953 24.6206 66.0943 24.6392 66.7558 24.6519C67.3998 24.6641 68.1201 24.6704 68.917 24.6704C69.654 24.6704 70.3349 24.6641 70.9607 24.6519C71.6069 24.6392 72.2116 24.6204 72.7745 24.5956C72.8277 24.5932 72.8729 24.6328 72.8782 24.6851C72.9451 25.3303 73.0015 25.8619 73.0476 26.2806C73.093 26.6898 73.1273 26.9779 73.1511 27.1443C73.1518 27.1491 73.152 27.1539 73.152 27.1586H73.1523V27.2028C73.1523 27.2878 73.1132 27.3518 73.0345 27.3938C72.9766 27.4248 72.8968 27.4403 72.7947 27.4403C72.7454 27.4403 72.7012 27.426 72.6631 27.3983C72.6278 27.3726 72.5996 27.3364 72.579 27.2899C72.5777 27.2872 72.5766 27.2842 72.5756 27.2813H72.5754C72.4616 26.9487 72.3222 26.6575 72.1572 26.4081C71.9935 26.1604 71.8045 25.9537 71.5905 25.788L71.5878 25.7859C71.407 25.6454 71.1251 25.5388 70.7424 25.4668C70.3493 25.3925 69.8519 25.3555 69.2514 25.3555C68.8818 25.3555 68.5855 25.3854 68.3625 25.4449C68.1544 25.5004 68.0145 25.5799 67.9436 25.6829L67.9417 25.6856C67.8945 25.7578 67.8575 25.8932 67.8312 26.0917C67.8033 26.3019 67.7892 26.5798 67.7892 26.925V29.5779C67.8691 29.5809 67.9667 29.5835 68.0822 29.5853C68.2349 29.5875 68.4435 29.5888 68.7076 29.5888C69.2734 29.5888 69.7281 29.5631 70.0724 29.5121C70.4041 29.4628 70.6275 29.3918 70.7434 29.2995L70.7485 29.2957C70.872 29.1983 70.9696 29.0743 71.0425 28.9236C71.1177 28.7678 71.1663 28.5832 71.1888 28.3693L71.1891 28.3682H71.1888C71.1973 28.2953 71.2262 28.2387 71.2758 28.1987C71.2782 28.1966 71.2806 28.1948 71.2831 28.1931C71.3286 28.1592 71.3869 28.1417 71.4581 28.1417C71.556 28.1417 71.6326 28.1578 71.6882 28.1896C71.7626 28.232 71.7995 28.2956 71.7995 28.3795C71.7995 28.3834 71.7992 28.3871 71.7988 28.391C71.7883 28.7424 71.7804 29.0431 71.7753 29.2936C71.7702 29.5357 71.7677 29.7399 71.7677 29.9066C71.7677 30.3466 71.7782 30.929 71.7991 31.6489V31.6515H71.7995C71.7995 31.7358 71.7626 31.7991 71.6882 31.8415C71.6326 31.8733 71.556 31.8894 71.4581 31.8894C71.3806 31.8894 71.3185 31.8676 71.2711 31.8244C71.2687 31.8222 71.2665 31.8202 71.2643 31.8178C71.2214 31.7753 71.1964 31.7181 71.1888 31.6464L71.1887 31.6442H71.1885C71.1655 31.3698 71.1139 31.1413 71.0333 30.9599C70.9557 30.7851 70.851 30.6534 70.7184 30.5657C70.7156 30.5638 70.713 30.5619 70.7105 30.5598C70.5836 30.4728 70.358 30.4062 70.0342 30.3598C69.6951 30.3112 69.2528 30.2871 68.7076 30.2871C68.5352 30.2871 68.3682 30.2895 68.207 30.2943C68.0714 30.2984 67.932 30.3046 67.7893 30.3123V32.9248C67.7893 33.4278 67.8082 33.8318 67.8452 34.1365C67.8811 34.431 67.9319 34.6264 67.997 34.7222L67.9977 34.7231C68.0472 34.7922 68.109 34.8507 68.1831 34.8988C68.2596 34.9484 68.35 34.9876 68.4542 35.016C68.5642 35.0423 68.7053 35.062 68.8786 35.0754C69.0528 35.089 69.26 35.096 69.5007 35.096C69.8849 35.096 70.2263 35.0826 70.5255 35.056C70.8263 35.0295 71.0831 34.9901 71.2965 34.9383L71.2973 34.9382V34.9378C71.475 34.8964 71.6431 34.841 71.8013 34.7722C71.9598 34.7033 72.1096 34.6201 72.25 34.5227L72.2508 34.5222C72.4537 34.3755 72.6508 34.1765 72.8423 33.9256C73.0363 33.6709 73.2237 33.3641 73.4043 33.0048C73.4257 32.958 73.4503 32.921 73.4793 32.8941C73.5179 32.8581 73.5615 32.8402 73.6116 32.8402C73.7301 32.8402 73.8222 32.8588 73.8881 32.8966C73.9722 32.9445 74.0142 33.0169 74.0142 33.1139C74.0142 33.1238 74.0128 33.1332 74.0102 33.1421L73.9954 33.2145H73.9956C73.9 33.6222 73.7825 34.0392 73.6437 34.4652C73.5038 34.8948 73.3425 35.3328 73.1608 35.7782C73.1437 35.8204 73.101 35.8447 73.0578 35.8403L73.0579 35.8407ZM70.9691 35.5793C71.6077 35.5929 72.285 35.6128 73.0016 35.6388C73.1715 35.2187 73.3224 34.8068 73.4535 34.4038C73.5902 33.9841 73.7062 33.5723 73.8007 33.1697L73.8009 33.1698L73.8135 33.1078C73.8118 33.0917 73.8035 33.0792 73.7888 33.0709C73.7545 33.0511 73.6966 33.0413 73.6154 33.0411C73.6061 33.0499 73.5962 33.0659 73.5858 33.0888L73.5842 33.0918C73.3969 33.4652 73.2026 33.7832 73.0012 34.0474C72.7986 34.3132 72.5877 34.5255 72.3681 34.6843L72.3634 34.6877C72.2124 34.7926 72.0515 34.8819 71.8812 34.956C71.7108 35.0303 71.5311 35.0894 71.3428 35.1334L71.3427 35.1332C71.1171 35.1879 70.8506 35.2291 70.5428 35.2563C70.2377 35.2833 69.8906 35.297 69.5007 35.297C69.2567 35.297 69.0446 35.2898 68.8637 35.2758C68.6787 35.2615 68.5269 35.2399 68.4076 35.2117L68.4029 35.2104C68.2791 35.1765 68.1695 35.1288 68.0743 35.067C67.9788 35.005 67.8992 34.9295 67.8352 34.8401L67.8319 34.8356C67.7481 34.7129 67.6861 34.4875 67.6464 34.1605C67.6082 33.8475 67.5889 33.4356 67.5889 32.9255V30.2187H67.5891C67.5891 30.1661 67.63 30.122 67.6832 30.1188C67.8547 30.1084 68.0276 30.1007 68.2016 30.0955C68.3796 30.0899 68.5484 30.0872 68.7076 30.0872C69.2608 30.0872 69.7124 30.1124 70.0624 30.1623C70.4171 30.213 70.6712 30.2911 70.8244 30.3971L70.8288 30.3996C70.9936 30.509 71.1223 30.6691 71.2157 30.8791C71.3061 31.0826 71.3633 31.3327 71.388 31.6287H71.3879C71.3903 31.6507 71.3953 31.6663 71.4029 31.6748L71.4056 31.6772C71.4146 31.6854 71.432 31.6897 71.4581 31.6897C71.5213 31.6897 71.565 31.6826 71.5895 31.6684C71.5959 31.665 71.5991 31.6594 71.5991 31.6523H71.5993C71.578 30.9162 71.5673 30.3329 71.5673 29.9074C71.5673 29.7631 71.5701 29.5574 71.5756 29.2905C71.5808 29.0363 71.5888 28.7349 71.5992 28.3858L71.5991 28.3803C71.5991 28.3733 71.5959 28.3678 71.5895 28.3642C71.5649 28.3501 71.5211 28.3432 71.4581 28.3432C71.4324 28.3432 71.4145 28.3465 71.404 28.3532L71.4017 28.3552C71.3944 28.361 71.3897 28.3733 71.3876 28.3918L71.3875 28.3917C71.3623 28.6284 71.3074 28.835 71.2224 29.0113C71.1364 29.1897 71.0198 29.3369 70.8718 29.4534L70.8678 29.4569C70.7238 29.5719 70.4686 29.6564 70.1013 29.711C69.7464 29.7635 69.2821 29.7899 68.7074 29.7899C68.4757 29.7899 68.2663 29.7884 68.0796 29.7858C67.9103 29.7832 67.7803 29.7794 67.6901 29.7745H67.6889C67.6336 29.7745 67.5888 29.7296 67.5888 29.6741V26.9258C67.5888 26.5751 67.6037 26.2887 67.6332 26.0666C67.6635 25.8374 67.7113 25.6737 67.7755 25.5755L67.7791 25.5699C67.878 25.4266 68.0556 25.3204 68.3114 25.2521C68.5519 25.1878 68.8653 25.1556 69.2511 25.1556C69.8625 25.1556 70.372 25.1939 70.7789 25.2707C71.1928 25.3488 71.5032 25.4681 71.7096 25.6285L71.7124 25.6307C71.944 25.81 72.1477 26.0324 72.3235 26.298C72.4974 26.561 72.644 26.8663 72.7632 27.2137C72.7685 27.2245 72.7741 27.2323 72.7801 27.2364C72.7834 27.239 72.7883 27.2403 72.7944 27.2403C72.8641 27.2403 72.9127 27.2327 72.9403 27.2179C72.9478 27.214 72.9516 27.209 72.9516 27.2032V27.1648C72.9276 26.9957 72.8934 26.7082 72.8486 26.303C72.8062 25.9195 72.753 25.4178 72.6889 24.7997C72.1551 24.8225 71.58 24.84 70.9635 24.852C70.3116 24.8648 69.6292 24.8713 68.9168 24.8713C68.1452 24.8713 67.4235 24.8648 66.7523 24.852C66.0845 24.8394 65.4835 24.8206 64.9493 24.796H64.9462C64.9385 24.796 64.9324 24.7998 64.928 24.8077H64.9279C64.9133 24.8343 64.9058 24.8808 64.9058 24.9472C64.9058 24.9801 64.9105 25.0024 64.9198 25.0145C64.9256 25.0218 64.9373 25.0268 64.9549 25.029C65.3163 25.0555 65.6048 25.0989 65.821 25.1599C66.0511 25.2249 66.2057 25.3129 66.2853 25.4255C66.287 25.4278 66.2887 25.4302 66.2903 25.4326C66.3302 25.4947 66.3636 25.5651 66.3901 25.6444C66.4161 25.7224 66.435 25.8073 66.4462 25.8996H66.446L66.4462 25.9016C66.4584 26.0191 66.4679 26.2117 66.4742 26.48C66.4806 26.7481 66.4841 27.0778 66.4841 27.4674V32.9228C66.4841 33.5107 66.4679 33.9779 66.4351 34.3242C66.4014 34.6825 66.3472 34.9157 66.2725 35.023L66.2721 35.0227L66.2717 35.0235C66.2304 35.0818 66.1813 35.1324 66.1257 35.1755C66.0686 35.2198 66.0048 35.2565 65.9353 35.2859L65.9302 35.2881C65.8458 35.3188 65.7293 35.3461 65.5795 35.3711C65.4358 35.3952 65.2582 35.4173 65.0468 35.4382C65.0353 35.441 65.0271 35.4459 65.0223 35.4538C65.0121 35.47 65.0068 35.4974 65.0068 35.5364C65.0068 35.5863 65.0123 35.6201 65.0231 35.6381C65.0244 35.64 65.0271 35.641 65.0314 35.641V35.6414C65.7569 35.6141 66.4617 35.5934 67.1457 35.5795C67.8408 35.5653 68.5015 35.5581 69.1265 35.5581C69.6858 35.5581 70.2998 35.5653 70.9688 35.5795L70.9691 35.5793ZM73.0681 35.741C71.5802 35.6864 70.2672 35.6581 69.1267 35.6581C67.8537 35.6581 66.4877 35.6864 65.0316 35.741C64.9492 35.741 64.9069 35.6735 64.9069 35.5362C64.9069 35.4193 64.9492 35.3548 65.0316 35.3391C65.4532 35.2977 65.7396 35.2509 65.8964 35.194C66.0182 35.1419 66.119 35.0669 66.1906 34.9657C66.3206 34.7791 66.3842 34.0973 66.3842 32.9228V27.4674C66.3842 26.6584 66.3709 26.1399 66.3472 25.9117C66.326 25.738 66.2782 25.5981 66.2067 25.4867C66.0766 25.2975 65.6577 25.1805 64.9468 25.1286C64.8538 25.1182 64.8062 25.0586 64.8062 24.9472C64.8062 24.7788 64.854 24.6958 64.9468 24.6958C66.013 24.745 67.3365 24.771 68.9173 24.771C70.3788 24.771 71.6651 24.745 72.779 24.6958C72.9144 26.0024 73.0046 26.8245 73.0523 27.1589V27.203C73.0523 27.2937 72.9673 27.3403 72.795 27.3403C72.7394 27.3403 72.6968 27.3092 72.6704 27.2496C72.437 26.5677 72.0973 26.0543 71.6517 25.7094C71.2647 25.4061 70.4636 25.2557 69.2515 25.2557C68.4956 25.2557 68.0314 25.3803 67.8615 25.6266C67.7474 25.795 67.6892 26.2279 67.6892 26.9255V29.6738C67.8723 29.6842 68.2118 29.6895 68.7077 29.6895C69.8483 29.6895 70.5458 29.5855 70.8058 29.3783C71.0815 29.163 71.2407 28.8313 71.2884 28.3801C71.299 28.2893 71.3548 28.2427 71.4582 28.2427C71.6199 28.2427 71.6995 28.2894 71.6995 28.3801C71.6782 29.0878 71.6677 29.596 71.6677 29.9071C71.6677 30.3401 71.6782 30.9234 71.6995 31.6521C71.6995 31.7428 71.6199 31.7894 71.4582 31.7894C71.3546 31.7894 71.299 31.7377 71.2884 31.6366C71.2407 31.0661 71.0711 30.68 70.7738 30.4828C70.4954 30.2857 69.8058 30.187 68.7077 30.187C68.376 30.187 68.0367 30.1974 67.6892 30.2183V32.9251C67.6892 33.9413 67.7662 34.5613 67.9146 34.7789C68.0288 34.9395 68.2012 35.0513 68.4292 35.1135C68.6573 35.168 69.0126 35.1964 69.5008 35.1964C70.278 35.1964 70.8827 35.1418 71.3202 35.0357C71.6863 34.9502 72.0152 34.8076 72.3068 34.6053C72.7311 34.2994 73.1265 33.7808 73.495 33.0471C73.5269 32.977 73.564 32.9406 73.6118 32.9406C73.8134 32.9406 73.9142 32.9977 73.9142 33.1143L73.8982 33.1923C73.7073 34.0064 73.4289 34.8569 73.0681 35.741ZM52.79 27.4672V33.3036C52.79 33.6965 52.8108 34.0144 52.8525 34.2568C52.8919 34.4853 52.9479 34.6421 53.0206 34.7267C53.1436 34.8607 53.3551 34.9631 53.6551 35.0332C53.9668 35.1061 54.37 35.143 54.8649 35.143C55.6915 35.143 56.4202 35.0146 57.0515 34.7572C57.6801 34.5013 58.213 34.1168 58.6506 33.6042C59.0253 33.1685 59.3065 32.6657 59.4946 32.0951C59.6831 31.5229 59.7776 30.8819 59.7776 30.1716C59.7776 29.3607 59.652 28.6432 59.4007 28.0187C59.1503 27.3964 58.7746 26.8653 58.2735 26.4249C57.8486 26.0535 57.3623 25.775 56.8147 25.5888C56.2658 25.4025 55.6549 25.309 54.9813 25.309C54.3789 25.309 53.9074 25.3422 53.5672 25.4077C53.2476 25.4696 53.0529 25.555 52.9834 25.6643L52.9822 25.6664C52.9212 25.7576 52.8742 25.9496 52.8414 26.2427C52.8071 26.5473 52.79 26.9552 52.79 27.4671V27.4672ZM52.5898 33.3036V27.4672C52.5898 26.9499 52.6073 26.5348 52.6426 26.221C52.6793 25.8954 52.7371 25.674 52.8164 25.5553C52.9177 25.3986 53.1555 25.2836 53.5296 25.2114C53.8834 25.143 54.3675 25.1086 54.9813 25.1086C55.6761 25.1086 56.3085 25.2058 56.8789 25.3995C57.451 25.5937 57.9598 25.8856 58.405 26.2747C58.9303 26.7364 59.3239 27.2929 59.5861 27.9443C59.8474 28.5934 59.9777 29.3359 59.9777 30.1716C59.9777 30.9028 59.8798 31.5649 59.6845 32.1578C59.4886 32.753 59.1943 33.2782 58.8022 33.7343C58.3435 34.2718 57.7849 34.6744 57.1265 34.9427C56.4709 35.2098 55.7169 35.3433 54.8647 35.3433C54.3553 35.3433 53.9369 35.3047 53.6096 35.2282C53.2694 35.1486 53.0241 35.0264 52.8734 34.8621L52.8735 34.8619L52.8718 34.8599C52.7731 34.7471 52.7012 34.5572 52.6552 34.2902C52.6114 34.0354 52.5896 33.7063 52.5896 33.3033L52.5898 33.3036ZM55.0292 24.5643C56.1297 24.5643 57.099 24.7071 57.9371 24.9931C58.7795 25.2803 59.4887 25.7116 60.0648 26.2867C60.5513 26.7713 60.9164 27.3328 61.1598 27.9714C61.4026 28.6086 61.5242 29.322 61.5242 30.112C61.5242 31.0397 61.3579 31.8678 61.0255 32.5957C60.6924 33.325 60.1934 33.952 59.5285 34.4765C58.9378 34.9419 58.2557 35.2911 57.4818 35.5242C56.7108 35.7562 55.8492 35.8722 54.8969 35.8722C54.3933 35.8722 53.8846 35.8566 53.3684 35.8252C53.1065 35.8094 52.8541 35.7978 52.6108 35.7901C52.3717 35.7826 52.1314 35.7788 51.8892 35.7788C51.6114 35.7788 51.3174 35.784 51.0066 35.7939C50.6917 35.8043 50.3504 35.8198 49.9823 35.8407L49.9768 35.8408V35.8412C49.8948 35.8412 49.8329 35.8095 49.79 35.7459C49.7556 35.6949 49.7386 35.6249 49.7386 35.536C49.7386 35.4544 49.756 35.3891 49.7912 35.3387C49.8315 35.2809 49.8896 35.248 49.9658 35.2396L49.973 35.239C50.2986 35.2187 50.5588 35.1784 50.7528 35.1188C50.932 35.0634 51.0498 34.9941 51.1055 34.9104L51.1098 34.9044C51.1578 34.8307 51.1961 34.6343 51.2243 34.3157C51.2541 33.9781 51.2691 33.5135 51.2691 32.9224V27.467C51.2691 26.9011 51.2561 26.4545 51.2303 26.1275C51.2054 25.8128 51.1708 25.6158 51.1268 25.5369C51.0862 25.4685 50.9684 25.4079 50.7732 25.3552C50.5578 25.2972 50.2591 25.2547 49.8773 25.228L49.8704 25.2273C49.797 25.2185 49.7406 25.1883 49.7007 25.1355C49.6638 25.0871 49.6458 25.0242 49.6458 24.9466C49.6458 24.8456 49.6612 24.7668 49.6924 24.7096C49.7345 24.6328 49.7982 24.5949 49.8839 24.5949C49.8881 24.5949 49.8922 24.5953 49.8963 24.5957C50.3058 24.6157 50.6685 24.6302 50.9852 24.6399C51.3179 24.65 51.6091 24.6545 51.8573 24.6545C52.073 24.6545 52.3022 24.6512 52.5444 24.6439C52.7761 24.6368 53.0293 24.6262 53.3051 24.6109H53.3125C53.857 24.5956 54.2775 24.5841 54.574 24.576C54.8722 24.5679 55.0239 24.5639 55.0294 24.5639L55.0292 24.5643ZM57.8728 25.1825C57.0562 24.9041 56.1084 24.7648 55.0292 24.7648C55.0079 24.7648 54.8578 24.7687 54.5787 24.7763C54.3041 24.7836 53.8838 24.7953 53.3178 24.8109L53.316 24.811C53.0447 24.8261 52.7892 24.8368 52.5497 24.844C52.29 24.8519 52.0599 24.8556 51.8571 24.8556C51.6219 24.8556 51.3299 24.8506 50.9796 24.84C50.6563 24.8302 50.2918 24.8157 49.8863 24.7959H49.8838C49.8767 24.7959 49.8714 24.7994 49.8676 24.8065C49.8531 24.8329 49.8459 24.8798 49.8459 24.947C49.8459 24.9808 49.8503 25.0037 49.8593 25.0155C49.8645 25.0224 49.8757 25.0269 49.8927 25.0289C50.2869 25.0567 50.5975 25.1012 50.8245 25.1623C51.0724 25.2289 51.2304 25.32 51.2985 25.4356L51.2993 25.4372C51.3586 25.5412 51.4021 25.7663 51.4293 26.1122C51.4557 26.4455 51.469 26.8975 51.469 27.4672V32.9227C51.469 33.5193 51.4537 33.9897 51.4234 34.3332C51.3924 34.6843 51.3428 34.912 51.2749 35.0162L51.2719 35.021C51.1897 35.1446 51.036 35.2407 50.8114 35.3099C50.602 35.3745 50.3268 35.4176 49.9861 35.4386C49.9704 35.4407 49.9597 35.4455 49.9544 35.453C49.9439 35.4681 49.9387 35.4958 49.9387 35.5362C49.9387 35.5847 49.9443 35.6172 49.9556 35.6341C49.9587 35.6386 49.9656 35.6408 49.9765 35.6408C50.3385 35.6204 50.6794 35.605 51.0001 35.5946C51.3267 35.5839 51.6228 35.5785 51.8889 35.5785C52.1189 35.5785 52.3613 35.5825 52.6168 35.5906C52.8678 35.5986 53.1221 35.6102 53.3799 35.6257C53.8876 35.6566 54.3924 35.6719 54.8966 35.6719C55.8299 35.6719 56.6725 35.5585 57.4244 35.3323C58.1736 35.1069 58.8338 34.7692 59.4045 34.3195C60.0446 33.8144 60.5243 33.2123 60.8436 32.5129C61.1635 31.8123 61.3235 31.0122 61.3235 30.1121C61.3235 29.3463 61.2063 28.6569 60.9724 28.043C60.739 27.4306 60.3893 26.8927 59.9236 26.4285C59.3694 25.8752 58.6859 25.46 57.8726 25.1825H57.8728ZM52.6898 27.4672V33.3036C52.6898 34.0997 52.7749 34.5975 52.9471 34.7946C53.2204 35.0927 53.8595 35.243 54.8649 35.243C56.5436 35.243 57.83 34.7193 58.7266 33.6693C59.4931 32.7771 59.8778 31.6131 59.8778 30.1716C59.8778 28.525 59.3658 27.252 58.3393 26.3497C57.4695 25.59 56.3502 25.2088 54.9815 25.2088C53.7641 25.2088 53.0692 25.3438 52.8995 25.6108C52.759 25.8208 52.6899 26.4379 52.6899 27.4671L52.6898 27.4672ZM55.0292 24.6644C57.2095 24.6644 58.8644 25.2297 59.9943 26.3577C60.9465 27.3063 61.4239 28.5562 61.4239 30.112C61.4239 31.9398 60.7715 33.3684 59.4665 34.3978C58.305 35.3128 56.7823 35.7721 54.8968 35.7721C54.3928 35.7721 53.8861 35.7564 53.3742 35.7254C52.8544 35.6941 52.3612 35.6786 51.8891 35.6786C51.3452 35.6786 50.7087 35.6992 49.9766 35.7408C49.8838 35.7408 49.8387 35.6734 49.8387 35.536C49.8387 35.4141 49.8839 35.3493 49.9766 35.3389C50.645 35.2975 51.0507 35.173 51.1886 34.9655C51.3081 34.7946 51.3688 34.1125 51.3688 32.9225V27.4671C51.3688 26.3288 51.3159 25.6676 51.2126 25.4865C51.1038 25.3023 50.6608 25.183 49.8838 25.1283C49.7908 25.1179 49.7458 25.0583 49.7458 24.9469C49.7458 24.7786 49.791 24.6955 49.8838 24.6955C50.7298 24.7372 51.3876 24.7551 51.857 24.7551C52.2627 24.7551 52.7456 24.7422 53.3103 24.7111C54.4297 24.6798 55.0025 24.6642 55.0291 24.6642L55.0292 24.6644Z" fill="#2E355C"/>
<path id="Vector_3" d="M36.825 30.0647L34.9182 27.2112L34.918 27.2115C34.6009 26.7257 34.3491 26.3499 34.1632 26.084C33.9754 25.8157 33.8508 25.6529 33.79 25.5958L33.787 25.593C33.6857 25.4944 33.5547 25.4156 33.3934 25.3556C33.2261 25.293 33.0262 25.251 32.7936 25.2285L32.792 25.2283V25.2285C32.7175 25.22 32.6595 25.1898 32.6185 25.1368C32.5812 25.0886 32.5622 25.0255 32.5622 24.9474C32.5622 24.8465 32.5784 24.7676 32.6103 24.7105L32.6105 24.7101L32.6103 24.71C32.653 24.6336 32.7175 24.5956 32.8029 24.5956C32.8073 24.5956 32.8116 24.596 32.8157 24.5964C33.1689 24.6223 33.5027 24.6417 33.8177 24.6543C34.1326 24.6671 34.437 24.6735 34.7312 24.6735C35.0764 24.6735 35.4172 24.6671 35.7536 24.6543C36.0915 24.6416 36.4343 24.6221 36.7818 24.5962L36.7892 24.5958C36.8781 24.5956 36.9455 24.6324 36.9914 24.706C37.0275 24.7643 37.0459 24.8444 37.0459 24.9474C37.0459 25.0279 37.0244 25.0925 36.9818 25.1416L36.9815 25.1417L36.9818 25.1418C36.9383 25.1917 36.8771 25.2206 36.7991 25.2285L36.7947 25.2287C36.575 25.249 36.3941 25.2737 36.252 25.303C36.1171 25.3308 36.0206 25.362 35.9622 25.3967C35.9209 25.4211 35.89 25.4517 35.8701 25.4887C35.8494 25.527 35.8389 25.5738 35.8389 25.6293C35.8389 25.7236 35.8848 25.8668 35.9758 26.0587C36.0713 26.2599 36.215 26.5095 36.4064 26.8071L36.4092 26.8118L37.8737 29.0368C37.9716 28.9067 38.0515 28.7994 38.1147 28.7138C38.208 28.5871 38.2743 28.495 38.314 28.4375C38.72 27.8809 39.1066 27.2986 39.5058 26.7356L39.5057 26.7355C39.6926 26.4729 39.8329 26.2453 39.9262 26.0532C40.0153 25.8704 40.0597 25.7244 40.0597 25.6164C40.0597 25.5596 40.0454 25.5125 40.0168 25.475C39.9859 25.4345 39.9368 25.4012 39.8697 25.3757L39.8637 25.373C39.7899 25.3429 39.6848 25.3162 39.548 25.2924C39.4053 25.2679 39.229 25.2468 39.0193 25.2287C39.0158 25.2286 39.0123 25.2279 39.009 25.2276C38.9348 25.2184 38.8767 25.19 38.8348 25.1418C38.7922 25.0927 38.7707 25.0282 38.7707 24.9474C38.7707 24.8444 38.7889 24.7643 38.8251 24.706C38.8711 24.6324 38.9388 24.5956 39.0275 24.5956C39.0316 24.5956 39.0359 24.596 39.0399 24.5964C39.3776 24.6223 39.6997 24.6417 40.0064 24.6543C40.3135 24.6671 40.6139 24.6735 40.9078 24.6735C41.1426 24.6735 41.397 24.6671 41.6714 24.6543C41.9454 24.6417 42.2481 24.6221 42.579 24.5962L42.5867 24.5956C42.6725 24.5956 42.736 24.6338 42.7781 24.7106C42.8093 24.7679 42.8247 24.8465 42.8247 24.9474C42.8247 25.0251 42.8065 25.0878 42.7698 25.1363C42.7295 25.1895 42.6722 25.22 42.5977 25.2285C42.5948 25.2286 42.5919 25.2289 42.5889 25.2289C42.3662 25.2491 42.1647 25.2901 41.9848 25.3524C41.8061 25.4143 41.6483 25.4973 41.5124 25.6022L41.5057 25.6069C41.4459 25.6478 41.3177 25.7893 41.1208 26.0307C40.9163 26.2816 40.6439 26.6339 40.3032 27.0869L38.8578 29.0185C38.8551 29.0219 38.8524 29.0251 38.8494 29.0282C38.8286 29.0499 38.7692 29.1199 38.6718 29.2379C38.586 29.3413 38.4648 29.4892 38.3102 29.6783L40.5325 33.0889C40.8742 33.6144 41.1531 34.0274 41.3694 34.327C41.5815 34.6209 41.7308 34.8032 41.8168 34.8731L41.8187 34.8747C41.9369 34.9754 42.079 35.0563 42.2447 35.117C42.4143 35.1789 42.6085 35.22 42.8265 35.2401H42.8279C42.9057 35.2484 42.9642 35.2811 43.0048 35.3383C43.0407 35.3889 43.0581 35.4549 43.0581 35.5365C43.0581 35.6255 43.0411 35.6954 43.006 35.7469C42.9628 35.8103 42.9003 35.8417 42.8174 35.8417C42.8132 35.8417 42.809 35.8413 42.8049 35.8409C42.4213 35.8208 42.0738 35.8063 41.7626 35.7967C41.4361 35.7866 41.1398 35.7818 40.8757 35.7818C40.5563 35.7818 40.2209 35.7865 39.8708 35.7966C39.5316 35.8063 39.1691 35.8209 38.7828 35.8411L38.7778 35.8413V35.8417C38.6914 35.8417 38.6244 35.8121 38.5767 35.7526C38.5345 35.7002 38.5131 35.6283 38.5131 35.5365C38.5131 35.4517 38.5349 35.384 38.5777 35.3325C38.6228 35.2786 38.6865 35.2478 38.7684 35.2401L38.7715 35.2399V35.2396C38.9714 35.2269 39.1368 35.2063 39.2671 35.1772C39.39 35.1498 39.4798 35.1155 39.536 35.0744L39.54 35.0719C39.581 35.0447 39.6114 35.0096 39.6318 34.9662C39.6536 34.9195 39.6644 34.8612 39.6644 34.7921C39.6644 34.6846 39.6169 34.5282 39.5217 34.3233C39.4223 34.1098 39.2731 33.8485 39.0735 33.54L37.2893 30.7413C36.6481 31.6683 36.0436 32.6023 35.4182 33.541C35.2199 33.8371 35.0712 34.092 34.9725 34.3053C34.878 34.5096 34.8308 34.672 34.8308 34.7921C34.8308 34.8627 34.8467 34.9208 34.8787 34.9668C34.911 35.0133 34.9614 35.0505 35.0299 35.078L35.0323 35.0789V35.0788C35.1164 35.1146 35.2386 35.1454 35.3992 35.172C35.5637 35.1993 35.7677 35.2216 36.0109 35.2396C36.0141 35.2399 36.0174 35.2401 36.0205 35.2408C36.0956 35.2501 36.1538 35.2819 36.1949 35.3365C36.2331 35.3869 36.2524 35.4536 36.2524 35.5365C36.2524 35.6253 36.2344 35.6952 36.1992 35.7464C36.1554 35.81 36.0927 35.8417 36.0117 35.8417C36.0074 35.8417 36.0033 35.8413 35.9992 35.8409C35.6309 35.8208 35.2929 35.806 34.9844 35.7966C34.6622 35.7865 34.3616 35.7818 34.0835 35.7818C33.8633 35.7818 33.6101 35.7866 33.3253 35.7967C33.0524 35.8063 32.7428 35.8209 32.3969 35.8411L32.3915 35.8413V35.8417C32.3099 35.8417 32.2473 35.81 32.2035 35.7464C32.1686 35.6954 32.1508 35.6254 32.1508 35.5365C32.1508 35.4548 32.169 35.389 32.2047 35.3386C32.2457 35.2812 32.3045 35.2485 32.3805 35.2401C32.5806 35.2176 32.7561 35.1757 32.9069 35.1145C33.054 35.0543 33.1774 34.9761 33.2767 34.8789L33.2783 34.8773C33.3968 34.7663 33.563 34.5739 33.7769 34.3001C33.9946 34.0213 34.2589 33.6623 34.5699 33.2232L34.57 33.2228L34.5699 33.2226L36.2117 30.9168C36.2521 30.8621 36.3057 30.7884 36.3739 30.693C36.4433 30.5958 36.5085 30.504 36.5666 30.4207L36.568 30.419L36.5678 30.4188C36.6418 30.3182 36.7016 30.2364 36.7428 30.1793C36.773 30.1375 36.8001 30.0995 36.8246 30.0644L36.825 30.0647ZM35.0853 27.1018L37.026 30.006C37.0508 30.0395 37.0531 30.0861 37.0283 30.1224C36.9983 30.1665 36.9572 30.2245 36.9052 30.2963C36.8475 30.3761 36.7907 30.4538 36.7294 30.5374L36.7293 30.5373C36.6457 30.6567 36.5828 30.746 36.5371 30.8101C36.4809 30.8884 36.4255 30.9645 36.3726 31.0362L34.7329 33.3391L34.7328 33.3388C34.4179 33.7836 34.1518 34.1453 33.9346 34.4232C33.7136 34.7063 33.5403 34.9066 33.4148 35.024C33.2968 35.139 33.1527 35.2308 32.9824 35.3003C32.815 35.3685 32.6217 35.415 32.4028 35.4391C32.3856 35.4409 32.3739 35.4463 32.3678 35.4549C32.357 35.47 32.3514 35.4972 32.3514 35.5368C32.3514 35.5847 32.3574 35.617 32.369 35.6339C32.3724 35.6389 32.38 35.6414 32.3918 35.6414C32.7318 35.6217 33.0408 35.607 33.3186 35.5973C33.6184 35.5866 33.8733 35.5816 34.0839 35.5816C34.3495 35.5816 34.6511 35.5866 34.9902 35.5971C35.307 35.607 35.6472 35.6216 36.0107 35.6414H36.0121C36.024 35.6414 36.0319 35.6389 36.0352 35.6339C36.0467 35.6174 36.0525 35.5852 36.0525 35.5368C36.0525 35.4984 36.0468 35.472 36.0358 35.4571C36.0287 35.4479 36.0159 35.442 35.9976 35.4396H35.9972C35.7496 35.4213 35.5397 35.3981 35.3674 35.3696C35.191 35.3403 35.0533 35.3052 34.9545 35.263L34.9546 35.2629C34.8494 35.2204 34.7695 35.1596 34.7147 35.0808C34.6588 35 34.6309 34.9041 34.6309 34.7924C34.6309 34.6435 34.6845 34.4529 34.7914 34.2217C34.8943 33.9996 35.0481 33.7357 35.2527 33.4301L36.5743 31.4247L37.2109 30.5044C37.2184 30.4938 37.228 30.4843 37.2395 30.477C37.2859 30.4473 37.3476 30.461 37.3772 30.5076L39.2415 33.4313C39.4468 33.749 39.6009 34.0185 39.7037 34.2398C39.8116 34.4719 39.8652 34.6561 39.8652 34.7925C39.8652 34.8902 39.8479 34.9765 39.8129 35.0513C39.7771 35.1279 39.7234 35.1903 39.6516 35.238C39.5726 35.2948 39.459 35.3394 39.3108 35.3723C39.1687 35.4042 38.9932 35.4262 38.7845 35.4396C38.759 35.4423 38.7413 35.4495 38.7316 35.461C38.7199 35.4752 38.7141 35.5002 38.7141 35.5368C38.7141 35.582 38.7203 35.6121 38.7328 35.6277C38.7401 35.637 38.7554 35.6414 38.7783 35.6414C39.159 35.6216 39.5217 35.6068 39.8658 35.5971C40.2345 35.5866 40.5709 35.5816 40.8762 35.5816C41.1276 35.5816 41.4249 35.5866 41.7686 35.5973C42.0872 35.607 42.4367 35.6217 42.8161 35.6414H42.8179C42.8304 35.6414 42.8383 35.639 42.8415 35.6345C42.8528 35.6177 42.8584 35.5854 42.8584 35.5368C42.8584 35.4968 42.8532 35.4694 42.8427 35.4544C42.8368 35.4463 42.8251 35.4409 42.8073 35.4391C42.5722 35.4173 42.3619 35.3728 42.1771 35.3053C41.9884 35.2363 41.8256 35.1434 41.6893 35.0266C41.5897 34.9452 41.4292 34.7506 41.2078 34.444C40.989 34.1407 40.7082 33.725 40.3655 33.198L38.1072 29.7325C38.0797 29.6966 38.0795 29.645 38.1094 29.6083C38.28 29.3994 38.4151 29.2345 38.5179 29.1103C38.6125 28.9961 38.6736 28.9238 38.7026 28.8932L40.1439 26.9673C40.4877 26.5103 40.7617 26.1557 40.9661 25.9048C41.1739 25.6502 41.316 25.496 41.3928 25.4428C41.5453 25.3254 41.7212 25.2327 41.9202 25.1638C42.1154 25.0962 42.3324 25.0519 42.5713 25.0304L42.576 25.0298C42.5941 25.0278 42.6058 25.0231 42.6113 25.0161C42.6202 25.0044 42.6246 24.9815 42.6246 24.9477C42.6246 24.8799 42.6175 24.8329 42.603 24.8066C42.5997 24.8005 42.5949 24.7971 42.5888 24.7967C42.2667 24.822 41.9638 24.8413 41.6801 24.8544C41.3949 24.8678 41.1374 24.8743 40.908 24.8743C40.6213 24.8743 40.3182 24.8678 39.9988 24.8544C39.6822 24.8413 39.3578 24.822 39.0258 24.7965C39.0115 24.797 39.0014 24.8021 38.9952 24.8122C38.9792 24.8377 38.9712 24.8828 38.9712 24.9477C38.9712 24.9785 38.9762 24.9994 38.986 25.0107C38.9943 25.0201 39.0097 25.0262 39.0319 25.0292L39.0359 25.0295C39.2504 25.0479 39.4322 25.0696 39.5819 25.0954C39.7334 25.1217 39.8528 25.1525 39.9404 25.1886L39.9412 25.1888C40.0439 25.2279 40.122 25.283 40.1759 25.3537C40.2323 25.4277 40.2604 25.5153 40.2604 25.6167C40.2604 25.7552 40.2091 25.9305 40.1065 26.1412C40.0091 26.3415 39.8632 26.5787 39.6689 26.8518L39.6687 26.8516L38.4787 28.5515C38.438 28.6104 38.3703 28.7042 38.2753 28.8332C38.1838 28.9575 38.0744 29.104 37.9486 29.2705H37.9483C37.9417 29.2793 37.9333 29.2873 37.9235 29.2938C37.8774 29.3239 37.8156 29.3113 37.7854 29.2651L36.2431 26.9218L36.2384 26.9151C36.0427 26.6109 35.8947 26.3536 35.7953 26.1443C35.6912 25.9249 35.6389 25.7534 35.6389 25.6295C35.6389 25.5404 35.6575 25.4621 35.6942 25.3939C35.732 25.324 35.7877 25.2675 35.8606 25.2246C35.9376 25.1788 36.0546 25.1398 36.2124 25.1074C36.3609 25.0768 36.5489 25.0511 36.7766 25.03L36.7797 25.0296C36.8049 25.0271 36.8221 25.0207 36.831 25.0106L36.8313 25.0107C36.841 24.9994 36.8459 24.9784 36.8459 24.9475C36.8459 24.8826 36.8378 24.8375 36.822 24.812C36.8157 24.8019 36.8055 24.7969 36.7914 24.7963C36.4511 24.8219 36.1074 24.8412 35.7609 24.8542C35.4109 24.8677 35.0678 24.8742 34.7314 24.8742C34.4447 24.8742 34.1377 24.8677 33.8101 24.8542C33.4859 24.8412 33.1501 24.8219 32.802 24.7963C32.7948 24.7969 32.7892 24.8009 32.7851 24.8081H32.785C32.7702 24.8347 32.7627 24.8811 32.7627 24.9475C32.7627 24.9804 32.7675 25.0028 32.7768 25.0149C32.7828 25.0227 32.7955 25.0277 32.8142 25.0296V25.0299C33.0636 25.0541 33.2797 25.1002 33.4632 25.1685C33.6511 25.2385 33.8053 25.3318 33.9262 25.4494L33.9272 25.4502C33.997 25.5158 34.1304 25.689 34.3268 25.9698C34.5213 26.2479 34.7745 26.6253 35.0856 27.1017L35.0853 27.1018ZM36.9459 30.0659L35.0019 27.1565C34.3705 26.1895 33.9887 25.6449 33.8587 25.5231C33.6359 25.3053 33.2856 25.1755 32.803 25.1289C32.7102 25.1185 32.6626 25.0589 32.6626 24.9475C32.6626 24.7792 32.7103 24.6961 32.803 24.6961C33.5085 24.7479 34.1504 24.774 34.7313 24.774C35.4129 24.774 36.0998 24.7479 36.7894 24.6961C36.8928 24.6961 36.9458 24.7792 36.9458 24.9475C36.9458 25.0591 36.8927 25.1185 36.7894 25.1289C36.3386 25.1706 36.0469 25.2302 35.9114 25.3106C35.7973 25.3778 35.7391 25.4843 35.7391 25.6293C35.7391 25.8473 35.9353 26.2594 36.3226 26.861L37.8688 29.2101C38.1447 28.8446 38.3196 28.6059 38.3966 28.4946L39.5875 26.7936C39.9696 26.2569 40.1604 25.8629 40.1604 25.6166C40.1604 25.4585 40.0757 25.3471 39.9059 25.2821C39.7441 25.2145 39.4524 25.1653 39.028 25.1291C38.9243 25.1187 38.8714 25.0591 38.8714 24.9477C38.8714 24.7793 38.9244 24.6963 39.028 24.6963C39.7016 24.748 40.3277 24.7741 40.9084 24.7741C41.3727 24.7741 41.9321 24.748 42.5874 24.6963C42.6802 24.6963 42.7251 24.7793 42.7251 24.9477C42.7251 25.0592 42.68 25.1187 42.5874 25.1291C42.1204 25.1707 41.7412 25.3003 41.4519 25.5233C41.3168 25.6142 40.9083 26.117 40.2241 27.027L38.7786 28.9587C38.7307 29.0079 38.5347 29.2463 38.187 29.6717L40.4494 33.1434C41.1337 34.196 41.5688 34.8001 41.7545 34.9505C42.0091 35.1684 42.3645 35.298 42.8181 35.3393C42.9136 35.3497 42.9585 35.4146 42.9585 35.5364C42.9585 35.6737 42.9134 35.7412 42.8181 35.7412C42.0276 35.6995 41.3779 35.6816 40.8765 35.6816C40.2665 35.6816 39.5663 35.6995 38.7786 35.7412C38.6698 35.7412 38.6142 35.6737 38.6142 35.5364C38.6142 35.4145 38.6699 35.3497 38.7786 35.3393C39.1871 35.3133 39.4602 35.2537 39.5956 35.1553C39.7097 35.08 39.7653 34.9584 39.7653 34.7921C39.7653 34.5485 39.5637 34.113 39.1578 33.4855L37.2931 30.5607L36.6565 31.481L35.3357 33.4853C34.9326 34.087 34.731 34.5225 34.731 34.792C34.731 34.9735 34.8184 35.1008 34.9936 35.1708C35.1765 35.2486 35.5133 35.3028 36.0041 35.3391C36.1022 35.3495 36.1524 35.4145 36.1524 35.5362C36.1524 35.6736 36.1046 35.7411 36.0119 35.7411C35.2561 35.6994 34.6143 35.6814 34.0838 35.6814C33.6649 35.6814 33.0997 35.6994 32.3917 35.7411C32.2989 35.7411 32.2513 35.6736 32.2513 35.5362C32.2513 35.4143 32.299 35.3495 32.3917 35.3391C32.8106 35.2924 33.129 35.1629 33.3465 34.9504C33.5904 34.7221 34.0256 34.1649 34.6514 33.2806L36.2907 30.9782C36.381 30.8564 36.5001 30.6903 36.6487 30.4778C36.7841 30.2937 36.8822 30.1589 36.9458 30.0657L36.9459 30.0659ZM22.876 26.4461C22.8579 26.4959 22.8388 26.5481 22.8186 26.6026C22.7609 26.7579 22.6849 26.9578 22.5916 27.1999L22.5918 27.2002C22.4877 27.473 22.405 27.692 22.3384 27.8691C22.2827 28.0176 22.2171 28.194 22.1573 28.3555L22.1546 28.3619L21.3019 30.7011C21.4665 30.7082 21.6616 30.7138 21.8869 30.7177C22.1664 30.7227 22.5127 30.7251 22.9252 30.7251C23.3022 30.7251 23.6178 30.7227 23.8724 30.7177C24.0716 30.714 24.2448 30.7086 24.3919 30.7015C24.0673 29.819 23.729 28.9382 23.4241 28.049C23.2561 27.5589 23.0787 27.0414 22.876 26.446V26.4461ZM22.6308 26.5329C22.6953 26.3591 22.7456 26.2189 22.7813 26.1131C22.79 26.0825 22.813 26.0566 22.8454 26.0455C22.8977 26.0278 22.9545 26.0559 22.9723 26.1082C23.1815 26.7237 23.4042 27.3737 23.6134 27.9841L23.7178 28.2885L24.6266 30.7601C24.63 30.769 24.632 30.7786 24.6325 30.7885C24.6358 30.8438 24.5937 30.891 24.5386 30.8945C24.3689 30.9046 24.1479 30.9125 23.8755 30.9178C23.5944 30.9231 23.2776 30.9259 22.9254 30.9259C22.54 30.9259 22.1926 30.9231 21.884 30.9178C21.586 30.9125 21.3433 30.9046 21.1563 30.8945C21.1467 30.8938 21.1371 30.8918 21.1277 30.8884C21.0758 30.8697 21.049 30.8124 21.0678 30.7603L21.967 28.2938L21.9695 28.2861C22.0076 28.1833 22.0627 28.0356 22.1514 27.799C22.2296 27.5909 22.3151 27.3642 22.4049 27.1291H22.405L22.4051 27.1286C22.4868 26.9173 22.5618 26.7191 22.6308 26.533V26.5329ZM24.6701 31.5107C24.3218 31.4926 24.0073 31.4789 23.7261 31.4696C23.4311 31.4599 23.1643 31.4547 22.9252 31.4547C22.5692 31.4547 22.2316 31.4596 21.9116 31.4692C21.6035 31.4786 21.3018 31.4923 21.0068 31.51L20.3767 33.1924C20.2568 33.5034 20.1666 33.7776 20.1062 34.0145C20.0472 34.2459 20.0177 34.4391 20.0177 34.5929C20.0177 34.7094 20.0372 34.8056 20.0765 34.8824C20.1136 34.9553 20.1694 35.0117 20.2439 35.0522L20.2445 35.0526C20.3295 35.0965 20.4548 35.1339 20.6204 35.1648C20.7924 35.1971 21.006 35.2219 21.2611 35.2399L21.2679 35.2405C21.3427 35.2494 21.4006 35.2822 21.4411 35.3389C21.4769 35.3893 21.4951 35.4552 21.4951 35.5368C21.4951 35.6255 21.4772 35.6954 21.4419 35.7467L21.4417 35.7471L21.4419 35.7472C21.3984 35.8105 21.3357 35.8419 21.2544 35.8419C21.2506 35.8419 21.2468 35.8415 21.2433 35.8413C20.6692 35.8258 20.2239 35.8141 19.9069 35.8065C19.5989 35.7988 19.4107 35.7952 19.342 35.7952C19.0473 35.7952 18.7703 35.7988 18.5114 35.8065C18.2478 35.814 17.991 35.8258 17.7411 35.8414L17.7349 35.8417V35.8419C17.6535 35.8419 17.5908 35.8105 17.5472 35.7472C17.5455 35.7447 17.544 35.7421 17.5426 35.7395C17.5104 35.6888 17.494 35.6214 17.494 35.5368C17.494 35.4551 17.5122 35.3893 17.548 35.3389C17.589 35.2815 17.6479 35.2488 17.7238 35.2404L17.7256 35.2401C17.9276 35.2127 18.0998 35.1696 18.2422 35.1112C18.3802 35.0545 18.4901 34.9833 18.5717 34.8978C18.6836 34.7787 18.8164 34.5666 18.9695 34.2622C19.1242 33.9543 19.2982 33.5544 19.4903 33.063L19.4921 33.0585L21.3705 28.1948H21.3704C21.686 27.3674 21.9431 26.6818 22.1412 26.1381C22.3416 25.5878 22.4857 25.1719 22.5726 24.89C22.5811 24.8622 22.6005 24.8409 22.6247 24.8292L23.5343 24.3884C23.5484 24.3818 23.5632 24.3786 23.5778 24.3786V24.3782C23.6395 24.3782 23.692 24.3981 23.7346 24.4375C23.7727 24.4729 23.7999 24.522 23.8154 24.5843V24.5845C23.977 25.1139 24.1613 25.6862 24.368 26.3014C24.5756 26.9199 24.804 27.5763 25.0534 28.2713H25.0535L26.8412 33.1874C27.0061 33.6404 27.1532 34.0114 27.2815 34.3C27.4083 34.5845 27.516 34.7869 27.6046 34.9069L27.606 34.909H27.6061C27.6663 34.9944 27.7806 35.0648 27.9498 35.1201C28.1321 35.1798 28.3735 35.2198 28.6743 35.24L28.6761 35.2403L28.6763 35.24C28.7619 35.2476 28.8281 35.2773 28.8754 35.3298C28.9222 35.3816 28.9454 35.4505 28.9454 35.5369C28.9454 35.6298 28.9238 35.7021 28.8801 35.7546C28.8317 35.8132 28.7636 35.8421 28.6755 35.8421C28.6716 35.8421 28.668 35.8417 28.6643 35.8414C28.0728 35.826 27.6063 35.8143 27.2644 35.8067C26.9303 35.799 26.7096 35.7954 26.6013 35.7954C26.5052 35.7954 26.2929 35.799 25.9647 35.8067C25.6272 35.8143 25.1612 35.8261 24.5665 35.8415H24.5641V35.8421C24.4827 35.8421 24.4202 35.8107 24.3766 35.7473C24.3749 35.7448 24.3733 35.7423 24.3718 35.7396C24.3398 35.6889 24.3234 35.6216 24.3234 35.5369C24.3234 35.4548 24.3417 35.3881 24.3778 35.3377C24.4193 35.2794 24.479 35.2464 24.556 35.24L24.5599 35.2397C24.8294 35.2194 25.0495 35.1914 25.2199 35.156C25.3813 35.1223 25.4952 35.0833 25.5611 35.0385V35.0384C25.603 35.0079 25.6348 34.9661 25.6562 34.9123C25.6801 34.8524 25.6922 34.7764 25.6922 34.6837C25.6922 34.596 25.663 34.4466 25.6045 34.2357C25.5444 34.0188 25.4537 33.7385 25.3319 33.3947L25.3303 33.3898L24.67 31.5107H24.6701ZM23.7325 31.2698C24.0387 31.28 24.3768 31.2951 24.7473 31.3144C24.7866 31.3164 24.8228 31.3418 24.8365 31.3815L25.519 33.3234L25.5207 33.3282C25.643 33.6738 25.7352 33.9586 25.7972 34.1825C25.8609 34.4124 25.8928 34.5793 25.8928 34.6837C25.8928 34.8009 25.8756 34.9011 25.8418 34.986C25.8057 35.0768 25.7512 35.1479 25.6788 35.2003L25.6787 35.2002L25.6768 35.2017C25.5888 35.2623 25.4501 35.3125 25.261 35.3515C25.0808 35.3892 24.8522 35.4182 24.5756 35.4392L24.5728 35.4396C24.5571 35.4408 24.5464 35.4455 24.5409 35.4535C24.5298 35.4689 24.5241 35.497 24.5241 35.5368C24.5241 35.5823 24.5293 35.6134 24.5393 35.6307L24.5414 35.6337C24.5449 35.6387 24.5527 35.6414 24.5645 35.6414V35.6418C25.1546 35.6263 25.62 35.6145 25.9611 35.6068C26.3119 35.5987 26.5254 35.5947 26.6017 35.5947C26.6898 35.5947 26.9118 35.5987 27.2688 35.6068C27.6145 35.6145 28.0814 35.6261 28.67 35.6416L28.6759 35.6414C28.7015 35.6414 28.7184 35.6367 28.7264 35.6269C28.7392 35.6116 28.7454 35.5815 28.7454 35.5368C28.7454 35.5015 28.7394 35.4769 28.7272 35.4633C28.7154 35.4503 28.6929 35.4424 28.6594 35.4396V35.4394C28.3429 35.4181 28.0861 35.3749 27.8883 35.3104C27.6769 35.2412 27.5286 35.1458 27.443 35.024C27.3462 34.8921 27.2317 34.6775 27.0996 34.3813C26.9689 34.0877 26.8201 33.7123 26.6538 33.2556L24.8661 28.3396H24.8663L24.8661 28.339C24.6143 27.6367 24.3851 26.9787 24.179 26.3649C23.9734 25.7525 23.7887 25.1786 23.6251 24.6428C23.6238 24.6393 23.6227 24.6358 23.6218 24.6321C23.6161 24.6088 23.6086 24.593 23.5997 24.5847C23.5983 24.5837 23.5967 24.5825 23.5947 24.5815L22.7509 24.9903C22.6618 25.2747 22.5211 25.6797 22.3293 26.2063C22.1256 26.7659 21.8683 27.4517 21.5578 28.2657H21.5575L19.6787 33.1304L19.6768 33.1358C19.4829 33.6321 19.3062 34.0378 19.1482 34.3521C18.9865 34.6738 18.8426 34.9017 18.7176 35.0349L18.7172 35.0352C18.6159 35.1414 18.4832 35.2281 18.3185 35.2957C18.1601 35.361 17.9717 35.4085 17.7531 35.438L17.7462 35.439C17.729 35.4408 17.7173 35.4461 17.7112 35.4548C17.7003 35.4698 17.6947 35.4971 17.6947 35.5366C17.6947 35.5822 17.6999 35.6133 17.71 35.6306L17.712 35.6335C17.7156 35.6386 17.7233 35.6412 17.7351 35.6412C17.9793 35.6259 18.2363 35.6144 18.5063 35.6066C18.783 35.5985 19.0618 35.5945 19.3424 35.5945C19.3932 35.5945 19.5828 35.5985 19.9121 35.6066C20.2291 35.6144 20.6747 35.6259 21.249 35.6415L21.2548 35.6412C21.2667 35.6412 21.2745 35.6386 21.278 35.6335L21.2782 35.6337C21.2895 35.6169 21.2952 35.5847 21.2952 35.5366C21.2952 35.4971 21.2897 35.4698 21.2789 35.4548C21.2729 35.4464 21.2619 35.4413 21.2456 35.4392C20.9847 35.4207 20.7641 35.3952 20.584 35.3614C20.4001 35.3269 20.2565 35.2831 20.1536 35.2299L20.1491 35.2275C20.0378 35.1671 19.9544 35.0825 19.8985 34.9731C19.8448 34.8677 19.8179 34.7412 19.8179 34.5928C19.8179 34.4224 19.8496 34.2129 19.9127 33.9651C19.9745 33.7232 20.0671 33.4416 20.1911 33.1203L20.8408 31.3851C20.8527 31.3461 20.8875 31.3168 20.9303 31.3141C21.2417 31.2944 21.5672 31.2795 21.9067 31.2693C22.2437 31.2593 22.5835 31.254 22.9258 31.254C23.1534 31.254 23.4226 31.2594 23.733 31.2695L23.7325 31.2698ZM22.8775 26.1404C22.8005 26.3685 22.6734 26.7107 22.4982 27.1645C22.3046 27.6727 22.1612 28.0566 22.0632 28.3209L21.1616 30.7943C21.5382 30.815 22.1271 30.8254 22.9252 30.8254C23.6548 30.8254 24.1906 30.815 24.5328 30.7943L23.623 28.3209C23.3921 27.6468 23.1429 26.9206 22.8776 26.1403L22.8775 26.1404ZM24.7422 31.4142C23.9968 31.3751 23.392 31.3544 22.9252 31.3544C22.2199 31.3544 21.5566 31.3751 20.9361 31.4142L20.2838 33.1565C20.0397 33.789 19.9177 34.2687 19.9177 34.5928C19.9177 34.8572 20.0105 35.0389 20.1963 35.1398C20.3844 35.2385 20.7374 35.3031 21.2544 35.3394C21.3472 35.3498 21.3949 35.4147 21.3949 35.5365C21.3949 35.6739 21.3471 35.7413 21.2544 35.7413C20.098 35.7102 19.4614 35.6946 19.342 35.6946C18.7666 35.6946 18.2308 35.7102 17.7349 35.7413C17.6419 35.7413 17.5943 35.6739 17.5943 35.5365C17.5943 35.4146 17.642 35.3498 17.7349 35.3394C18.1591 35.2823 18.4615 35.158 18.6445 34.966C18.8805 34.7147 19.1961 34.0897 19.5832 33.0992L21.4637 28.2299C22.0898 26.5887 22.4929 25.4869 22.668 24.9189L23.5777 24.4781C23.6493 24.4781 23.6971 24.5223 23.7182 24.6076C24.0443 25.6759 24.458 26.9075 24.9595 28.3051L26.7471 33.2212C27.0786 34.131 27.3386 34.7147 27.5241 34.966C27.6698 35.1733 28.0493 35.298 28.6675 35.3394C28.7866 35.3498 28.845 35.4147 28.845 35.5365C28.845 35.6739 28.7893 35.7413 28.6753 35.7413C27.4871 35.7102 26.7975 35.6946 26.6012 35.6946C26.4288 35.6946 25.7498 35.7102 24.5641 35.7413C24.4713 35.7413 24.4237 35.6739 24.4237 35.5365C24.4237 35.4146 24.4714 35.3473 24.5641 35.3394C25.1134 35.298 25.466 35.2255 25.6198 35.1193C25.7341 35.0361 25.7922 34.8934 25.7922 34.6835C25.7922 34.4919 25.6702 34.051 25.4261 33.3612L24.7419 31.4142H24.7422ZM10.9493 24.6432C11.1277 24.6481 11.3254 24.6519 11.5431 24.6545C11.7434 24.6569 11.9877 24.6579 12.2773 24.6579C12.5047 24.6579 12.7519 24.6529 13.0187 24.6429C13.2872 24.6326 13.5843 24.6172 13.9102 24.5963L13.9165 24.5959V24.5958C14.0043 24.5958 14.0705 24.6304 14.116 24.7003C14.1524 24.7565 14.1705 24.8335 14.1705 24.932C14.1705 25.0157 14.1508 25.0825 14.1108 25.1339C14.0677 25.1891 14.0064 25.2205 13.9263 25.2286L13.9223 25.2287C13.5903 25.2491 13.3274 25.2886 13.1335 25.3481C12.9558 25.4027 12.841 25.4714 12.7893 25.5549L12.7888 25.5556C12.7311 25.648 12.6873 25.7871 12.6574 25.9731C12.6263 26.1662 12.611 26.4087 12.611 26.7003V26.8921L12.6107 26.8997L12.6796 32.9226C12.6821 33.3226 12.6888 33.6538 12.6989 33.9164C12.7089 34.1766 12.7226 34.3663 12.7394 34.4856C12.7543 34.5719 12.7752 34.65 12.8017 34.7207C12.8273 34.7896 12.8583 34.8516 12.894 34.9077C12.9303 34.9554 12.9758 34.9968 13.03 35.0321C13.0865 35.0687 13.1518 35.0981 13.2258 35.1213C13.3068 35.1423 13.4178 35.1632 13.5597 35.1833C13.703 35.2035 13.8735 35.2227 14.0711 35.2404L14.077 35.2411V35.2405C14.1561 35.2522 14.2162 35.2847 14.2587 35.3386C14.2992 35.39 14.319 35.456 14.319 35.5368C14.319 35.6275 14.2996 35.6987 14.2599 35.7512C14.2137 35.8117 14.1483 35.8419 14.0625 35.8419C14.0584 35.8419 14.0543 35.8415 14.0503 35.8411C13.633 35.8211 13.2542 35.8065 12.9134 35.797C12.5583 35.7867 12.2346 35.7821 11.9431 35.7821C11.655 35.7821 11.3419 35.7867 11.0053 35.7968C10.6803 35.8065 10.3239 35.8212 9.93534 35.8414L9.93015 35.8415V35.8419C9.85449 35.8419 9.79783 35.8073 9.7606 35.7373V35.7372L9.7602 35.7373C9.7344 35.6885 9.72124 35.6217 9.72124 35.5368C9.72124 35.4616 9.73467 35.4005 9.761 35.3528C9.79411 35.2927 9.84371 35.256 9.90901 35.2418C9.91433 35.2407 9.91951 35.2401 9.92457 35.2396C10.253 35.2144 10.5129 35.1718 10.7044 35.1118C10.8803 35.0569 10.9927 34.9907 11.0419 34.913L11.0423 34.9123C11.0994 34.8236 11.1428 34.6678 11.1729 34.4457C11.2043 34.2147 11.2198 33.9145 11.2198 33.5455L11.2201 33.5374L11.1755 26.4456H11.1589L8.76907 31.7871L8.7692 31.7873C8.5019 32.3766 8.23075 32.9914 7.95587 33.6324C7.68219 34.2704 7.40226 34.9403 7.11581 35.6419L7.11381 35.6467C7.08496 35.7111 7.04067 35.7602 6.98163 35.7939C6.92564 35.8258 6.85875 35.8419 6.78189 35.8419C6.72244 35.8419 6.66965 35.8226 6.6231 35.7845C6.58307 35.7518 6.5493 35.7055 6.52164 35.6466L6.51951 35.6418L6.51924 35.6419C6.22987 34.9287 5.96018 34.2775 5.71017 33.6892C5.46055 33.1016 5.2261 32.5665 5.00641 32.0832C5.00508 32.0806 5.00402 32.0779 5.00309 32.075L2.50006 26.4456H2.49128L2.447 32.9234H2.4474V33.1826C2.4474 33.6493 2.46562 34.029 2.50219 34.3221C2.5373 34.6026 2.5877 34.7989 2.65339 34.9117C2.68584 34.9589 2.72773 34.9994 2.77866 35.0337C2.83279 35.0699 2.89715 35.0993 2.97175 35.1223C3.04835 35.1431 3.15368 35.1636 3.28892 35.1838C3.4247 35.2041 3.58508 35.2231 3.77019 35.2408C3.85224 35.2485 3.91514 35.2794 3.95956 35.3334C4.00185 35.3851 4.02273 35.4528 4.02273 35.5372C4.02273 35.6287 4.00225 35.7003 3.96076 35.753C3.91355 35.8128 3.84706 35.8423 3.76075 35.8423C3.75649 35.8423 3.75224 35.8419 3.74812 35.8415C3.37496 35.8216 3.04995 35.8069 2.77215 35.7975C2.47865 35.7872 2.22957 35.7825 2.02624 35.7825C1.76639 35.7825 1.48619 35.7871 1.18737 35.7972C0.900126 35.8069 0.586683 35.8216 0.247174 35.8418L0.241323 35.8419V35.8423C0.158341 35.8423 0.0959709 35.8109 0.0526181 35.7476C0.0176432 35.6961 0.000488281 35.6261 0.000488281 35.5372C0.000488281 35.4555 0.0179092 35.3896 0.053815 35.339C0.0943751 35.2818 0.153021 35.249 0.230684 35.2408L0.238397 35.2401C0.515802 35.215 0.739615 35.1716 0.909302 35.11C1.06662 35.0527 1.17328 34.9818 1.22873 34.8974C1.28059 34.8045 1.32475 34.7026 1.36118 34.5917C1.39855 34.4784 1.42714 34.3585 1.44722 34.232H1.44709C1.46691 34.0958 1.48406 33.9177 1.49816 33.698C1.51225 33.4768 1.52342 33.2178 1.53127 32.9213L1.67183 26.7166H1.67143V26.5737C1.67143 26.3136 1.65561 26.0974 1.62423 25.9261C1.59404 25.7622 1.55055 25.6405 1.4939 25.5615L1.49244 25.5592C1.43246 25.4861 1.31131 25.4225 1.12899 25.3677C0.927654 25.3071 0.659558 25.2608 0.324571 25.2293L0.323108 25.2291L0.322975 25.2293C0.248504 25.2208 0.190656 25.1906 0.149564 25.1376C0.112328 25.0894 0.0933113 25.0263 0.0933113 24.9482C0.0933113 24.8473 0.109535 24.7684 0.141452 24.7113C0.184272 24.6346 0.24877 24.5964 0.334013 24.5964C0.338268 24.5964 0.342524 24.5968 0.346513 24.5972C0.755307 24.618 1.09987 24.6333 1.37967 24.6436C1.65827 24.6535 1.87916 24.6586 2.04193 24.6586C2.32452 24.6586 2.56895 24.6575 2.77627 24.6551C3.00487 24.6526 3.22044 24.6486 3.42403 24.6436C3.47058 24.6424 3.51034 24.6734 3.52258 24.7161H3.52271C3.61034 25.0219 3.70649 25.3204 3.81155 25.6111C3.91621 25.9011 4.03057 26.1862 4.15465 26.4662C4.15585 26.4687 4.15691 26.4715 4.15784 26.4741L6.33692 31.5164L6.33719 31.5163C6.39995 31.655 6.47456 31.8235 6.56087 32.0202C6.65129 32.2266 6.74332 32.4389 6.83667 32.6562C6.83774 32.6587 6.8388 32.6612 6.8396 32.664L6.87657 32.7515C7.0029 33.0508 7.10131 33.2841 7.17964 33.468C7.36396 33.0375 7.52327 32.67 7.65759 32.3653C7.81531 32.0076 7.94377 31.7254 8.04258 31.5181L10.0955 26.6801L10.0978 26.6746C10.2302 26.3788 10.3596 26.0653 10.4855 25.7348C10.6104 25.4076 10.7303 25.067 10.8456 24.7125C10.8602 24.6674 10.9041 24.6398 10.9495 24.644L10.9493 24.6432ZM11.5415 24.8541C11.3478 24.8521 11.1716 24.8488 11.0125 24.8445C10.9027 25.1787 10.7894 25.4989 10.6725 25.8053C10.5469 26.1346 10.4161 26.4512 10.2802 26.7553L8.22636 31.5957L8.22623 31.5956L8.22436 31.5995C8.13114 31.7944 8.00334 32.0761 7.84057 32.445C7.68046 32.8083 7.49122 33.2452 7.27353 33.7559C7.26435 33.7809 7.24534 33.8024 7.219 33.8137C7.1682 33.8355 7.10929 33.8121 7.08762 33.7612C7.02817 33.6239 6.89186 33.3005 6.69265 32.8283L6.65568 32.7407L6.65262 32.7343C6.54491 32.4836 6.45328 32.2718 6.37761 32.0992C6.29689 31.915 6.22255 31.7473 6.15473 31.5976L6.155 31.5975L3.97472 26.5526L3.97166 26.5461C3.84679 26.2646 3.73096 25.9752 3.62378 25.6783C3.5247 25.404 3.43414 25.1259 3.35182 24.8443C3.17203 24.8486 2.9808 24.8518 2.77786 24.854C2.52453 24.8569 2.27944 24.8585 2.04193 24.8585C1.8886 24.8585 1.66532 24.853 1.37262 24.8424C1.0871 24.832 0.741476 24.8166 0.336406 24.7961H0.334013C0.326167 24.7961 0.320182 24.7998 0.315927 24.8075C0.301166 24.8339 0.293585 24.8805 0.293585 24.9473C0.293585 24.9801 0.298373 25.0025 0.307682 25.0146C0.313666 25.0225 0.326167 25.0274 0.344917 25.0294V25.0296C0.693602 25.0628 0.974066 25.1111 1.18618 25.1747C1.40813 25.2415 1.56225 25.3279 1.64816 25.4334C1.65122 25.4368 1.65401 25.4401 1.65667 25.4438C1.73021 25.5464 1.785 25.6951 1.82051 25.8891C1.85455 26.0747 1.87171 26.3026 1.87171 26.5728V26.7156H1.87144C1.85934 28.7788 1.762 30.8591 1.73088 32.9252C1.72277 33.2306 1.7116 33.4921 1.69763 33.7097C1.68314 33.9352 1.66558 34.1184 1.6451 34.2593H1.64497L1.64471 34.2608C1.6225 34.4006 1.59151 34.5317 1.55135 34.6533C1.51159 34.7739 1.46198 34.8874 1.40241 34.9942C1.40068 34.9978 1.39868 35.0012 1.39642 35.0048C1.31663 35.1273 1.17673 35.2245 0.97739 35.2969C0.792276 35.3643 0.551708 35.4113 0.25635 35.4379L0.251828 35.4386C0.234142 35.4404 0.222439 35.4457 0.216588 35.4539C0.205949 35.4689 0.200762 35.4963 0.200762 35.5362C0.200762 35.5848 0.206348 35.6172 0.217784 35.6339C0.220843 35.6385 0.228689 35.6409 0.241323 35.6409C0.574049 35.6212 0.887626 35.6065 1.18112 35.5965C1.49576 35.586 1.77729 35.5811 2.02624 35.5811C2.2192 35.5811 2.46961 35.586 2.7784 35.5968C3.06325 35.6066 3.39039 35.6212 3.75902 35.6409H3.76075C3.78322 35.6409 3.79772 35.6367 3.80424 35.6285C3.81647 35.613 3.82245 35.5824 3.82245 35.5362C3.82245 35.4988 3.81687 35.4732 3.80543 35.4594C3.79626 35.4481 3.77817 35.4411 3.75144 35.4386C3.55715 35.4202 3.39345 35.4009 3.25993 35.3811C3.1191 35.3599 3.00513 35.3373 2.9179 35.3136L2.91497 35.3128C2.82042 35.2839 2.73797 35.246 2.66749 35.1987C2.59435 35.1496 2.53437 35.0908 2.48729 35.022L2.48423 35.0169C2.40245 34.8802 2.34234 34.6564 2.30351 34.3455C2.26587 34.0442 2.24699 33.6565 2.24699 33.1819V32.9228H2.24739L2.29247 26.353L2.29207 26.3448C2.29207 26.2895 2.33702 26.2445 2.39234 26.2445H2.56482V26.2448C2.60299 26.2448 2.63943 26.267 2.65592 26.304L5.18554 31.9931L5.18873 31.9997C5.40404 32.4732 5.63915 33.0101 5.89408 33.6102C6.14861 34.2093 6.41871 34.8611 6.70489 35.5662C6.71885 35.5953 6.73361 35.6164 6.74917 35.629C6.75888 35.6369 6.76978 35.6409 6.78202 35.6409C6.82444 35.6409 6.85835 35.6338 6.88322 35.6196C6.90396 35.6076 6.92019 35.5893 6.93123 35.5649C7.21448 34.8707 7.49495 34.2002 7.77235 33.5535C8.04949 32.9071 8.32118 32.2907 8.58715 31.7045H8.58741L11.0003 26.3116C11.014 26.2726 11.0511 26.2445 11.0948 26.2445H11.275V26.2448C11.3301 26.245 11.3748 26.2895 11.3749 26.3443L11.4201 33.5355C11.4204 33.5387 11.4205 33.5418 11.4205 33.545C11.4205 33.9204 11.4042 34.2293 11.3712 34.4718C11.337 34.7236 11.2837 34.9065 11.2109 35.02C11.1351 35.1391 10.9864 35.2332 10.7644 35.3027C10.5597 35.3664 10.2876 35.4118 9.94784 35.4383C9.94305 35.4402 9.93933 35.4435 9.93667 35.4484C9.92683 35.4661 9.92191 35.4954 9.92191 35.5362C9.92191 35.5862 9.92683 35.621 9.9364 35.6407C10.3166 35.6208 10.6714 35.6062 11.0003 35.5965C11.3548 35.586 11.6688 35.5811 11.9435 35.5811C12.2208 35.5811 12.5456 35.586 12.9192 35.5965C13.2662 35.6065 13.6465 35.621 14.0604 35.6409H14.0629C14.0831 35.6409 14.0959 35.6374 14.1015 35.6301C14.1133 35.6142 14.1192 35.5832 14.1192 35.5362C14.1192 35.5006 14.1137 35.4756 14.1027 35.4617C14.0934 35.4499 14.0754 35.4423 14.0484 35.4383L14.0485 35.438C13.8449 35.4199 13.673 35.4008 13.5327 35.3808C13.3827 35.3596 13.2637 35.3371 13.1754 35.3139V35.3137L13.1718 35.3128C13.0775 35.284 12.9942 35.2464 12.9223 35.1998C12.8478 35.1519 12.7849 35.0939 12.7337 35.0257L12.7339 35.0256L12.7297 35.0199C12.6847 34.95 12.6462 34.8736 12.615 34.79C12.5837 34.7063 12.5594 34.6161 12.5425 34.5184L12.5421 34.5157C12.5244 34.3918 12.51 34.1942 12.4997 33.9229C12.4896 33.6614 12.4829 33.3283 12.4803 32.9236L12.4114 26.9014C12.4111 26.8982 12.4108 26.895 12.4108 26.8916V26.6998C12.4108 26.4003 12.4273 26.1475 12.4606 25.9412C12.4949 25.7281 12.5481 25.5637 12.6202 25.4486C12.6986 25.3226 12.8502 25.2257 13.0758 25.1565C13.2855 25.0922 13.5635 25.0497 13.9102 25.0287C13.9318 25.0262 13.9463 25.0199 13.9539 25.0102C13.9649 24.996 13.9705 24.9698 13.9705 24.9313C13.9705 24.8717 13.9633 24.8307 13.9488 24.8083C13.9432 24.7999 13.9326 24.7955 13.917 24.7955C13.5987 24.816 13.3016 24.8315 13.026 24.842C12.7456 24.8525 12.4961 24.858 12.2776 24.858C12.0314 24.858 11.7865 24.8564 11.5418 24.8534L11.5415 24.8541ZM10.9406 24.7427C11.2987 24.7531 11.7415 24.7581 12.2773 24.7581C12.7228 24.7581 13.2693 24.7376 13.9165 24.696C14.0201 24.696 14.0702 24.7738 14.0702 24.9318C14.0702 25.0539 14.0199 25.1184 13.9165 25.1288C13.2376 25.1705 12.8343 25.2921 12.7045 25.5022C12.5744 25.7097 12.5108 26.1091 12.5108 26.7002C12.5108 26.7831 12.5108 26.8454 12.5108 26.892L12.5799 32.923C12.5852 33.7345 12.6063 34.261 12.6408 34.5019C12.6728 34.6859 12.7312 34.8393 12.8131 34.966C12.9008 35.0828 13.0307 35.1656 13.2004 35.2176C13.3675 35.2618 13.654 35.3031 14.0625 35.3394C14.1686 35.3551 14.2188 35.4198 14.2188 35.5365C14.2188 35.6739 14.1685 35.7413 14.0625 35.7413C13.2032 35.6997 12.4975 35.6817 11.9431 35.6817C11.3942 35.6817 10.7233 35.6997 9.93015 35.7413C9.85847 35.7413 9.82124 35.6739 9.82124 35.5365C9.82124 35.4197 9.85847 35.3551 9.93015 35.3394C10.6037 35.2876 11.0017 35.1632 11.1263 34.966C11.2561 34.7639 11.32 34.2893 11.32 33.5452L11.2746 26.3451H11.0944L8.67797 31.7459C8.14511 32.9204 7.59335 34.2064 7.02312 35.6039C6.98322 35.6948 6.90104 35.7413 6.78175 35.7413C6.71007 35.7413 6.65422 35.6946 6.61193 35.6039C6.03638 34.1857 5.5325 32.9981 5.09737 32.0416L2.56469 26.3451H2.39221L2.34713 32.923C2.34713 33.0398 2.34713 33.1252 2.34713 33.1822C2.34713 34.1235 2.42133 34.7172 2.56974 34.966C2.64953 35.0828 2.77414 35.1656 2.94396 35.2176C3.10567 35.2618 3.37616 35.3031 3.76075 35.3394C3.86966 35.3498 3.92259 35.4147 3.92259 35.5365C3.92259 35.6739 3.86953 35.7413 3.76075 35.7413C2.98904 35.6997 2.41069 35.6817 2.02624 35.6817C1.53034 35.6817 0.933505 35.6997 0.241323 35.7413C0.145707 35.7413 0.100758 35.6739 0.100758 35.5365C0.100758 35.4146 0.14584 35.3498 0.241323 35.3394C0.819405 35.2876 1.17753 35.158 1.31278 34.9506C1.42688 34.7485 1.50374 34.5125 1.54616 34.2454C1.58606 33.9707 1.61505 33.5299 1.63114 32.9232L1.77171 26.716V26.5732C1.77171 26.0417 1.70535 25.6839 1.57542 25.5024C1.4322 25.3183 1.01835 25.194 0.334146 25.1289C0.241323 25.1185 0.193714 25.0589 0.193714 24.9475C0.193714 24.7792 0.241456 24.6961 0.334146 24.6961C1.15652 24.7378 1.72662 24.7583 2.04206 24.7583C2.56203 24.7583 3.02096 24.7532 3.42669 24.7428C3.6017 25.3546 3.81394 25.9432 4.06342 26.5057L6.24609 31.5566C6.37615 31.8445 6.54331 32.2256 6.74478 32.6949C6.95703 33.1977 7.10025 33.5375 7.17964 33.7217C7.62527 32.6767 7.9435 31.956 8.13447 31.5566L10.1873 26.7185C10.4553 26.1194 10.7073 25.461 10.9407 24.7428L10.9406 24.7427Z" fill="#2E355C"/>
<path id="Vector_4" fill-rule="evenodd" clip-rule="evenodd" d="M1.34392 41.4607H115.241C115.865 41.4607 116.376 41.9719 116.376 42.5967V47.142C116.376 47.7671 115.865 48.2785 115.241 48.2785H1.34392C0.719422 48.2785 0.208496 47.7671 0.208496 47.142V42.5967C0.208496 41.9719 0.719422 41.4607 1.34392 41.4607Z" fill="#EC4646"/>
<path id="Vector_5" d="M33.9918 43.1653L33.0022 46.5742H32.1742L31.4884 44.2679H31.4736L30.7878 46.5742H29.955L28.9702 43.1653H29.8716L30.4203 45.433H30.435L31.0523 43.1653H31.9245L32.5467 45.433H32.5615L33.12 43.1653H33.9921H33.9918ZM41.228 46.5742H40.2973L40.0277 45.9051H38.6854L38.4306 46.5742H37.5194L38.9745 43.1653H39.7877L41.228 46.5742ZM39.7975 45.2453L39.3664 44.0755L38.9255 45.2453H39.7977H39.7975ZM47.3571 46.5742H45.1721V43.1653H46.0148V45.8567H47.3573V46.5742H47.3571ZM53.5891 46.5742H51.404V43.1653H52.2467V45.8567H53.5892V46.5742H53.5891ZM60.2667 44.215C60.2667 44.4653 60.2005 44.674 60.0683 44.8409C59.9361 45.0079 59.7711 45.1241 59.5735 45.19C59.376 45.256 59.1482 45.2889 58.8901 45.2889H58.4737V46.5744H57.6359V43.1654H58.9098C59.3212 43.1654 59.6503 43.2481 59.8969 43.4135C60.1434 43.5787 60.2669 43.8459 60.2669 44.2151L60.2667 44.215ZM59.4289 44.2197C59.4289 43.9598 59.233 43.8298 58.841 43.8298H58.4734V44.6341H58.8262C59.228 44.6341 59.4289 44.4959 59.4289 44.2199V44.2197ZM67.4148 46.5742H66.4839L66.2144 45.9051H64.872L64.6173 46.5742H63.7061L65.1611 43.1653H65.9744L67.4148 46.5742ZM65.9842 45.2453L65.5531 44.0755L65.1121 45.2453H65.9844H65.9842ZM73.9896 44.215C73.9896 44.4653 73.9234 44.674 73.7912 44.8409C73.659 45.0079 73.494 45.1241 73.2964 45.19C73.0988 45.256 72.871 45.2889 72.613 45.2889H72.1966V46.5744H71.3588V43.1654H72.6325C73.0441 43.1654 73.3731 43.2481 73.6198 43.4135C73.8664 43.5787 73.9898 43.8459 73.9898 44.2151L73.9896 44.215ZM73.1518 44.2197C73.1518 43.9598 72.9558 43.8298 72.5638 43.8298H72.1963V44.6341H72.5491C72.9508 44.6341 73.1518 44.4959 73.1518 44.2199V44.2197ZM80.5693 46.5742H78.149V43.1653H80.481V43.8633H78.9574V44.5038H80.3977V45.1634H78.9574V45.8711H80.5693V46.5741V46.5742ZM87.6144 46.5742H86.6346L85.8851 45.2212H85.6009V46.5742H84.7777V43.1653H86.1006C86.277 43.1653 86.4403 43.183 86.5905 43.2183C86.7407 43.2535 86.8812 43.31 87.0118 43.3869C87.1423 43.4638 87.2444 43.5712 87.318 43.7095C87.3915 43.8474 87.4284 44.0096 87.4284 44.1957C87.4284 44.4204 87.3645 44.613 87.2373 44.7734C87.1099 44.934 86.9335 45.0478 86.7081 45.1153L87.6144 46.5742ZM86.6003 44.21C86.6003 43.9566 86.4142 43.8297 86.0417 43.8297H85.596V44.6242H85.9928C86.3977 44.6242 86.6003 44.4862 86.6003 44.21Z" fill="#1E1E1E"/>
</g>
</g>
</g>
</svg>
