<svg width="20" height="20" viewBox="0 0 20 20" fill="none" xmlns="http://www.w3.org/2000/svg">
<g id="Light/Icon">
<g id="vuesax/linear/bag">
<g id="bag">
<path id="Vector" d="M7.34186 1.66675L4.3252 4.69175" stroke="white" stroke-width="1.2" stroke-miterlimit="10" stroke-linecap="round" stroke-linejoin="round"/>
<path id="Vector_2" d="M12.6582 1.66675L15.6749 4.69175" stroke="white" stroke-width="1.2" stroke-miterlimit="10" stroke-linecap="round" stroke-linejoin="round"/>
<path id="Vector_3" d="M1.6665 6.54167C1.6665 5 2.4915 4.875 3.5165 4.875H16.4832C17.5082 4.875 18.3332 5 18.3332 6.54167C18.3332 8.33333 17.5082 8.20833 16.4832 8.20833H3.5165C2.4915 8.20833 1.6665 8.33333 1.6665 6.54167Z" stroke="white" stroke-width="1.2"/>
<path id="Vector_4" d="M8.1333 11.6667V14.6251" stroke="white" stroke-width="1.2" stroke-linecap="round"/>
<path id="Vector_5" d="M11.9668 11.6667V14.6251" stroke="white" stroke-width="1.2" stroke-linecap="round"/>
<path id="Vector_6" d="M2.9165 8.33325L4.0915 15.5333C4.35817 17.1499 4.99984 18.3333 7.38317 18.3333H12.4082C14.9998 18.3333 15.3832 17.1999 15.6832 15.6333L17.0832 8.33325" stroke="white" stroke-width="1.2" stroke-linecap="round"/>
</g>
</g>
</g>
</svg>
