<svg width="163" height="66" viewBox="0 0 163 66" fill="none" xmlns="http://www.w3.org/2000/svg">
<g id="MaxDekor 1">
<g id="&#208;&#161;&#208;&#187;&#208;&#190;&#208;&#185;_x0020_1">
<g id="_2105539644832">
<path id="Vector" d="M46.1816 17.1767C48.5998 14.9278 51.0298 12.6886 53.5304 10.5299C56.6816 7.80989 62.5103 2.35123 66.9622 2.28237C69.9316 2.23651 70.4743 3.59661 69.4457 5.94121C68.8574 7.28251 67.9185 9.05369 67.6695 9.56649C65.3659 14.3142 62.0681 20.9978 61.7279 21.7137C60.908 24.8466 70.4004 15.7001 70.4553 15.6478C74.2161 12.0553 82.517 3.97449 88.2671 2.45154L88.2673 2.4519L88.2756 2.44979C90.6843 1.86583 92.5412 2.67378 91.109 5.64185C88.7468 10.5055 86.5778 15.4557 84.3269 20.3693C83.2812 23.0559 87.1923 22.7149 88.6055 22.5389C94.0601 21.8592 107.962 17.8557 110.215 11.0524C112.36 4.57619 102.23 3.46749 97.2387 2.88635C93.7579 2.48106 95.9725 2.28254 99.5401 2.28254C107.273 2.28254 110.903 4.36327 112.313 6.88354C115.973 13.4228 101.998 24.8334 85.912 24.7707C78.1446 24.7407 80.6998 20.3981 82.6304 16.1929C84.346 12.456 86.1713 8.75943 87.8506 5.01205C82.4627 7.6885 77.0181 13.2176 73.094 17.0319C69.6949 20.3361 65.9307 24.7633 60.6841 24.7707C59.2913 24.7726 58.191 24.282 58.0055 22.7659C57.8705 21.6645 60.4538 15.9552 62.638 11.4909C63.638 9.44668 64.8047 7.0023 65.9057 4.90488C61.1473 6.99 55.9668 11.0884 51.0007 15.3602C50.0301 16.1952 43.0062 22.5421 39.9821 24.4603C39.7893 24.5826 39.333 24.7705 39.1536 24.7705C37.2538 24.7705 45.6485 17.6723 46.1816 17.1765V17.1767Z" fill="white"/>
<path id="Vector_2" d="M141.915 39.3409C142.127 39.3671 142.342 39.3877 142.558 39.4021C142.809 39.4189 143.064 39.4274 143.323 39.4274C144.032 39.4274 144.651 39.3478 145.178 39.1893C145.7 39.0321 146.134 38.7976 146.481 38.4856L146.482 38.4849C146.771 38.2278 146.988 37.9264 147.132 37.5808C147.277 37.2335 147.35 36.8388 147.35 36.3971C147.35 35.3977 147.057 34.6512 146.472 34.1577C145.879 33.6581 144.982 33.4083 143.78 33.4083C143.316 33.4083 142.945 33.4396 142.669 33.5021C142.412 33.5604 142.242 33.6425 142.159 33.7484L142.158 33.7503C142.084 33.8515 142.025 34.0866 141.982 34.4571C141.938 34.8469 141.915 35.3759 141.915 36.0445V39.3409ZM142.542 39.6656C142.287 39.6486 142.033 39.6231 141.777 39.5888C141.708 39.5855 141.653 39.5275 141.653 39.4569V36.0443C141.653 35.3676 141.677 34.8285 141.723 34.4271C141.771 34.0096 141.847 33.7314 141.95 33.591L141.955 33.5836C142.076 33.4296 142.295 33.3164 142.613 33.2446C142.91 33.1769 143.299 33.1432 143.78 33.1432C145.044 33.1432 145.997 33.4137 146.638 33.955C147.287 34.5019 147.611 35.3158 147.611 36.3969C147.611 36.8727 147.531 37.3013 147.372 37.6827C147.212 38.066 146.972 38.3995 146.653 38.683C146.277 39.0212 145.81 39.2742 145.252 39.4421C144.699 39.6089 144.056 39.6916 143.323 39.6916C143.063 39.6916 142.803 39.6832 142.541 39.6654L142.542 39.6656ZM141.915 40.298V43.4544C141.915 44.0017 141.919 44.443 141.927 44.7789C141.936 45.1234 141.948 45.3762 141.966 45.5385C141.979 45.6611 141.999 45.7686 142.026 45.8603C142.052 45.9475 142.086 46.0207 142.126 46.0792L142.13 46.0854C142.192 46.1873 142.341 46.2742 142.574 46.3464C142.829 46.4259 143.177 46.4824 143.617 46.5158H143.618C143.729 46.5256 143.816 46.5645 143.879 46.6333C143.941 46.7017 143.973 46.7934 143.973 46.9077C143.973 47.0277 143.946 47.1219 143.895 47.1908C143.834 47.2707 143.748 47.3106 143.638 47.3106C143.633 47.3106 143.627 47.31 143.622 47.3095C143.079 47.283 142.59 47.2638 142.155 47.2512C141.7 47.2378 141.293 47.2315 140.933 47.2315C140.54 47.2315 140.122 47.2377 139.68 47.251C139.253 47.2638 138.791 47.2832 138.294 47.3099L138.288 47.31V47.3106C138.181 47.3106 138.1 47.2688 138.044 47.1848C138.042 47.1816 138.04 47.1783 138.038 47.1749C137.997 47.1084 137.977 47.0196 137.977 46.9077C137.977 46.8002 138 46.7138 138.046 46.6472C138.098 46.571 138.174 46.5276 138.273 46.5165L138.284 46.5154C138.717 46.4752 139.059 46.4157 139.31 46.3368C139.539 46.2646 139.682 46.181 139.739 46.0868C139.813 45.9538 139.87 45.6722 139.91 45.2414C139.952 44.7996 139.973 44.2049 139.973 43.4579V35.9284C139.973 35.4715 139.969 35.1032 139.96 34.8239C139.952 34.5374 139.939 34.329 139.923 34.1997C139.91 34.1019 139.89 34.014 139.863 33.9357C139.837 33.8617 139.804 33.7966 139.763 33.7409L139.758 33.7337C139.718 33.6762 139.664 33.6253 139.596 33.5817C139.522 33.535 139.433 33.4968 139.33 33.468L139.33 33.4684C139.209 33.4354 139.048 33.4055 138.846 33.3784C138.643 33.351 138.393 33.3256 138.097 33.3013L138.092 33.301C137.997 33.2892 137.926 33.247 137.877 33.1741C137.835 33.1114 137.814 33.0302 137.814 32.9299C137.814 32.7989 137.832 32.6966 137.868 32.6223C137.919 32.5174 137.998 32.4656 138.108 32.4656C138.113 32.4656 138.118 32.4661 138.123 32.4665C138.67 32.493 139.162 32.5123 139.6 32.525C140.058 32.5383 140.47 32.5443 140.833 32.5443C140.941 32.5443 141.105 32.541 141.328 32.5352C141.556 32.5289 141.859 32.5194 142.232 32.5073V32.5071C142.527 32.4869 142.843 32.4716 143.182 32.4611C143.525 32.4505 143.877 32.4452 144.236 32.4452C145.154 32.4452 145.955 32.5429 146.641 32.7383C147.332 32.9354 147.906 33.2325 148.363 33.6293C148.747 33.9559 149.035 34.3406 149.227 34.7846C149.418 35.2262 149.513 35.7236 149.513 36.2773C149.513 36.7448 149.434 37.1812 149.273 37.5859C149.114 37.9884 148.875 38.3577 148.556 38.6925L148.554 38.6953C148.262 38.9982 147.915 39.2608 147.515 39.4839C147.157 39.6833 146.755 39.8513 146.309 39.9873C146.713 40.7803 147.137 41.5659 147.58 42.344C148.051 43.1705 148.544 43.9859 149.057 44.7898L149.06 44.7942C149.309 45.1838 149.537 45.5009 149.744 45.7451C149.946 45.9835 150.126 46.1499 150.282 46.243L150.287 46.2465C150.389 46.3078 150.536 46.3609 150.728 46.4058C150.931 46.4529 151.179 46.4898 151.473 46.5167H151.476C151.575 46.5277 151.652 46.571 151.705 46.647C151.752 46.7133 151.775 46.8002 151.775 46.9079C151.775 47.023 151.755 47.1131 151.715 47.1793C151.662 47.2673 151.584 47.3107 151.482 47.3107C151.477 47.3107 151.471 47.3102 151.466 47.3097C150.998 47.2833 150.612 47.2644 150.306 47.2519C149.973 47.2384 149.726 47.2317 149.566 47.2317C149.274 47.2317 149.031 47.2333 148.832 47.2355C148.587 47.2387 148.363 47.2431 148.161 47.2484C148.106 47.2498 148.058 47.2161 148.038 47.1674H148.038C147.967 46.9942 147.867 46.777 147.737 46.5179C147.61 46.2641 147.456 45.971 147.275 45.6406C146.826 44.8697 146.348 44.0312 145.839 43.1257C145.342 42.2405 144.824 41.3029 144.284 40.3138C144.136 40.324 143.989 40.3323 143.841 40.3384C143.664 40.3456 143.498 40.3492 143.344 40.3492C143.069 40.3492 142.798 40.3439 142.529 40.3333C142.314 40.3247 142.109 40.3131 141.914 40.2982L141.915 40.298ZM141.654 43.4544V40.155L141.654 40.1441C141.66 40.0716 141.723 40.0171 141.795 40.0231C142.039 40.0442 142.287 40.0595 142.539 40.0697C142.79 40.0793 143.058 40.0846 143.344 40.0846C143.508 40.0846 143.671 40.0813 143.832 40.0747C143.994 40.0679 144.167 40.0579 144.348 40.0437C144.397 40.0401 144.447 40.0654 144.472 40.1122C145.034 41.1422 145.566 42.1033 146.066 42.9952C146.568 43.8891 147.046 44.7262 147.5 45.5058H147.5L147.501 45.5088C147.687 45.8473 147.843 46.1439 147.97 46.3988C148.083 46.6251 148.175 46.8201 148.244 46.9824C148.421 46.978 148.616 46.9741 148.829 46.9719C149.082 46.9687 149.33 46.9668 149.566 46.9668C149.717 46.9668 149.967 46.9734 150.316 46.9878C150.632 47.0008 151.02 47.0198 151.481 47.0456H151.483C151.488 47.0456 151.492 47.0442 151.493 47.0418C151.507 47.0181 151.515 46.9734 151.515 46.9076C151.515 46.8554 151.507 46.8194 151.493 46.7995C151.485 46.7881 151.47 46.7811 151.448 46.7786L151.448 46.7784C151.141 46.7503 150.882 46.7119 150.67 46.6628C150.452 46.6117 150.28 46.5483 150.154 46.4719L150.151 46.4703C149.969 46.3616 149.767 46.1769 149.547 45.9166C149.333 45.6641 149.098 45.3379 148.842 44.9382L148.838 44.9321C148.324 44.1261 147.829 43.3074 147.355 42.4761C146.887 41.6551 146.438 40.8203 146.009 39.9711C146.003 39.9616 145.999 39.9514 145.996 39.9402C145.977 39.8699 146.018 39.7974 146.087 39.7777C146.573 39.6403 147.008 39.4651 147.39 39.2522C147.768 39.0416 148.095 38.7941 148.369 38.51L148.369 38.5095C148.664 38.1992 148.885 37.8584 149.032 37.4877C149.179 37.1155 149.252 36.7117 149.252 36.2773C149.252 35.7596 149.164 35.2968 148.988 34.8898C148.813 34.4849 148.549 34.1323 148.196 33.832L148.195 33.831C147.767 33.4589 147.226 33.1792 146.571 32.9923C145.909 32.804 145.131 32.7096 144.237 32.7096C143.86 32.7096 143.511 32.7147 143.189 32.7246C142.863 32.7348 142.55 32.75 142.25 32.7709V32.7704L142.245 32.7709C141.877 32.7827 141.574 32.7922 141.334 32.7987C141.087 32.8054 140.919 32.8091 140.833 32.8091C140.488 32.8091 140.075 32.8024 139.593 32.7885C139.147 32.7757 138.653 32.7564 138.111 32.7302H138.108C138.107 32.7302 138.105 32.733 138.102 32.739C138.084 32.7748 138.076 32.8386 138.076 32.9298C138.076 32.9765 138.082 33.0086 138.093 33.0252C138.097 33.0317 138.107 33.0359 138.122 33.038C138.413 33.0619 138.665 33.0877 138.88 33.1165C139.096 33.1458 139.269 33.1778 139.397 33.213L139.397 33.2133L139.398 33.2137C139.528 33.2493 139.64 33.298 139.735 33.3584C139.833 33.421 139.912 33.4963 139.972 33.5826L139.973 33.5843C140.029 33.6616 140.074 33.7493 140.109 33.8478C140.142 33.9424 140.166 34.0478 140.181 34.1655C140.199 34.3034 140.212 34.5202 140.221 34.8164C140.23 35.1184 140.234 35.489 140.234 35.9282V43.4578C140.234 44.2069 140.212 44.8098 140.17 45.2662C140.126 45.7346 140.058 46.0513 139.967 46.2161L139.962 46.2233C139.871 46.3751 139.679 46.4965 139.387 46.5885C139.12 46.6729 138.76 46.7361 138.308 46.7779L138.302 46.7786C138.281 46.7811 138.266 46.7874 138.259 46.7978C138.245 46.8178 138.239 46.8543 138.239 46.9076C138.239 46.968 138.245 47.01 138.258 47.0333L138.261 47.0369C138.265 47.0428 138.274 47.0456 138.288 47.0456C138.777 47.0195 139.239 47 139.673 46.9871C140.139 46.9733 140.558 46.9668 140.934 46.9668C141.275 46.9668 141.684 46.9733 142.162 46.9875C142.605 47.0003 143.096 47.0196 143.635 47.0456H143.638C143.663 47.0456 143.68 47.0407 143.688 47.0304C143.704 47.0091 143.712 46.9685 143.712 46.9076C143.712 46.8614 143.704 46.8296 143.687 46.8116C143.671 46.7941 143.64 46.783 143.596 46.7793C143.139 46.7442 142.773 46.6841 142.498 46.5989C142.204 46.5077 142.008 46.3837 141.911 46.2265C141.855 46.1456 141.811 46.049 141.777 45.9366C141.745 45.8271 141.721 45.7038 141.707 45.5663C141.689 45.3999 141.676 45.1397 141.667 44.785C141.658 44.4219 141.654 43.9783 141.654 43.4543L141.654 43.4544ZM141.784 39.4571C142.292 39.5254 142.805 39.5598 143.323 39.5598C144.766 39.5598 145.844 39.2345 146.567 38.5843C147.176 38.0437 147.48 37.3145 147.48 36.3971C147.48 34.3166 146.246 33.2758 143.78 33.2758C142.836 33.2758 142.261 33.4058 142.057 33.666C141.878 33.9021 141.784 34.6927 141.784 36.0445V39.4571H141.784ZM141.784 40.155V43.4544C141.784 44.5257 141.801 45.224 141.836 45.5524C141.864 45.8124 141.923 46.0144 142.019 46.1546C142.179 46.4148 142.711 46.5792 143.607 46.6476C143.762 46.6613 143.842 46.747 143.842 46.9077C143.842 47.089 143.773 47.1781 143.638 47.1781C142.517 47.1231 141.615 47.0994 140.933 47.0994C140.183 47.0994 139.301 47.1231 138.288 47.1781C138.167 47.1781 138.108 47.089 138.108 46.9077C138.108 46.7468 138.167 46.6613 138.288 46.6476C139.18 46.5653 139.702 46.4011 139.851 46.1546C140.017 45.8603 140.103 44.9605 140.103 43.4579V35.9284C140.103 35.0314 140.086 34.4495 140.051 34.1827C140.024 33.9671 139.965 33.796 139.868 33.6625C139.768 33.5155 139.598 33.4058 139.363 33.3408C139.114 33.2725 138.696 33.2175 138.108 33.1697C137.997 33.156 137.945 33.0773 137.945 32.9303C137.945 32.7081 137.997 32.5984 138.108 32.5984C139.235 32.6534 140.145 32.6771 140.833 32.6771C141.027 32.6771 141.497 32.6634 142.241 32.6394C142.836 32.5984 143.5 32.5777 144.236 32.5777C146.049 32.5777 147.394 32.9614 148.28 33.7314C149.016 34.3578 149.383 35.2065 149.383 36.2777C149.383 37.1775 149.079 37.9547 148.463 38.6013C147.896 39.1902 147.114 39.6248 146.121 39.9054C146.979 41.603 147.923 43.2559 148.947 44.8611C149.456 45.6553 149.878 46.1546 150.217 46.357C150.445 46.4974 150.86 46.5929 151.462 46.6476C151.583 46.6613 151.645 46.747 151.645 46.9077C151.645 47.089 151.59 47.1781 151.482 47.1781C150.503 47.1231 149.864 47.0994 149.566 47.0994C149.013 47.0994 148.543 47.1061 148.158 47.1164C148.017 46.7709 147.761 46.2542 147.387 45.5729C146.485 44.0226 145.475 42.2222 144.357 40.1758C144.001 40.203 143.662 40.2167 143.344 40.2167C142.784 40.2167 142.265 40.1963 141.784 40.155ZM126.008 33.1003C125.174 33.1003 124.424 33.2739 123.757 33.6221C123.09 33.9703 122.504 34.4935 122.001 35.1913L122.001 35.1914L122.001 35.1916C121.554 35.8074 121.218 36.5022 120.994 37.2762C120.769 38.0522 120.657 38.9091 120.657 39.8469C120.657 42.0481 121.227 43.7775 122.366 45.0457C122.85 45.583 123.395 45.9856 124 46.2537C124.606 46.5216 125.275 46.6555 126.008 46.6555C126.846 46.6555 127.6 46.4824 128.268 46.1363C128.937 45.7901 129.523 45.2695 130.026 44.5744L130.029 44.57C130.475 43.9572 130.81 43.264 131.033 42.4901C131.258 41.7126 131.37 40.8521 131.37 39.9087C131.37 38.8123 131.225 37.8303 130.934 36.9633C130.644 36.0997 130.21 35.3488 129.63 34.7104L129.625 34.7032C129.135 34.1699 128.591 33.7691 127.991 33.5023C127.388 33.2346 126.727 33.1005 126.008 33.1005V33.1003ZM123.638 33.3874C124.343 33.0194 125.133 32.8354 126.008 32.8354C126.763 32.8354 127.458 32.9774 128.095 33.2602C128.728 33.5416 129.301 33.9631 129.815 34.5237L129.822 34.5314C130.426 35.1972 130.879 35.9795 131.181 36.8786C131.481 37.7741 131.631 38.784 131.631 39.9087C131.631 40.875 131.515 41.7602 131.283 42.5636C131.051 43.3675 130.703 44.0883 130.239 44.7262L130.236 44.7306C129.709 45.4587 129.092 46.0056 128.387 46.371C127.68 46.7373 126.887 46.9202 126.009 46.9202C125.24 46.9202 124.537 46.7788 123.896 46.4954C123.256 46.2126 122.682 45.7883 122.173 45.2239C120.988 43.9045 120.396 42.1161 120.396 39.8471C120.396 38.8856 120.512 38.0037 120.744 37.2019C120.976 36.3982 121.325 35.6761 121.791 35.0356L121.791 35.0358C122.319 34.3037 122.935 33.7542 123.638 33.3874ZM126.008 32.1376C127.194 32.1376 128.267 32.3404 129.226 32.7462C130.186 33.153 131.031 33.7632 131.759 34.5769L131.766 34.5845C132.399 35.2944 132.874 36.0877 133.191 36.964C133.509 37.8422 133.668 38.8039 133.668 39.8471C133.668 41.0499 133.464 42.1398 133.055 43.1157C132.645 44.0934 132.031 44.9547 131.215 45.6985C130.505 46.3445 129.716 46.8299 128.848 47.1537C127.98 47.4771 127.033 47.6389 126.008 47.6389C124.829 47.6389 123.761 47.4328 122.803 47.0193C121.845 46.6057 120.999 45.9854 120.267 45.1576C119.631 44.4395 119.154 43.6407 118.836 42.7614C118.518 41.8826 118.359 40.9247 118.359 39.8882C118.359 38.695 118.563 37.6126 118.971 36.6418C119.379 35.6695 119.991 34.8111 120.806 34.0674L120.814 34.0608C121.52 33.4215 122.305 32.941 123.17 32.62C124.038 32.2985 124.984 32.1375 126.009 32.1375L126.008 32.1376ZM129.126 32.9902C128.2 32.5981 127.16 32.402 126.008 32.402C125.013 32.402 124.097 32.5578 123.259 32.8683C122.425 33.1775 121.668 33.6411 120.987 34.2579L120.98 34.2639C120.194 34.9819 119.604 35.8093 119.211 36.7453C118.817 37.6822 118.62 38.7301 118.62 39.8885C118.62 40.8943 118.774 41.822 119.081 42.6707C119.388 43.5191 119.848 44.29 120.461 44.9823C121.167 45.7801 121.982 46.3781 122.905 46.7769C123.829 47.1755 124.864 47.3747 126.009 47.3747C127.003 47.3747 127.92 47.2183 128.758 46.906C129.595 46.594 130.356 46.1258 131.04 45.5023C131.829 44.7843 132.421 43.9542 132.815 43.0124C133.21 42.0706 133.407 41.0152 133.407 39.8471C133.407 38.8341 133.254 37.9034 132.947 37.0548C132.641 36.2088 132.183 35.4442 131.573 34.7607L131.567 34.7543C130.864 33.9696 130.05 33.3818 129.126 32.9902ZM126.008 32.9679C124.3 32.9679 122.927 33.6831 121.896 35.114C120.983 36.3701 120.526 37.9476 120.526 39.8471C120.526 42.082 121.107 43.8409 122.27 45.135C123.262 46.237 124.507 46.7879 126.008 46.7879C127.724 46.7879 129.101 46.0759 130.131 44.6524C131.044 43.3998 131.501 41.8184 131.501 39.9086C131.501 37.6876 130.909 35.9249 129.727 34.6207C128.72 33.5188 127.482 32.9679 126.008 32.9679ZM126.008 32.2696C128.347 32.2696 130.231 33.0671 131.663 34.6656C132.912 36.0621 133.538 37.7901 133.538 39.8471C133.538 42.2189 132.732 44.1389 131.127 45.6003C129.733 46.8701 128.028 47.5068 126.008 47.5068C123.684 47.5068 121.803 46.6952 120.364 45.0698C119.115 43.6598 118.489 41.9311 118.489 39.8882C118.489 37.5367 119.292 35.6269 120.893 34.1657C122.284 32.9029 123.989 32.2696 126.008 32.2696ZM113.137 32.8033C113.188 33.4405 113.239 34.0276 113.289 34.5651C113.341 35.1143 113.393 35.6396 113.448 36.1401C113.448 36.145 113.449 36.1496 113.449 36.1543H113.449V36.216C113.449 36.321 113.398 36.3987 113.296 36.4477C113.226 36.4816 113.13 36.4987 113.007 36.4987C112.935 36.4987 112.872 36.4786 112.815 36.4393C112.764 36.4038 112.722 36.353 112.688 36.288C112.685 36.2833 112.683 36.2787 112.682 36.2738C112.449 35.7445 112.192 35.2823 111.91 34.888C111.631 34.4987 111.329 34.1776 111.003 33.9262C110.601 33.6548 110.169 33.451 109.71 33.3152C109.248 33.1787 108.756 33.1102 108.234 33.1102C107.423 33.1102 106.692 33.2822 106.042 33.6261C105.39 33.9708 104.815 34.4887 104.317 35.1805L104.317 35.1807C103.876 35.7972 103.545 36.4918 103.325 37.265V37.2653C103.104 38.0413 102.993 38.8982 102.993 39.8367C102.993 40.8172 103.139 41.7057 103.429 42.5014C103.718 43.2949 104.153 43.9975 104.731 44.6086L104.732 44.609C105.234 45.1445 105.793 45.5457 106.407 45.8127C107.023 46.0803 107.696 46.2138 108.424 46.2138C109.034 46.2138 109.595 46.1492 110.108 46.0204C110.619 45.8918 111.083 45.6994 111.501 45.4431L111.5 45.4428C111.853 45.2247 112.187 44.9509 112.502 44.6211C112.82 44.2903 113.12 43.9028 113.402 43.4579L113.407 43.4513C113.44 43.4014 113.483 43.3627 113.536 43.3366C113.588 43.3109 113.648 43.2977 113.716 43.2977C113.777 43.2977 113.838 43.3092 113.898 43.3313C113.955 43.352 114.01 43.3824 114.065 43.4218L114.069 43.4249C114.118 43.4592 114.156 43.4955 114.185 43.5347C114.222 43.5865 114.241 43.6414 114.241 43.7006C114.241 43.7457 114.233 43.7902 114.218 43.835C114.204 43.8752 114.184 43.9144 114.158 43.953C113.489 45.1743 112.656 46.0919 111.658 46.7054C110.658 47.3209 109.496 47.6285 108.172 47.6285C106.999 47.6285 105.943 47.4256 105.003 47.0195C104.061 46.6122 103.238 46.0018 102.533 45.1871L102.531 45.1847C101.912 44.4742 101.448 43.6761 101.138 42.7914C100.829 41.9064 100.674 40.9347 100.674 39.8778C100.674 38.6748 100.874 37.5884 101.272 36.6197C101.672 35.6496 102.271 34.7986 103.069 34.0683L103.069 34.0682C103.761 33.4287 104.536 32.948 105.395 32.6278C106.252 32.3077 107.191 32.1475 108.213 32.1475C108.671 32.1475 109.105 32.1736 109.516 32.2256C109.927 32.2776 110.315 32.3563 110.68 32.4607L110.688 32.4635C111.002 32.5561 111.294 32.6262 111.562 32.6729C111.829 32.7196 112.071 32.743 112.287 32.743C112.489 32.743 112.722 32.7228 112.988 32.6829C113.059 32.6724 113.126 32.7225 113.136 32.7947L113.137 32.8033ZM113.03 34.5901C112.981 34.0594 112.933 33.517 112.888 32.9638C112.664 32.9932 112.465 33.0079 112.287 33.0079C112.057 33.0079 111.801 32.983 111.518 32.9338C111.243 32.8853 110.942 32.8129 110.615 32.7167L110.609 32.7153C110.258 32.6144 109.883 32.5391 109.484 32.4883C109.085 32.4375 108.661 32.4124 108.213 32.4124C107.222 32.4124 106.312 32.567 105.485 32.8758C104.658 33.1845 103.911 33.6471 103.244 34.2637L103.244 34.2633L103.244 34.2637C102.475 34.9673 101.898 35.7866 101.513 36.7212C101.128 37.6571 100.935 38.7096 100.935 39.8782C100.935 40.9057 101.085 41.8477 101.384 42.7039C101.683 43.5576 102.13 44.327 102.726 45.0113L102.729 45.0141C103.407 45.798 104.199 46.3853 105.105 46.7769C106.011 47.1688 107.034 47.3643 108.172 47.3643C109.448 47.3643 110.566 47.0699 111.524 46.4807C112.481 45.8914 113.284 45.0057 113.931 43.8239C113.934 43.8186 113.937 43.8133 113.94 43.8081C113.955 43.7866 113.965 43.7668 113.972 43.7485C113.977 43.7334 113.979 43.7176 113.979 43.7011C113.979 43.6988 113.978 43.6953 113.974 43.6904C113.964 43.6761 113.946 43.6602 113.921 43.6426L113.914 43.6377C113.878 43.6118 113.843 43.5925 113.809 43.5802C113.779 43.569 113.748 43.563 113.716 43.563C113.688 43.563 113.666 43.567 113.65 43.575C113.639 43.5804 113.63 43.5881 113.623 43.5985L113.621 43.6011C113.33 44.0604 113.019 44.4616 112.689 44.8058C112.358 45.1511 112.007 45.4387 111.636 45.6685V45.6683L111.635 45.6685C111.195 45.9392 110.706 46.1421 110.17 46.2769C109.635 46.4116 109.053 46.4789 108.424 46.4789C107.66 46.4789 106.954 46.338 106.305 46.0559C105.657 45.7744 105.069 45.353 104.542 44.7912C103.939 44.1535 103.486 43.4202 103.184 42.5927C102.882 41.7669 102.732 40.8481 102.732 39.8369C102.732 38.8757 102.846 37.9938 103.074 37.1921C103.304 36.3878 103.647 35.6658 104.105 35.0258L104.106 35.0259L104.106 35.0258C104.628 34.3006 105.233 33.7561 105.921 33.3925C106.611 33.028 107.381 32.8458 108.234 32.8458C108.778 32.8458 109.294 32.918 109.782 33.0622C110.267 33.2057 110.723 33.4204 111.147 33.7068C111.151 33.7092 111.155 33.7121 111.159 33.715C111.506 33.9826 111.827 34.3224 112.121 34.7331C112.412 35.1394 112.677 35.6173 112.918 36.1663C112.932 36.1926 112.947 36.2112 112.963 36.2223C112.974 36.23 112.989 36.2341 113.007 36.2341C113.09 36.2341 113.149 36.2256 113.183 36.209C113.185 36.2084 113.186 36.2139 113.187 36.2162L113.187 36.2172V36.1589C113.135 35.6728 113.082 35.1501 113.03 34.5901H113.03ZM113.187 36.2162C113.187 36.2172 113.187 36.2174 113.187 36.2172L113.187 36.2162ZM113.007 32.8138C113.107 34.0527 113.211 35.1649 113.318 36.1543V36.216C113.318 36.3151 113.214 36.3664 113.007 36.3664C112.917 36.3664 112.851 36.3184 112.803 36.226C112.329 35.1445 111.755 34.3401 111.08 33.8199C110.25 33.2588 109.299 32.9781 108.234 32.9781C106.57 32.9781 105.232 33.6864 104.212 35.1032C103.313 36.3595 102.863 37.9373 102.863 39.8369C102.863 41.8285 103.454 43.4508 104.637 44.7003C105.668 45.7987 106.934 46.3464 108.425 46.3464C109.663 46.3464 110.71 46.0829 111.568 45.5555C112.291 45.1072 112.938 44.433 113.512 43.5295C113.554 43.4645 113.619 43.4304 113.716 43.4304C113.81 43.4304 113.899 43.4645 113.989 43.5295C114.069 43.5844 114.11 43.6391 114.11 43.7006C114.11 43.7622 114.09 43.8204 114.048 43.8819C112.731 46.2913 110.773 47.4961 108.172 47.4961C105.862 47.4961 104.015 46.6987 102.631 45.1004C101.414 43.7039 100.805 41.9617 100.805 39.8775C100.805 37.5056 101.59 35.5995 103.157 34.1653C104.516 32.9092 106.201 32.2796 108.214 32.2796C109.12 32.2796 109.929 32.3823 110.645 32.5875C111.292 32.7792 111.842 32.8751 112.288 32.8751C112.495 32.8751 112.734 32.8546 113.007 32.8135L113.007 32.8138ZM95.2675 47.3095C94.2986 47.2735 93.3892 47.2463 92.5385 47.228C91.698 47.2099 90.8991 47.2009 90.1413 47.2009C89.2964 47.2009 88.4371 47.2099 87.5633 47.228C86.6763 47.2463 85.7567 47.2737 84.8057 47.3097L84.8012 47.3099V47.3104C84.6987 47.3104 84.6209 47.267 84.5682 47.179C84.5283 47.1128 84.508 47.0225 84.508 46.9076C84.508 46.8058 84.5286 46.7226 84.569 46.6577C84.6167 46.5815 84.6864 46.5351 84.7771 46.5176C84.7825 46.5167 84.7877 46.5161 84.7929 46.5156C85.0617 46.4887 85.2883 46.4601 85.4732 46.429C85.6506 46.3988 85.7862 46.3674 85.8804 46.3333C85.9502 46.3027 86.0135 46.2658 86.069 46.2222C86.1221 46.1806 86.1681 46.133 86.2059 46.0792L86.2053 46.0789C86.2773 45.9744 86.3331 45.7087 86.3727 45.2824C86.4139 44.8402 86.4344 44.2316 86.4344 43.4574V36.2562C86.4344 35.7171 86.4302 35.2852 86.4226 34.9588C86.4145 34.6163 86.4027 34.3693 86.3872 34.2187H86.3871C86.3741 34.1112 86.3536 34.0165 86.3262 33.9327C86.2993 33.851 86.2648 33.7779 86.2235 33.7129L86.2232 33.7126C86.1547 33.6154 86.0007 33.5334 85.7605 33.4645C85.4956 33.3888 85.1359 33.3347 84.681 33.301L84.6708 33.2999C84.5761 33.2881 84.5023 33.2481 84.4497 33.1796C84.401 33.116 84.3762 33.0327 84.3762 32.9296C84.3762 32.7964 84.3973 32.6922 84.439 32.6169L84.4393 32.6163L84.439 32.6162C84.4948 32.5153 84.5789 32.4653 84.6902 32.4653C84.6956 32.4653 84.701 32.4658 84.7064 32.4661C85.4059 32.499 86.187 32.5236 87.0495 32.5403C87.8893 32.5564 88.8285 32.5647 89.8678 32.5647C90.8288 32.5647 91.7167 32.5564 92.5328 32.5403C93.3754 32.5236 94.1639 32.4988 94.8979 32.466C94.9673 32.4628 95.0263 32.5152 95.0332 32.5842C95.1204 33.4359 95.1939 34.1375 95.2541 34.6902C95.3132 35.2304 95.358 35.6106 95.389 35.8304C95.3899 35.8367 95.3902 35.843 95.3902 35.8492H95.3906V35.9075C95.3906 36.0198 95.3396 36.1043 95.2369 36.1596C95.1615 36.2005 95.0575 36.2211 94.9243 36.2211C94.8599 36.2211 94.8024 36.2021 94.7526 36.1656C94.7067 36.1317 94.6699 36.0839 94.643 36.0226C94.6413 36.0189 94.6399 36.015 94.6385 36.0111H94.6383C94.4899 35.5721 94.3082 35.1877 94.093 34.8585C93.8795 34.5316 93.6331 34.2588 93.354 34.04L93.3504 34.0372C93.1147 33.8517 92.7471 33.711 92.248 33.616C91.7354 33.5179 91.0869 33.4691 90.3037 33.4691C89.8218 33.4691 89.4355 33.5086 89.1447 33.5871C88.8733 33.6604 88.6908 33.7653 88.5984 33.9013L88.596 33.9048C88.5344 34.0002 88.4862 34.1788 88.4519 34.4409C88.4155 34.7183 88.3971 35.0851 88.3971 35.5409V39.0426C88.5013 39.0467 88.6286 39.05 88.7791 39.0525C88.9784 39.0553 89.2503 39.057 89.5947 39.057C90.3325 39.057 90.9254 39.0231 91.3744 38.9559C91.8069 38.8907 92.0982 38.797 92.2494 38.6751L92.256 38.6702C92.4171 38.5416 92.5444 38.3779 92.6394 38.179C92.7374 37.9733 92.8009 37.7296 92.8302 37.4473L92.8305 37.4459H92.8302C92.8413 37.3496 92.8789 37.275 92.9436 37.2221C92.9467 37.2193 92.9498 37.217 92.9531 37.2147C93.0124 37.1699 93.0886 37.1469 93.1813 37.1469C93.309 37.1469 93.4088 37.1682 93.4813 37.2101C93.5784 37.266 93.6265 37.35 93.6265 37.4608C93.6265 37.4659 93.6261 37.4709 93.6256 37.4759C93.6119 37.9397 93.6017 38.3368 93.5949 38.6674C93.5883 38.987 93.585 39.2564 93.585 39.4766C93.585 40.0574 93.5987 40.8261 93.626 41.7764V41.7799H93.6265C93.6265 41.8911 93.5784 41.9747 93.4813 42.0306C93.4088 42.0726 93.309 42.0938 93.1813 42.0938C93.0802 42.0938 92.9992 42.065 92.9375 42.0081C92.9344 42.0051 92.9314 42.0025 92.9287 41.9993C92.8727 41.9433 92.8401 41.8677 92.8302 41.773L92.83 41.7702H92.8298C92.7998 41.408 92.7325 41.1063 92.6275 40.8669C92.5262 40.6362 92.3897 40.4623 92.2168 40.3465C92.2132 40.3441 92.2097 40.3416 92.2064 40.3388C92.041 40.2239 91.7469 40.1361 91.3246 40.0747C90.8824 40.0106 90.3056 39.9788 89.5947 39.9788C89.3699 39.9788 89.1521 39.982 88.9419 39.9883C88.7651 39.9938 88.5833 40.0018 88.3972 40.012V43.4606C88.3972 44.1245 88.4219 44.6578 88.4701 45.06C88.5169 45.4487 88.5831 45.7066 88.6681 45.8331L88.669 45.8343C88.7335 45.9255 88.8141 46.0028 88.9107 46.0662C89.0104 46.1318 89.1284 46.1834 89.2643 46.221C89.4077 46.2556 89.5917 46.2816 89.8177 46.2994C90.0448 46.3173 90.315 46.3266 90.6289 46.3266C91.1299 46.3266 91.575 46.3088 91.9652 46.2737C92.3574 46.2388 92.6923 46.1868 92.9706 46.1184L92.9717 46.1182V46.1177C93.2033 46.0631 93.4225 45.99 93.6289 45.8992C93.8356 45.8082 94.0309 45.6984 94.214 45.5698L94.215 45.5691C94.4797 45.3755 94.7367 45.1128 94.9864 44.7817C95.2394 44.4454 95.4837 44.0405 95.7192 43.5662C95.7471 43.5043 95.7792 43.4555 95.817 43.42C95.8673 43.3726 95.9242 43.3489 95.9896 43.3489C96.1441 43.3489 96.2641 43.3734 96.3501 43.4233C96.4597 43.4866 96.5145 43.5822 96.5145 43.7102C96.5145 43.7232 96.5127 43.7357 96.5093 43.7475L96.49 43.843H96.4902C96.3655 44.3811 96.2124 44.9315 96.0313 45.4939C95.8489 46.061 95.6386 46.6391 95.4017 47.2271C95.3793 47.2828 95.3237 47.3148 95.2673 47.309L95.2675 47.3095ZM92.5437 46.9645C93.3764 46.9824 94.2596 47.0088 95.1941 47.043C95.4156 46.4886 95.6124 45.9448 95.7834 45.4129C95.9616 44.8588 96.1128 44.3153 96.2361 43.7838L96.2363 43.784L96.2528 43.7021C96.2505 43.6809 96.2398 43.6644 96.2205 43.6535C96.1758 43.6273 96.1004 43.6143 95.9944 43.6141C95.9823 43.6257 95.9694 43.6468 95.9559 43.677L95.9538 43.6811C95.7095 44.1738 95.4561 44.5937 95.1936 44.9424C94.9293 45.2933 94.6543 45.5735 94.368 45.783L94.3619 45.7876C94.1649 45.926 93.9551 46.0439 93.7331 46.1418C93.5108 46.2398 93.2765 46.3178 93.031 46.376L93.0308 46.3756C92.7367 46.4478 92.3892 46.5023 91.9877 46.5381C91.5899 46.5738 91.1373 46.5919 90.6289 46.5919C90.3107 46.5919 90.0341 46.5824 89.7982 46.5639C89.557 46.545 89.359 46.5165 89.2034 46.4793L89.1974 46.4775C89.0359 46.4329 88.893 46.3698 88.7689 46.2883C88.6444 46.2064 88.5405 46.1068 88.4571 45.9888L88.4527 45.9828C88.3435 45.8208 88.2627 45.5234 88.2108 45.0918C88.1611 44.6786 88.1359 44.1348 88.1359 43.4615V39.8885H88.1361C88.1361 39.8191 88.1895 39.7608 88.2589 39.7566C88.4826 39.7429 88.708 39.7327 88.9348 39.7259C89.167 39.7185 89.3871 39.715 89.5947 39.715C90.3161 39.715 90.905 39.7482 91.3614 39.814C91.8239 39.881 92.1552 39.9841 92.355 40.1239L92.3607 40.1273C92.5756 40.2717 92.7435 40.483 92.8652 40.7602C92.9831 41.0289 93.0577 41.359 93.0899 41.7497H93.0898C93.0929 41.7788 93.0995 41.7994 93.1094 41.8106L93.1128 41.8138C93.1246 41.8245 93.1473 41.8303 93.1813 41.8303C93.2637 41.8303 93.3208 41.8208 93.3527 41.8022C93.361 41.7976 93.3651 41.7902 93.3651 41.7809H93.3655C93.3377 40.8093 93.3237 40.0393 93.3237 39.4776C93.3237 39.2872 93.3273 39.0156 93.3346 38.6634C93.3414 38.3278 93.3518 37.9299 93.3653 37.4691L93.3651 37.4619C93.3651 37.4526 93.361 37.4454 93.3527 37.4406C93.3206 37.422 93.2635 37.4129 93.1813 37.4129C93.1479 37.4129 93.1244 37.4173 93.1107 37.4261L93.1078 37.4287C93.0983 37.4364 93.0922 37.4526 93.0894 37.477L93.0892 37.4768C93.0565 37.7894 92.9849 38.062 92.874 38.2948C92.7618 38.5302 92.6098 38.7245 92.4168 38.8784L92.4116 38.883C92.2237 39.0347 91.891 39.1463 91.412 39.2183C90.9493 39.2877 90.3438 39.3225 89.5945 39.3225C89.2922 39.3225 89.0193 39.3206 88.7758 39.317C88.5551 39.3137 88.3855 39.3086 88.2679 39.3021H88.2663C88.1942 39.3021 88.1358 39.2429 88.1358 39.1697V35.5419C88.1358 35.079 88.1552 34.7009 88.1937 34.4077C88.2332 34.1052 88.2955 33.8891 88.3792 33.7595L88.3839 33.7521C88.5129 33.5629 88.7444 33.4227 89.0781 33.3326C89.3916 33.2477 89.8003 33.2052 90.3034 33.2052C91.1007 33.2052 91.7651 33.2558 92.2957 33.3572C92.8354 33.4603 93.2401 33.6177 93.5092 33.8294L93.5129 33.8324C93.815 34.069 94.0806 34.3626 94.3099 34.7132C94.5365 35.0604 94.7278 35.4634 94.8832 35.9219C94.8901 35.9361 94.8974 35.9465 94.9052 35.9519C94.9095 35.9553 94.916 35.957 94.9239 35.957C95.0148 35.957 95.0781 35.947 95.1142 35.9275C95.1239 35.9223 95.1289 35.9158 95.1289 35.908V35.8574C95.0975 35.6341 95.053 35.2547 94.9945 34.7197C94.9392 34.2136 94.8698 33.5513 94.7862 32.7355C94.0902 32.7655 93.3403 32.7887 92.5364 32.8045C91.6864 32.8214 90.7964 32.83 89.8674 32.83C88.8613 32.83 87.9202 32.8214 87.045 32.8045C86.1741 32.7878 85.3905 32.763 84.6939 32.7305H84.6899C84.6798 32.7305 84.6719 32.7356 84.6661 32.746H84.666C84.6469 32.7811 84.6372 32.8424 84.6372 32.9301C84.6372 32.9735 84.6432 33.003 84.6554 33.019C84.663 33.0287 84.6783 33.0352 84.7012 33.0382C85.1725 33.0731 85.5486 33.1304 85.8306 33.2108C86.1306 33.2967 86.3323 33.4129 86.436 33.5615C86.4382 33.5645 86.4405 33.5676 86.4426 33.5708C86.4946 33.6528 86.5381 33.7458 86.5726 33.8505C86.6066 33.9534 86.6312 34.0655 86.6458 34.1873H86.6456L86.6458 34.1899C86.6617 34.345 86.6741 34.5992 86.6824 34.9534C86.6907 35.3074 86.6952 35.7425 86.6952 36.2567V43.4579C86.6952 44.2339 86.6741 44.8507 86.6314 45.3078C86.5874 45.7808 86.5168 46.0885 86.4193 46.2301L86.4188 46.2298L86.4183 46.2308C86.3644 46.3078 86.3004 46.3746 86.2279 46.4315C86.1535 46.49 86.0702 46.5385 85.9795 46.5773L85.973 46.5801C85.8628 46.6207 85.7109 46.6567 85.5157 46.6897C85.3282 46.7215 85.0967 46.7507 84.821 46.7783C84.8061 46.7819 84.7953 46.7885 84.7891 46.7988C84.7757 46.8202 84.7688 46.8564 84.7688 46.9079C84.7688 46.9738 84.7761 47.0184 84.7901 47.0421C84.7919 47.0446 84.7953 47.046 84.8009 47.046V47.0465C85.747 47.0105 86.6661 46.9831 87.5579 46.9648C88.4644 46.946 89.3259 46.9365 90.1409 46.9365C90.8703 46.9365 91.6709 46.946 92.5433 46.9648L92.5437 46.9645ZM95.2808 47.1779C93.3405 47.1059 91.6284 47.0685 90.1413 47.0685C88.4812 47.0685 86.6999 47.1059 84.8012 47.1779C84.6937 47.1779 84.6386 47.0889 84.6386 46.9076C84.6386 46.7533 84.6937 46.6681 84.8012 46.6474C85.3509 46.5927 85.7245 46.5311 85.9289 46.4559C86.0878 46.3872 86.2192 46.2881 86.3125 46.1546C86.4821 45.9083 86.565 45.0083 86.565 43.4579V36.2567C86.565 35.189 86.5476 34.5045 86.5168 34.2032C86.489 33.974 86.4268 33.7893 86.3335 33.6423C86.1639 33.3925 85.6176 33.2381 84.6906 33.1696C84.5694 33.1559 84.5073 33.0772 84.5073 32.9301C84.5073 32.7079 84.5695 32.5983 84.6906 32.5983C86.081 32.6633 87.8068 32.6975 89.8681 32.6975C91.7739 32.6975 93.4513 32.6633 94.9038 32.5983C95.0804 34.3231 95.1979 35.4082 95.2602 35.8495V35.9078C95.2602 36.0275 95.1494 36.089 94.9246 36.089C94.8521 36.089 94.7967 36.048 94.7621 35.9693C94.4578 35.0692 94.0149 34.3916 93.4338 33.9362C92.9292 33.5358 91.8846 33.3373 90.3039 33.3373C89.3182 33.3373 88.7129 33.5018 88.4914 33.8269C88.3426 34.0492 88.2667 34.6207 88.2667 35.5416V39.1693C88.5055 39.183 88.9482 39.19 89.5948 39.19C91.0822 39.19 91.9917 39.0527 92.3307 38.7791C92.6902 38.4951 92.8978 38.0571 92.9601 37.4615C92.9739 37.3417 93.0466 37.2802 93.1815 37.2802C93.3924 37.2802 93.4961 37.3419 93.4961 37.4615C93.4683 38.3958 93.4546 39.0665 93.4546 39.4773C93.4546 40.0487 93.4683 40.8187 93.4961 41.7806C93.4961 41.9004 93.3924 41.9619 93.1815 41.9619C93.0464 41.9619 92.9739 41.8935 92.9601 41.7602C92.8978 41.0071 92.6767 40.4974 92.289 40.2371C91.926 39.9769 91.0267 39.8467 89.5948 39.8467C89.1623 39.8467 88.7198 39.8604 88.2667 39.888V43.4609C88.2667 44.8024 88.3671 45.6207 88.5606 45.908C88.7096 46.12 88.9343 46.2676 89.2317 46.3496C89.5291 46.4216 89.9925 46.4591 90.6291 46.4591C91.6425 46.4591 92.431 46.387 93.0015 46.247C93.4789 46.134 93.9077 45.9459 94.288 45.6789C94.8414 45.275 95.3569 44.5905 95.8375 43.622C95.8791 43.5295 95.9275 43.4815 95.9897 43.4815C96.2526 43.4815 96.3841 43.5569 96.3841 43.7108L96.3633 43.8137C96.1142 44.8883 95.7513 46.0109 95.2808 47.1779ZM68.8382 36.2566V43.9606C68.8382 44.4792 68.8652 44.8989 68.9197 45.2188C68.971 45.5204 69.044 45.7274 69.1389 45.8391C69.2993 46.016 69.575 46.1511 69.9662 46.2437C70.3727 46.3399 70.8985 46.3886 71.5437 46.3886C72.6217 46.3886 73.572 46.2191 74.3951 45.8793C75.2149 45.5415 75.9097 45.034 76.4804 44.3574C76.9689 43.7823 77.3357 43.1185 77.5809 42.3654C77.8268 41.61 77.9499 40.7639 77.9499 39.8263C77.9499 38.7559 77.7862 37.8089 77.4585 36.9846C77.1319 36.1631 76.642 35.462 75.9886 34.8807C75.4346 34.3905 74.8004 34.0228 74.0863 33.7771C73.3706 33.5311 72.574 33.4078 71.6957 33.4078C70.9101 33.4078 70.2952 33.4515 69.8516 33.538C69.4349 33.6196 69.181 33.7324 69.0903 33.8767L69.0888 33.8795C69.0092 33.9998 68.9479 34.2533 68.9051 34.6402C68.8604 35.0423 68.8382 35.5807 68.8382 36.2564V36.2566ZM68.577 43.9606V36.2566C68.577 35.5737 68.5999 35.0258 68.6459 34.6115C68.6937 34.1818 68.7692 33.8895 68.8725 33.7328C69.0047 33.526 69.3147 33.3742 69.8025 33.2788C70.264 33.1885 70.8952 33.1432 71.6957 33.1432C72.6016 33.1432 73.4263 33.2715 74.1701 33.5272C74.9161 33.7836 75.5795 34.1688 76.1601 34.6825C76.8451 35.2919 77.3584 36.0264 77.7002 36.8864C78.0409 37.7432 78.2109 38.7233 78.2109 39.8263C78.2109 40.7915 78.0833 41.6655 77.8285 42.4482C77.5731 43.2338 77.1893 43.927 76.6781 44.5291C76.0798 45.2386 75.3515 45.77 74.493 46.1242C73.638 46.4768 72.6548 46.653 71.5436 46.653C70.8792 46.653 70.3337 46.6021 69.9069 46.501C69.4633 46.396 69.1434 46.2347 68.9469 46.0178L68.9471 46.0176L68.9448 46.0149C68.8162 45.866 68.7223 45.6153 68.6623 45.2629C68.6053 44.9266 68.5768 44.4922 68.5768 43.9602L68.577 43.9606ZM71.7581 32.4247C73.1931 32.4247 74.4571 32.6132 75.5499 32.9907C76.6485 33.3698 77.5733 33.9392 78.3245 34.6983C78.9588 35.3379 79.435 36.0791 79.7523 36.922C80.069 37.7632 80.2275 38.7048 80.2275 39.7476C80.2275 40.9723 80.0107 42.0654 79.5772 43.0261C79.1428 43.9889 78.4922 44.8165 77.6251 45.5088C76.8548 46.1232 75.9654 46.5841 74.9563 46.8918C73.9509 47.198 72.8273 47.3511 71.5855 47.3511C70.9288 47.3511 70.2655 47.3306 69.5923 47.2891C69.2509 47.2682 68.9218 47.2529 68.6044 47.2428C68.2926 47.2329 67.9793 47.2278 67.6635 47.2278C67.3012 47.2278 66.9178 47.2347 66.5126 47.2478C66.1019 47.2615 65.6569 47.2819 65.1769 47.3095L65.1697 47.3097V47.3102C65.0628 47.3102 64.982 47.2684 64.9262 47.1844C64.8813 47.1171 64.8591 47.0247 64.8591 46.9074C64.8591 46.7997 64.8818 46.7134 64.9277 46.6469C64.9803 46.5706 65.0561 46.5272 65.1554 46.5161L65.1648 46.5153C65.5893 46.4886 65.9287 46.4353 66.1817 46.3566C66.4153 46.2836 66.5689 46.192 66.6416 46.0815L66.6471 46.0736C66.7097 45.9763 66.7597 45.7172 66.7964 45.2966C66.8353 44.8509 66.8549 44.2376 66.8549 43.4574V36.2562C66.8549 35.5092 66.8379 34.9198 66.8042 34.4882C66.7718 34.0727 66.7267 33.8127 66.6693 33.7085C66.6164 33.6182 66.4628 33.5383 66.2082 33.4687C65.9273 33.3921 65.5378 33.3361 65.0399 33.3008L65.0309 33.2999C64.9352 33.2883 64.8617 33.2484 64.8097 33.1787C64.7616 33.1147 64.738 33.0318 64.738 32.9294C64.738 32.7961 64.7582 32.6921 64.7989 32.6165C64.8537 32.5152 64.9368 32.4651 65.0486 32.4651C65.054 32.4651 65.0594 32.4656 65.0647 32.4661C65.5987 32.4925 66.0717 32.5116 66.4846 32.5245C66.9185 32.5378 67.2983 32.5438 67.6219 32.5438C67.9031 32.5438 68.2021 32.5394 68.5179 32.5297C68.82 32.5204 69.1501 32.5064 69.5098 32.4862H69.5195C70.2295 32.466 70.7778 32.4509 71.1645 32.4401C71.5533 32.4294 71.7511 32.4242 71.7583 32.4242L71.7581 32.4247ZM75.4661 33.2407C74.4012 32.8732 73.1653 32.6894 71.7581 32.6894C71.7303 32.6894 71.5346 32.6945 71.1706 32.7045C70.8125 32.7142 70.2645 32.7297 69.5264 32.7502L69.524 32.7504C69.1703 32.7702 68.8371 32.7845 68.5248 32.794C68.1862 32.8043 67.8861 32.8092 67.6217 32.8092C67.3149 32.8092 66.9341 32.8026 66.4774 32.7887C66.0558 32.7757 65.5805 32.7565 65.0517 32.7304H65.0484C65.0393 32.7304 65.0323 32.7351 65.0273 32.7444C65.0084 32.7792 64.999 32.8412 64.999 32.9299C64.999 32.9746 65.0047 33.0048 65.0165 33.0202C65.0233 33.0294 65.0379 33.0353 65.0601 33.038C65.5741 33.0747 65.9791 33.1334 66.2752 33.214C66.5984 33.302 66.8044 33.4222 66.8932 33.5748L66.8942 33.577C66.9716 33.7142 67.0283 34.0114 67.0638 34.468C67.0982 34.9079 67.1155 35.5045 67.1155 36.2566V43.4578C67.1155 44.2453 67.0956 44.8662 67.056 45.3196C67.0156 45.783 66.9509 46.0836 66.8625 46.2212L66.8585 46.2275C66.7513 46.3907 66.5509 46.5176 66.258 46.6089C65.985 46.6941 65.6261 46.751 65.1818 46.7788C65.1613 46.7816 65.1475 46.7879 65.1405 46.7978C65.1268 46.8178 65.1201 46.8543 65.1201 46.9076C65.1201 46.9717 65.1273 47.0146 65.1421 47.0369C65.1461 47.0428 65.1551 47.0456 65.1693 47.0456C65.6413 47.0188 66.086 46.9984 66.5041 46.9847C66.93 46.9706 67.3161 46.9634 67.6631 46.9634C67.963 46.9634 68.2791 46.9687 68.6122 46.9794C68.9396 46.99 69.2712 47.0052 69.6074 47.0258C70.2693 47.0665 70.9276 47.0868 71.5852 47.0868C72.8022 47.0868 73.9009 46.9371 74.8814 46.6384C75.8584 46.341 76.7192 45.8951 77.4635 45.3015C78.2981 44.6348 78.9236 43.8401 79.34 42.9169C79.7572 41.9921 79.9658 40.9359 79.9658 39.7478C79.9658 38.737 79.813 37.827 79.508 37.0165C79.2037 36.2083 78.7476 35.4982 78.1403 34.8854C77.4177 34.1551 76.5264 33.607 75.4658 33.2407H75.4661ZM68.7074 36.2566V43.9606C68.7074 45.0115 68.8184 45.6685 69.043 45.9287C69.3993 46.3222 70.2328 46.5205 71.5437 46.5205C73.7329 46.5205 75.4103 45.8292 76.5794 44.4433C77.579 43.2656 78.0807 41.7291 78.0807 39.8263C78.0807 37.6529 77.413 35.9725 76.0745 34.7814C74.9402 33.7786 73.4806 33.2755 71.6958 33.2755C70.1084 33.2755 69.2022 33.4536 68.9809 33.806C68.7978 34.0833 68.7076 34.8979 68.7076 36.2564L68.7074 36.2566ZM71.7581 32.5568C74.6012 32.5568 76.7591 33.3031 78.2326 34.7919C79.4742 36.0442 80.0967 37.694 80.0967 39.7476C80.0967 42.1604 79.246 44.0461 77.5443 45.405C76.0297 46.6128 74.0442 47.219 71.5854 47.219C70.9281 47.219 70.2674 47.1983 69.6 47.1574C68.9221 47.1161 68.2789 47.0955 67.6633 47.0955C66.9541 47.0955 66.1241 47.1228 65.1695 47.1778C65.0484 47.1778 64.9897 47.0887 64.9897 46.9074C64.9897 46.7465 65.0486 46.6609 65.1695 46.6472C66.0411 46.5926 66.5701 46.4281 66.75 46.1543C66.9057 45.9287 66.9849 45.0283 66.9849 43.4576V36.2564C66.9849 34.7538 66.9159 33.8811 66.7812 33.642C66.6393 33.3988 66.0617 33.2414 65.0484 33.1692C64.9272 33.1555 64.8684 33.0768 64.8684 32.9298C64.8684 32.7075 64.9274 32.5979 65.0484 32.5979C66.1517 32.6529 67.0094 32.6766 67.6215 32.6766C68.1506 32.6766 68.7803 32.6596 69.5166 32.6185C70.9763 32.5772 71.7232 32.5566 71.7579 32.5566L71.7581 32.5568Z" fill="white"/>
<path id="Vector_3" d="M48.0199 39.6851L45.5334 35.9186L45.5332 35.919C45.1196 35.2777 44.7913 34.7816 44.5489 34.4306C44.3041 34.0765 44.1416 33.8616 44.0623 33.7862L44.0583 33.7825C43.9262 33.6524 43.7554 33.5484 43.545 33.4691C43.3269 33.3866 43.0662 33.3311 42.7629 33.3014L42.7609 33.3012V33.3014C42.6638 33.2901 42.5881 33.2502 42.5346 33.1803C42.486 33.1167 42.4612 33.0335 42.4612 32.9303C42.4612 32.7972 42.4824 32.693 42.524 32.6176L42.5242 32.6171L42.524 32.6169C42.5796 32.5161 42.6638 32.466 42.7751 32.466C42.7808 32.466 42.7864 32.4665 42.7917 32.4671C43.2523 32.5011 43.6876 32.5268 44.0984 32.5435C44.509 32.5604 44.906 32.5688 45.2895 32.5688C45.7397 32.5688 46.1842 32.5604 46.6227 32.5435C47.0634 32.5266 47.5104 32.501 47.9636 32.4667L47.9733 32.4662C48.0891 32.466 48.177 32.5145 48.2369 32.6116C48.284 32.6886 48.3079 32.7944 48.3079 32.9303C48.3079 33.0366 48.2799 33.1218 48.2244 33.1866L48.224 33.1868L48.2244 33.187C48.1677 33.2529 48.0879 33.291 47.9861 33.3014L47.9804 33.3017C47.6939 33.3284 47.4581 33.3611 47.2727 33.3997C47.0968 33.4365 46.9709 33.4776 46.8948 33.5234C46.8409 33.5556 46.8007 33.596 46.7746 33.6448C46.7478 33.6954 46.7341 33.7572 46.7341 33.8305C46.7341 33.9549 46.7939 34.1439 46.9125 34.3972C47.037 34.6629 47.2245 34.9923 47.474 35.3851L47.4777 35.3914L49.3874 38.3284C49.5151 38.1566 49.6193 38.015 49.7017 37.902C49.8234 37.7348 49.9098 37.6132 49.9616 37.5373C50.491 36.8026 50.9951 36.0339 51.5157 35.2907L51.5155 35.2906C51.7592 34.9439 51.9421 34.6435 52.0639 34.39C52.1801 34.1487 52.238 33.9559 52.238 33.8135C52.238 33.7384 52.2192 33.6763 52.182 33.6267C52.1417 33.5733 52.0777 33.5294 51.9902 33.4957L51.9824 33.4921C51.8861 33.4524 51.7491 33.4171 51.5707 33.3857C51.3846 33.3534 51.1547 33.3256 50.8812 33.3017C50.8767 33.3015 50.8722 33.3007 50.8678 33.3001C50.7711 33.288 50.6953 33.2506 50.6407 33.187C50.5852 33.1222 50.5571 33.037 50.5571 32.9303C50.5571 32.7944 50.5809 32.6886 50.628 32.6116C50.688 32.5145 50.7763 32.466 50.892 32.466C50.8973 32.466 50.9029 32.4665 50.9081 32.4671C51.3485 32.5011 51.7685 32.5268 52.1684 32.5435C52.5688 32.5604 52.9606 32.5688 53.3438 32.5688C53.6501 32.5688 53.9818 32.5604 54.3395 32.5435C54.6969 32.5268 55.0916 32.501 55.5231 32.4667L55.5331 32.466C55.645 32.466 55.7279 32.5164 55.7827 32.6178C55.8234 32.6933 55.8435 32.7972 55.8435 32.9303C55.8435 33.0329 55.8198 33.1157 55.7719 33.1796C55.7194 33.2499 55.6446 33.2901 55.5475 33.3014C55.5437 33.3015 55.5399 33.3019 55.5361 33.3019C55.2456 33.3286 54.9829 33.3827 54.7483 33.4649C54.5152 33.5466 54.3095 33.6562 54.1323 33.7947L54.1235 33.8008C54.0456 33.8549 53.8784 34.0417 53.6216 34.3603C53.3549 34.6915 52.9998 35.1565 52.5555 35.7545L50.6707 38.3041C50.6672 38.3087 50.6636 38.3129 50.6598 38.317C50.6325 38.3456 50.5552 38.438 50.4281 38.5938C50.3162 38.7303 50.1582 38.9255 49.9566 39.1751L52.8544 43.6771C53.3001 44.3708 53.6638 44.9159 53.9457 45.3114C54.2223 45.6993 54.4171 45.94 54.5293 46.0322L54.5317 46.0343C54.6858 46.1673 54.871 46.2741 55.0871 46.3542C55.3084 46.4359 55.5616 46.4902 55.8458 46.5167H55.8477C55.9491 46.5276 56.0254 46.5708 56.0783 46.6464C56.1252 46.7131 56.1479 46.8003 56.1479 46.908C56.1479 47.0255 56.1257 47.1177 56.0799 47.1857C56.0235 47.2693 55.942 47.3108 55.834 47.3108C55.8285 47.3108 55.8231 47.3103 55.8177 47.3097C55.3174 47.2832 54.8643 47.2641 54.4585 47.2514C54.0328 47.2381 53.6464 47.2317 53.302 47.2317C52.8855 47.2317 52.4481 47.2379 51.9916 47.2512C51.5494 47.2641 51.0766 47.2834 50.5729 47.3101L50.5663 47.3103V47.3108C50.4537 47.3108 50.3663 47.2718 50.3041 47.1933C50.2491 47.124 50.2212 47.0292 50.2212 46.908C50.2212 46.796 50.2496 46.7066 50.3055 46.6386C50.3643 46.5675 50.4473 46.5269 50.5541 46.5167L50.5581 46.5164V46.516C50.8188 46.4993 51.0345 46.4721 51.2044 46.4336C51.3647 46.3974 51.4817 46.3523 51.5551 46.298L51.5603 46.2947C51.6137 46.2588 51.6534 46.2124 51.6799 46.1552C51.7084 46.0935 51.7224 46.0166 51.7224 45.9254C51.7224 45.7834 51.6605 45.577 51.5363 45.3065C51.4068 45.0247 51.2122 44.6798 50.952 44.2726L48.6253 40.5783C47.7893 41.8019 47.0009 43.0348 46.1854 44.2738C45.9268 44.6647 45.733 45.0011 45.6043 45.2828C45.481 45.5524 45.4194 45.7668 45.4194 45.9254C45.4194 46.0185 45.4402 46.0953 45.4819 46.1559C45.524 46.2174 45.5897 46.2664 45.679 46.3027L45.6822 46.304V46.3038C45.7919 46.3511 45.9513 46.3916 46.1606 46.4268C46.3751 46.4628 46.6411 46.4923 46.9583 46.516C46.9624 46.5164 46.9668 46.5167 46.9708 46.5176C47.0688 46.5299 47.1447 46.5719 47.1983 46.6439C47.2481 46.7105 47.2732 46.7985 47.2732 46.908C47.2732 47.0251 47.2498 47.1174 47.2038 47.185C47.1468 47.269 47.0649 47.3108 46.9593 47.3108C46.9538 47.3108 46.9484 47.3103 46.943 47.3097C46.4629 47.2832 46.022 47.2637 45.6197 47.2512C45.1995 47.2379 44.8076 47.2317 44.445 47.2317C44.1579 47.2317 43.8277 47.2381 43.4562 47.2514C43.1004 47.2641 42.6967 47.2834 42.2457 47.3101L42.2385 47.3103V47.3108C42.1322 47.3108 42.0506 47.269 41.9935 47.185C41.9479 47.1177 41.9247 47.0253 41.9247 46.908C41.9247 46.8001 41.9484 46.7133 41.9951 46.6467C42.0485 46.571 42.1251 46.5278 42.2243 46.5167C42.4851 46.487 42.714 46.4317 42.9107 46.3509C43.1025 46.2715 43.2634 46.1682 43.3929 46.0399L43.395 46.0378C43.5495 45.8913 43.7663 45.6373 44.0451 45.2759C44.329 44.9079 44.6738 44.4341 45.0792 43.8543L45.0794 43.8538L45.0792 43.8536L47.2201 40.81C47.2729 40.7378 47.3427 40.6405 47.4317 40.5145C47.5222 40.3863 47.6072 40.2651 47.683 40.1551L47.6847 40.1528L47.6845 40.1526C47.781 40.0198 47.859 39.9118 47.9127 39.8364C47.9521 39.7812 47.9875 39.7312 48.0194 39.6848L48.0199 39.6851ZM45.7513 35.7742L48.2819 39.6077C48.3144 39.6519 48.3173 39.7134 48.2851 39.7614C48.2459 39.8195 48.1923 39.8961 48.1245 39.9908C48.0492 40.0962 47.9752 40.1988 47.8952 40.3091L47.8951 40.309C47.7862 40.4666 47.7041 40.5844 47.6445 40.6691C47.5711 40.7724 47.499 40.8729 47.43 40.9676L45.2918 44.0073L45.2916 44.007C44.881 44.5941 44.534 45.0716 44.2508 45.4384C43.9626 45.8121 43.7366 46.0765 43.5729 46.2314C43.4191 46.3832 43.2312 46.5044 43.0092 46.5961C42.7909 46.6863 42.5387 46.7476 42.2533 46.7794C42.2309 46.7818 42.2157 46.7888 42.2077 46.8003C42.1936 46.8201 42.1864 46.8561 42.1864 46.9083C42.1864 46.9716 42.1942 47.0142 42.2092 47.0366C42.2138 47.0431 42.2236 47.0464 42.2391 47.0464C42.6823 47.0204 43.0853 47.0011 43.4476 46.9882C43.8384 46.974 44.1709 46.9675 44.4456 46.9675C44.7919 46.9675 45.1852 46.974 45.6274 46.9879C46.0404 47.0011 46.484 47.0202 46.9581 47.0464H46.9598C46.9755 47.0464 46.9857 47.0431 46.99 47.0366C47.0049 47.0148 47.0126 46.9723 47.0126 46.9083C47.0126 46.8577 47.0051 46.8228 46.9907 46.8031C46.9815 46.791 46.9649 46.7832 46.9409 46.7801H46.9404C46.6175 46.7558 46.3439 46.7253 46.1191 46.6877C45.8892 46.649 45.7096 46.6026 45.5807 46.5469L45.5809 46.5468C45.4437 46.4907 45.3395 46.4104 45.268 46.3064C45.1952 46.1998 45.1588 46.0731 45.1588 45.9257C45.1588 45.7292 45.2287 45.4776 45.3681 45.1724C45.5023 44.8792 45.7028 44.5309 45.9697 44.1275L47.693 41.4804L48.5231 40.2656C48.5329 40.2515 48.5453 40.2391 48.5604 40.2294C48.621 40.1902 48.7014 40.2083 48.7399 40.2698L51.171 44.1291C51.4387 44.5484 51.6397 44.9042 51.7737 45.1963C51.9144 45.5027 51.9843 45.7458 51.9843 45.9259C51.9843 46.0549 51.9617 46.1687 51.9161 46.2674C51.8695 46.3686 51.7994 46.451 51.7058 46.5139C51.6028 46.5889 51.4547 46.6478 51.2613 46.6912C51.0761 46.7333 50.8472 46.7623 50.5751 46.7801C50.5418 46.7836 50.5188 46.7931 50.5061 46.8083C50.4909 46.827 50.4832 46.86 50.4832 46.9083C50.4832 46.968 50.4914 47.0077 50.5077 47.0283C50.5172 47.0406 50.5372 47.0464 50.567 47.0464C51.0635 47.0202 51.5363 47.0007 51.9851 46.9879C52.4658 46.974 52.9046 46.9675 53.3027 46.9675C53.6305 46.9675 54.0182 46.974 54.4663 46.9882C54.8818 47.0011 55.3375 47.0204 55.8323 47.0464H55.8347C55.851 47.0464 55.8612 47.0432 55.8654 47.0373C55.8801 47.0151 55.8874 46.9724 55.8874 46.9083C55.8874 46.8556 55.8807 46.8194 55.867 46.7996C55.8593 46.7888 55.8441 46.7818 55.8208 46.7794C55.5142 46.7505 55.2401 46.6919 54.999 46.6028C54.753 46.5116 54.5407 46.389 54.363 46.2349C54.2331 46.1274 54.0238 45.8706 53.735 45.4658C53.4498 45.0654 53.0835 44.5168 52.6366 43.8211L49.6919 39.2466C49.656 39.1992 49.6557 39.1312 49.6947 39.0827C49.9172 38.8069 50.0934 38.5893 50.2274 38.4254C50.3507 38.2746 50.4305 38.1792 50.4683 38.1388L52.3477 35.5966C52.796 34.9933 53.1534 34.5253 53.4199 34.1942C53.6908 33.8581 53.8762 33.6545 53.9762 33.5842C54.1752 33.4293 54.4046 33.307 54.664 33.216C54.9186 33.1267 55.2016 33.0682 55.513 33.04L55.5193 33.0391C55.5428 33.0364 55.5581 33.0303 55.5652 33.021C55.5768 33.0055 55.5826 32.9753 55.5826 32.9307C55.5826 32.8413 55.5734 32.7792 55.5545 32.7445C55.5501 32.7364 55.5439 32.732 55.5359 32.7315C55.1159 32.7648 54.7209 32.7903 54.351 32.8075C53.979 32.8253 53.6433 32.8339 53.3442 32.8339C52.9703 32.8339 52.5751 32.8253 52.1585 32.8075C51.7457 32.7903 51.3227 32.7648 50.8897 32.7311C50.8711 32.7318 50.858 32.7385 50.8498 32.7518C50.829 32.7856 50.8186 32.8451 50.8186 32.9307C50.8186 32.9714 50.825 32.999 50.8378 33.014C50.8486 33.0262 50.8687 33.0343 50.8977 33.0384L50.9029 33.0387C51.1826 33.063 51.4196 33.0916 51.6149 33.1257C51.8124 33.1605 51.9681 33.201 52.0824 33.2487L52.0835 33.249C52.2173 33.3007 52.3191 33.3734 52.3895 33.4667C52.4631 33.5644 52.4996 33.6799 52.4996 33.8138C52.4996 33.9967 52.4327 34.2281 52.299 34.5062C52.1719 34.7706 51.9817 35.0836 51.7283 35.4441L51.7281 35.4439L50.1763 37.6877C50.1232 37.7655 50.035 37.8894 49.9111 38.0596C49.7918 38.2237 49.6491 38.4171 49.4851 38.6369H49.4847C49.476 38.6485 49.4651 38.659 49.4523 38.6676C49.3923 38.7073 49.3117 38.6906 49.2723 38.6297L47.2611 35.5365L47.255 35.5277C46.9997 35.1261 46.8067 34.7865 46.6772 34.5102C46.5414 34.2207 46.4733 33.9942 46.4733 33.8307C46.4733 33.7131 46.4975 33.6097 46.5454 33.5197C46.5946 33.4275 46.6673 33.3528 46.7623 33.2963C46.8627 33.2358 47.0153 33.1844 47.221 33.1415C47.4147 33.1011 47.6599 33.0672 47.9568 33.0394L47.9608 33.0389C47.9937 33.0356 48.0161 33.0271 48.0277 33.0138L48.0281 33.014C48.0407 32.999 48.0471 32.9713 48.0471 32.9305C48.0471 32.8448 48.0366 32.7852 48.0159 32.7517C48.0078 32.7383 47.9944 32.7316 47.976 32.7309C47.5323 32.7647 47.0842 32.7901 46.6323 32.8074C46.1759 32.8251 45.7285 32.8337 45.2899 32.8337C44.916 32.8337 44.5156 32.8251 44.0885 32.8074C43.6657 32.7901 43.2279 32.7647 42.7739 32.7309C42.7645 32.7316 42.7572 32.7369 42.7518 32.7464H42.7517C42.7324 32.7815 42.7227 32.8428 42.7227 32.9305C42.7227 32.9739 42.729 33.0034 42.7411 33.0194C42.7489 33.0298 42.7654 33.0363 42.7898 33.0389V33.0392C43.115 33.0712 43.3968 33.132 43.6361 33.2221C43.8811 33.3145 44.0823 33.4377 44.2399 33.593L44.2411 33.594C44.3321 33.6806 44.5061 33.9092 44.7622 34.2799C45.0159 34.6471 45.3461 35.1451 45.7517 35.774L45.7513 35.7742ZM48.1775 39.6867L45.6426 35.8464C44.8193 34.5699 44.3214 33.8511 44.1518 33.6903C43.8613 33.4027 43.4046 33.2314 42.7753 33.17C42.6542 33.1563 42.5921 33.0775 42.5921 32.9305C42.5921 32.7083 42.6544 32.5986 42.7753 32.5986C43.6952 32.667 44.5323 32.7014 45.2897 32.7014C46.1785 32.7014 47.0743 32.667 47.9734 32.5986C48.1083 32.5986 48.1774 32.7083 48.1774 32.9305C48.1774 33.0777 48.1082 33.1563 47.9734 33.17C47.3856 33.2249 47.0053 33.3036 46.8286 33.4098C46.6798 33.4985 46.6038 33.639 46.6038 33.8305C46.6038 34.1183 46.8598 34.6622 47.3648 35.4562L49.381 38.5571C49.7408 38.0747 49.9689 37.7595 50.0693 37.6127L51.6222 35.3673C52.1204 34.6588 52.3692 34.1388 52.3692 33.8136C52.3692 33.6049 52.2588 33.4579 52.0373 33.3722C51.8265 33.2829 51.446 33.2179 50.8926 33.1701C50.7574 33.1564 50.6884 33.0777 50.6884 32.9307C50.6884 32.7084 50.7576 32.5988 50.8926 32.5988C51.771 32.6672 52.5874 32.7016 53.3447 32.7016C53.9501 32.7016 54.6796 32.6672 55.534 32.5988C55.655 32.5988 55.7137 32.7084 55.7137 32.9307C55.7137 33.0779 55.6549 33.1564 55.534 33.1701C54.9252 33.2251 54.4306 33.3962 54.0534 33.6905C53.8772 33.8105 53.3445 34.4742 52.4523 35.6755L50.5673 38.2253C50.5049 38.2903 50.2493 38.6049 49.796 39.1664L52.7461 43.7491C53.6384 45.1385 54.2058 45.9359 54.4479 46.1344C54.78 46.422 55.2434 46.5931 55.8349 46.6476C55.9594 46.6613 56.018 46.747 56.018 46.9078C56.018 47.0891 55.9592 47.1781 55.8349 47.1781C54.8041 47.1232 53.9568 47.0994 53.3031 47.0994C52.5076 47.0994 51.5946 47.1232 50.5673 47.1781C50.4255 47.1781 50.353 47.0891 50.353 46.9078C50.353 46.7469 50.4256 46.6613 50.5673 46.6476C51.1 46.6133 51.4562 46.5346 51.6328 46.4048C51.7816 46.3054 51.854 46.1448 51.854 45.9254C51.854 45.6037 51.5911 45.0289 51.0619 44.2006L48.6303 40.3399L47.8002 41.5547L46.0779 44.2004C45.5523 44.9946 45.2894 45.5695 45.2894 45.9252C45.2894 46.1648 45.4033 46.3328 45.6317 46.4252C45.8703 46.528 46.3094 46.5995 46.9494 46.6474C47.0774 46.6611 47.1428 46.7469 47.1428 46.9076C47.1428 47.0889 47.0805 47.178 46.9597 47.178C45.974 47.123 45.1371 47.0993 44.4454 47.0993C43.8991 47.0993 43.1621 47.123 42.2389 47.178C42.1179 47.178 42.0558 47.0889 42.0558 46.9076C42.0558 46.7467 42.118 46.6611 42.2389 46.6474C42.7851 46.5858 43.2003 46.4148 43.484 46.1343C43.802 45.833 44.3694 45.0974 45.1855 43.9302L47.3231 40.891C47.4409 40.7302 47.5963 40.511 47.79 40.2304C47.9665 39.9875 48.0945 39.8095 48.1774 39.6865L48.1775 39.6867ZM29.8304 34.9086C29.8069 34.9743 29.7819 35.0432 29.7555 35.1152C29.6803 35.3202 29.5813 35.5841 29.4595 35.9037L29.4599 35.904C29.3241 36.2642 29.2162 36.5532 29.1293 36.787C29.0567 36.983 28.9712 37.2158 28.8932 37.4291L28.8897 37.4375L27.7778 40.5252C27.9925 40.5345 28.2469 40.5419 28.5406 40.5472C28.9051 40.5537 29.3567 40.5569 29.8946 40.5569C30.3862 40.5569 30.7977 40.5537 31.1296 40.5472C31.3894 40.5423 31.6154 40.5351 31.8072 40.5258C31.3839 39.3608 30.9427 38.1982 30.5451 37.0245C30.3261 36.3775 30.0947 35.6944 29.8304 34.9085V34.9086ZM29.5107 35.0232C29.5948 34.7937 29.6603 34.6088 29.707 34.4691C29.7182 34.4287 29.7482 34.3944 29.7906 34.3798C29.8587 34.3565 29.9328 34.3935 29.956 34.4626C30.2288 35.2751 30.5192 36.1331 30.792 36.9388L30.9281 37.3405L32.1132 40.6031C32.1176 40.6148 32.1202 40.6275 32.1209 40.6407C32.1252 40.7136 32.0702 40.7759 31.9984 40.7805C31.7772 40.7938 31.4889 40.8042 31.1338 40.8112C30.7672 40.8183 30.3541 40.822 29.8948 40.822C29.3922 40.822 28.9393 40.8183 28.5368 40.8112C28.1482 40.8042 27.8317 40.7938 27.5879 40.7805C27.5754 40.7796 27.5629 40.777 27.5506 40.7724C27.483 40.7478 27.4479 40.6721 27.4726 40.6034L28.645 37.3476L28.6483 37.3374C28.6981 37.2018 28.7699 37.0068 28.8855 36.6944C28.9875 36.4198 29.099 36.1205 29.216 35.8102H29.2162L29.2164 35.8095C29.3229 35.5305 29.4207 35.269 29.5107 35.0234V35.0232ZM32.1699 41.5939C31.7158 41.57 31.3057 41.5519 30.9389 41.5396C30.5543 41.5268 30.2064 41.5199 29.8946 41.5199C29.4304 41.5199 28.9901 41.5264 28.5729 41.5391C28.1711 41.5515 27.7776 41.5696 27.393 41.593L26.5713 43.8137C26.4149 44.2243 26.2974 44.5862 26.2186 44.8989C26.1416 45.2044 26.1031 45.4593 26.1031 45.6624C26.1031 45.8161 26.1286 45.9431 26.1798 46.0445C26.2282 46.1408 26.301 46.2153 26.3981 46.2687L26.399 46.2692C26.5098 46.3272 26.6731 46.3765 26.889 46.4173C27.1134 46.46 27.3919 46.4927 27.7245 46.5164L27.7334 46.5172C27.831 46.529 27.9064 46.5722 27.9593 46.6471C28.006 46.7137 28.0297 46.8006 28.0297 46.9083C28.0297 47.0255 28.0063 47.1177 27.9604 47.1854L27.96 47.1859L27.9604 47.1861C27.9037 47.2697 27.8218 47.3111 27.7159 47.3111C27.7108 47.3111 27.706 47.3106 27.7013 47.3103C26.9527 47.2899 26.3721 47.2744 25.9587 47.2644C25.5571 47.2542 25.3117 47.2495 25.222 47.2495C24.8378 47.2495 24.4765 47.2542 24.1389 47.2644C23.7952 47.2742 23.4603 47.2899 23.1345 47.3104L23.1264 47.3108V47.3111C23.0202 47.3111 22.9386 47.2697 22.8817 47.1861C22.8794 47.1827 22.8775 47.1794 22.8756 47.1759C22.8336 47.1089 22.8123 47.02 22.8123 46.9083C22.8123 46.8004 22.8361 46.7137 22.8827 46.6471C22.9361 46.5714 23.0129 46.5281 23.112 46.5171L23.1142 46.5167C23.3776 46.4805 23.6022 46.4236 23.7879 46.3465C23.9679 46.2717 24.1112 46.1777 24.2176 46.0649C24.3635 45.9076 24.5367 45.6276 24.7363 45.2258C24.938 44.8195 25.165 44.2916 25.4154 43.643L25.4178 43.637L27.8673 37.2169H27.8671C28.2786 36.1247 28.614 35.2198 28.8722 34.5021C29.1335 33.7757 29.3215 33.2267 29.4347 32.8546C29.4458 32.8179 29.4711 32.7898 29.5027 32.7743L30.6888 32.1925C30.7072 32.1837 30.7265 32.1795 30.7455 32.1795V32.179C30.826 32.179 30.8945 32.2053 30.95 32.2573C30.9998 32.304 31.0351 32.3689 31.0554 32.4511V32.4513C31.2661 33.1501 31.5065 33.9055 31.7759 34.7177C32.0466 35.534 32.3446 36.4005 32.6697 37.3179H32.6699L35.001 43.8071C35.2161 44.4051 35.4079 44.8949 35.5752 45.2757C35.7405 45.6513 35.8809 45.9185 35.9964 46.0768L35.9983 46.0796H35.9985C36.0769 46.1924 36.226 46.2854 36.4466 46.3583C36.6844 46.4371 36.9991 46.4898 37.3914 46.5165L37.3938 46.5169L37.394 46.5165C37.5056 46.5266 37.592 46.5657 37.6536 46.6351C37.7146 46.7035 37.7449 46.7945 37.7449 46.9085C37.7449 47.0311 37.7167 47.1265 37.6598 47.1959C37.5967 47.2732 37.5079 47.3113 37.3929 47.3113C37.3879 47.3113 37.3832 47.3108 37.3783 47.3104C36.607 47.2901 35.9987 47.2746 35.5528 47.2646C35.1172 47.2544 34.8294 47.2496 34.6882 47.2496C34.5628 47.2496 34.2861 47.2544 33.8581 47.2646C33.418 47.2746 32.8103 47.2902 32.0348 47.3106H32.0317V47.3113C31.9256 47.3113 31.8441 47.2699 31.7872 47.1862C31.785 47.1829 31.7829 47.1796 31.781 47.176C31.7392 47.1091 31.7179 47.0202 31.7179 46.9085C31.7179 46.8001 31.7416 46.7121 31.7888 46.6455C31.8429 46.5685 31.9207 46.525 32.0211 46.5165L32.0262 46.5162C32.3777 46.4893 32.6647 46.4524 32.8868 46.4057C33.0973 46.3612 33.2458 46.3098 33.3318 46.2506V46.2504C33.3864 46.2102 33.4279 46.155 33.4558 46.084C33.487 46.005 33.5028 45.9047 33.5028 45.7822C33.5028 45.6664 33.4646 45.4693 33.3883 45.1909C33.3099 44.9045 33.1917 44.5346 33.0328 44.0808L33.0307 44.0743L32.1698 41.5939H32.1699ZM30.9472 41.2759C31.3466 41.2894 31.7874 41.3093 32.2705 41.3348C32.3218 41.3374 32.369 41.3709 32.3869 41.4233L33.2768 43.9866L33.2791 43.9929C33.4386 44.4492 33.5588 44.8251 33.6396 45.1206C33.7227 45.4242 33.7643 45.6445 33.7643 45.7822C33.7643 45.937 33.7419 46.0693 33.6979 46.1814C33.6507 46.3012 33.5796 46.395 33.4853 46.4642L33.4851 46.464L33.4827 46.466C33.3679 46.5461 33.187 46.6123 32.9404 46.6638C32.7054 46.7135 32.4073 46.7518 32.0466 46.7795L32.043 46.7801C32.0225 46.7816 32.0087 46.7878 32.0014 46.7983C31.987 46.8187 31.9795 46.8558 31.9795 46.9083C31.9795 46.9684 31.9863 47.0095 31.9993 47.0323L32.0021 47.0362C32.0066 47.0429 32.0168 47.0464 32.0322 47.0464V47.0469C32.8017 47.0265 33.4086 47.0109 33.8534 47.0007C34.3109 46.99 34.5892 46.9847 34.6887 46.9847C34.8035 46.9847 35.0931 46.99 35.5586 47.0007C36.0094 47.0109 36.6183 47.0262 37.3858 47.0467L37.3934 47.0464C37.4269 47.0464 37.4489 47.0402 37.4593 47.0272C37.476 47.007 37.4841 46.9673 37.4841 46.9083C37.4841 46.8618 37.4763 46.8293 37.4604 46.8113C37.4449 46.7941 37.4156 46.7838 37.3719 46.7801V46.7797C36.9592 46.7516 36.6244 46.6947 36.3665 46.6095C36.0908 46.5181 35.8974 46.3922 35.7857 46.2314C35.6595 46.0573 35.5102 45.7741 35.338 45.3831C35.1675 44.9955 34.9735 44.4999 34.7567 43.8972L32.4255 37.408H32.4257L32.4255 37.4073C32.0971 36.4802 31.7983 35.6117 31.5295 34.8015C31.2614 33.993 31.0206 33.2355 30.8073 32.5282C30.8055 32.5236 30.8041 32.5191 30.8029 32.5141C30.7955 32.4834 30.7858 32.4625 30.7741 32.4516C30.7722 32.4502 30.7702 32.4486 30.7676 32.4474L29.6673 32.9869C29.5511 33.3623 29.3676 33.8969 29.1175 34.5921C28.8519 35.3308 28.5163 36.2361 28.1114 37.3105H28.1111L25.6611 43.7319L25.6587 43.7391C25.4058 44.3942 25.1754 44.9296 24.9694 45.3446C24.7585 45.7692 24.5709 46.07 24.4079 46.2458L24.4073 46.2462C24.2752 46.3864 24.1021 46.5009 23.8875 46.5902C23.6809 46.6762 23.4352 46.739 23.1501 46.778L23.1411 46.7792C23.1187 46.7816 23.1035 46.7887 23.0955 46.8001C23.0813 46.8199 23.074 46.856 23.074 46.9081C23.074 46.9682 23.0807 47.0093 23.0939 47.0322L23.0965 47.036C23.1012 47.0427 23.1113 47.0462 23.1267 47.0462C23.4451 47.026 23.7803 47.0107 24.1323 47.0005C24.4932 46.9898 24.8567 46.9846 25.2226 46.9846C25.2888 46.9846 25.5361 46.9898 25.9654 47.0005C26.3789 47.0107 26.96 47.026 27.7088 47.0466L27.7164 47.0462C27.7318 47.0462 27.742 47.0427 27.7466 47.036L27.7469 47.0362C27.7616 47.0141 27.7691 46.9716 27.7691 46.9081C27.7691 46.856 27.7618 46.8199 27.7478 46.8001C27.74 46.789 27.7256 46.7823 27.7044 46.7795C27.3642 46.7551 27.0765 46.7214 26.8417 46.6768C26.6019 46.6313 26.4146 46.5735 26.2804 46.5032L26.2745 46.5C26.1293 46.4203 26.0206 46.3087 25.9478 46.1643C25.8777 46.0252 25.8427 45.8581 25.8427 45.6622C25.8427 45.4374 25.8839 45.1608 25.9663 44.8337C26.0468 44.5143 26.1676 44.1426 26.3293 43.7185L27.1766 41.428C27.192 41.3766 27.2374 41.3379 27.2933 41.3344C27.6992 41.3084 28.1237 41.2887 28.5664 41.2752C29.0059 41.262 29.4489 41.255 29.8953 41.255C30.1922 41.255 30.5432 41.2622 30.9479 41.2755L30.9472 41.2759ZM29.8324 34.5051C29.7319 34.8062 29.5662 35.2579 29.3378 35.8569C29.0853 36.5277 28.8984 37.0345 28.7706 37.3834L27.5948 40.6482C28.0859 40.6756 28.8538 40.6893 29.8946 40.6893C30.8459 40.6893 31.5446 40.6756 31.9908 40.6482L30.8045 37.3834C30.5035 36.4936 30.1785 35.5349 29.8325 34.5049L29.8324 34.5051ZM32.2639 41.4665C31.292 41.4149 30.5033 41.3876 29.8946 41.3876C28.9748 41.3876 28.1099 41.4149 27.3007 41.4665L26.4501 43.7663C26.1319 44.6013 25.9727 45.2345 25.9727 45.6622C25.9727 46.0113 26.0938 46.2511 26.336 46.3843C26.5814 46.5146 27.0416 46.5998 27.7159 46.6478C27.8369 46.6615 27.899 46.7472 27.899 46.908C27.899 47.0893 27.8367 47.1783 27.7159 47.1783C26.2079 47.1372 25.3778 47.1167 25.222 47.1167C24.4717 47.1167 23.773 47.1372 23.1264 47.1783C23.0051 47.1783 22.9431 47.0893 22.9431 46.908C22.9431 46.747 23.0053 46.6615 23.1264 46.6478C23.6795 46.5724 24.0739 46.4083 24.3125 46.1548C24.6203 45.8231 25.0318 44.9982 25.5366 43.6908L27.9888 37.2632C28.8052 35.0968 29.3308 33.6425 29.5592 32.8927L30.7454 32.3109C30.8388 32.3109 30.9011 32.3692 30.9287 32.4818C31.3539 33.892 31.8933 35.5177 32.5473 37.3625L34.8783 43.8517C35.3106 45.0526 35.6496 45.8231 35.8915 46.1548C36.0816 46.4285 36.5763 46.5931 37.3825 46.6478C37.5379 46.6615 37.614 46.7472 37.614 46.908C37.614 47.0893 37.5414 47.1783 37.3927 47.1783C35.8433 47.1372 34.944 47.1167 34.688 47.1167C34.4633 47.1167 33.5779 47.1372 32.0317 47.1783C31.9107 47.1783 31.8486 47.0893 31.8486 46.908C31.8486 46.747 31.9109 46.6581 32.0317 46.6478C32.7479 46.5931 33.2078 46.4974 33.4083 46.3572C33.5574 46.2474 33.6332 46.0591 33.6332 45.782C33.6332 45.5291 33.474 44.947 33.1558 44.0365L32.2636 41.4665H32.2639ZM14.278 32.5287C14.5106 32.5352 14.7684 32.5403 15.0523 32.5437C15.3135 32.5468 15.632 32.5482 16.0097 32.5482C16.3063 32.5482 16.6286 32.5416 16.9765 32.5284C17.3266 32.5149 17.714 32.4945 18.139 32.4669L18.1472 32.4664V32.4662C18.2616 32.4662 18.348 32.5119 18.4073 32.6041C18.4548 32.6784 18.4784 32.7799 18.4784 32.91C18.4784 33.0205 18.4527 33.1086 18.4005 33.1765C18.3444 33.2494 18.2644 33.2908 18.16 33.3015L18.1548 33.3017C17.7218 33.3286 17.379 33.3808 17.1261 33.4593C16.8945 33.5313 16.7448 33.622 16.6774 33.7323L16.6767 33.7332C16.6014 33.8551 16.5444 34.0387 16.5053 34.2843C16.4648 34.5392 16.4448 34.8593 16.4448 35.2442V35.4973L16.4445 35.5073L16.5343 43.4576C16.5376 43.9856 16.5463 44.4228 16.5594 44.7694C16.5724 45.1129 16.5903 45.3632 16.6123 45.5208C16.6318 45.6346 16.659 45.7378 16.6935 45.8311C16.727 45.9221 16.7674 46.0039 16.8138 46.0779C16.8612 46.1409 16.9205 46.1956 16.9912 46.2421C17.0649 46.2905 17.1501 46.3293 17.2465 46.3598C17.3521 46.3876 17.4969 46.4152 17.6819 46.4417C17.8689 46.4684 18.0912 46.4937 18.3489 46.5171L18.3565 46.518V46.5172C18.4597 46.5327 18.5381 46.5756 18.5934 46.6467C18.6463 46.7145 18.6721 46.8017 18.6721 46.9083C18.6721 47.0281 18.6468 47.1221 18.5949 47.1913C18.5348 47.2713 18.4495 47.3111 18.3376 47.3111C18.3322 47.3111 18.3268 47.3106 18.3216 47.3101C17.7775 47.2836 17.2836 47.2644 16.8392 47.2518C16.3761 47.2382 15.9541 47.2321 15.5739 47.2321C15.1982 47.2321 14.79 47.2382 14.351 47.2516C13.9272 47.2644 13.4625 47.2837 12.9558 47.3104L12.949 47.3106V47.3111C12.8503 47.3111 12.7765 47.2655 12.7279 47.1731V47.1729L12.7274 47.1731C12.6938 47.1086 12.6766 47.0204 12.6766 46.9083C12.6766 46.8091 12.6941 46.7284 12.7284 46.6655C12.7716 46.5861 12.8363 46.5376 12.9214 46.519C12.9284 46.5174 12.9351 46.5167 12.9417 46.516C13.3701 46.4828 13.7089 46.4266 13.9586 46.3474C14.188 46.2748 14.3346 46.1875 14.3987 46.0849L14.3993 46.084C14.4736 45.9669 14.5304 45.7613 14.5695 45.4681C14.6105 45.1631 14.6308 44.767 14.6308 44.2798L14.6311 44.2691L14.573 34.9079H14.5513L11.435 41.9588L11.4351 41.9589C11.0866 42.7368 10.733 43.5485 10.3745 44.3945C10.0177 45.2367 9.65264 46.1209 9.27911 47.0471L9.27651 47.0534C9.23888 47.1384 9.18113 47.2033 9.10414 47.2477C9.03113 47.2899 8.94391 47.3111 8.84367 47.3111C8.76616 47.3111 8.69731 47.2857 8.63662 47.2352C8.58442 47.1922 8.54038 47.1311 8.50431 47.0532L8.50153 47.0469L8.50119 47.0471C8.12384 46.1056 7.77216 45.246 7.44615 44.4695C7.12066 43.6939 6.81493 42.9875 6.52846 42.3496C6.52672 42.3461 6.52534 42.3426 6.52412 42.3388L3.26017 34.9079H3.24873L3.19098 43.4587H3.1915V43.8007C3.1915 44.4168 3.21526 44.9181 3.26295 45.3049C3.30873 45.6752 3.37445 45.9344 3.46012 46.0832C3.50243 46.1455 3.55705 46.1989 3.62347 46.2442C3.69405 46.292 3.77798 46.3309 3.87526 46.3612C3.97515 46.3887 4.11249 46.4157 4.28885 46.4424C4.4659 46.4691 4.67504 46.4942 4.91643 46.5176C5.02342 46.5278 5.10544 46.5685 5.16336 46.6399C5.21851 46.708 5.24573 46.7975 5.24573 46.9088C5.24573 47.0297 5.21903 47.1242 5.16492 47.1938C5.10336 47.2727 5.01666 47.3117 4.90411 47.3117C4.89856 47.3117 4.89301 47.3111 4.88764 47.3106C4.40105 47.2843 3.97723 47.2649 3.61497 47.2525C3.23225 47.2389 2.90745 47.2326 2.64231 47.2326C2.30346 47.2326 1.93808 47.2388 1.54843 47.2521C1.17386 47.2649 0.76513 47.2843 0.322411 47.311L0.31478 47.3111V47.3117C0.206572 47.3117 0.125242 47.2702 0.0687097 47.1866C0.0231025 47.1186 0.000732422 47.0262 0.000732422 46.9088C0.000732422 46.801 0.0234493 46.714 0.0702704 46.6472C0.123161 46.5717 0.199635 46.5285 0.300908 46.5176L0.310965 46.5167C0.672702 46.4835 0.964553 46.4262 1.18583 46.3449C1.39097 46.2694 1.53005 46.1757 1.60236 46.0644C1.66999 45.9417 1.72756 45.8072 1.77508 45.6608C1.82381 45.5113 1.86109 45.353 1.88728 45.186H1.8871C1.91294 45.0062 1.93531 44.7712 1.95369 44.4811C1.97207 44.1892 1.98664 43.8473 1.99687 43.4559L2.18017 35.2656H2.17965V35.0771C2.17965 34.7337 2.15901 34.4484 2.11809 34.2223C2.07872 34.0058 2.02202 33.8453 1.94814 33.7409L1.94624 33.7379C1.86803 33.6415 1.71005 33.5575 1.4723 33.4851C1.20976 33.4052 0.860159 33.3441 0.423336 33.3024L0.421428 33.3022L0.421255 33.3024C0.324145 33.2912 0.248711 33.2513 0.195127 33.1814C0.146571 33.1178 0.121774 33.0345 0.121774 32.9314C0.121774 32.7982 0.14293 32.694 0.184549 32.6187C0.240387 32.5175 0.324492 32.4671 0.435648 32.4671C0.441197 32.4671 0.446747 32.4676 0.451949 32.4681C0.985016 32.4955 1.43432 32.5157 1.79918 32.5293C2.16248 32.5424 2.45052 32.5491 2.66277 32.5491C3.03127 32.5491 3.35 32.5477 3.62035 32.5445C3.91844 32.5412 4.19954 32.5359 4.46504 32.5293C4.52573 32.5277 4.57758 32.5686 4.59353 32.625H4.59371C4.70799 33.0287 4.83336 33.4228 4.97036 33.8064C5.10683 34.1892 5.25597 34.5655 5.41776 34.9352C5.41932 34.9385 5.42071 34.9422 5.42192 34.9455L8.26344 41.6014L8.26379 41.6013C8.34564 41.7843 8.44292 42.0067 8.55546 42.2664C8.67338 42.5389 8.79338 42.8191 8.91512 43.1059C8.91651 43.1093 8.91789 43.1126 8.91893 43.1163L8.96714 43.2317C9.13188 43.6268 9.26021 43.9348 9.36235 44.1776C9.60269 43.6093 9.81044 43.1242 9.98559 42.7219C10.1913 42.2499 10.3588 41.8772 10.4876 41.6037L13.1646 35.2175L13.1677 35.2103C13.3402 34.8197 13.509 34.406 13.6732 33.9696C13.836 33.5378 13.9924 33.0883 14.1428 32.6203C14.1619 32.5607 14.2191 32.5243 14.2782 32.5298L14.278 32.5287ZM15.0502 32.8072C14.7976 32.8045 14.5678 32.8002 14.3604 32.7945C14.2172 33.2357 14.0694 33.6583 13.917 34.0627C13.7533 34.4974 13.5827 34.9153 13.4054 35.3167L10.7273 41.7061L10.7271 41.706L10.7247 41.7111C10.6031 41.9684 10.4365 42.3402 10.2242 42.8271C10.0154 43.3067 9.76865 43.8835 9.48478 44.5576C9.47281 44.5906 9.44801 44.6189 9.41368 44.6338C9.34743 44.6626 9.27061 44.6317 9.24235 44.5646C9.16483 44.3833 8.98709 43.9564 8.72731 43.3331L8.67911 43.2175L8.67512 43.2091C8.53465 42.8781 8.41517 42.5986 8.3165 42.3707C8.21124 42.1276 8.11431 41.9062 8.02587 41.7086L8.02621 41.7084L5.18313 35.0492L5.17914 35.0406C5.01631 34.669 4.86527 34.2871 4.7255 33.8952C4.59631 33.5331 4.47821 33.1659 4.37087 32.7942C4.13642 32.8 3.88706 32.8042 3.62243 32.807C3.29208 32.8109 2.97248 32.813 2.66277 32.813C2.46283 32.813 2.17167 32.8058 1.78999 32.7917C1.41768 32.778 0.966981 32.7576 0.43877 32.7306H0.435648C0.425417 32.7306 0.417613 32.7355 0.412064 32.7457C0.392816 32.7805 0.382931 32.842 0.382931 32.9302C0.382931 32.9735 0.389174 33.0031 0.401313 33.019C0.409116 33.0294 0.425417 33.0359 0.449868 33.0385V33.0389C0.904553 33.0826 1.27028 33.1464 1.54687 33.2304C1.83629 33.3186 2.03728 33.4326 2.1493 33.5719C2.15329 33.5763 2.15693 33.5807 2.1604 33.5856C2.25629 33.7211 2.32774 33.9173 2.37404 34.1734C2.41843 34.4183 2.4408 34.7193 2.4408 35.0759V35.2644H2.44046C2.42468 37.9877 2.29774 40.7338 2.25716 43.461C2.24658 43.8642 2.23202 44.2094 2.21381 44.4966C2.19491 44.7942 2.17202 45.0361 2.14531 45.222H2.14514L2.14479 45.2241C2.11583 45.4085 2.07543 45.5816 2.02306 45.7422C1.97121 45.9013 1.90652 46.0512 1.82884 46.1921C1.82658 46.1968 1.82398 46.2014 1.82103 46.2061C1.71699 46.3677 1.53456 46.4962 1.27461 46.5917C1.03322 46.6806 0.719523 46.7426 0.334376 46.7778L0.32848 46.7787C0.305416 46.7811 0.290156 46.7881 0.282526 46.7989C0.268653 46.8187 0.26189 46.8549 0.26189 46.9076C0.26189 46.9717 0.269173 47.0144 0.284087 47.0366C0.288075 47.0425 0.298306 47.0457 0.31478 47.0457C0.748656 47.0197 1.15756 47.0004 1.54028 46.9872C1.95057 46.9733 2.31768 46.9668 2.64231 46.9668C2.89393 46.9668 3.22046 46.9733 3.62312 46.9875C3.99457 47.0005 4.42116 47.0197 4.90186 47.0457H4.90411C4.93342 47.0457 4.95232 47.0402 4.96082 47.0293C4.97677 47.009 4.98458 46.9686 4.98458 46.9076C4.98458 46.8582 4.97729 46.8243 4.96238 46.8062C4.95041 46.7913 4.92683 46.782 4.89197 46.7787C4.63862 46.7544 4.42515 46.7289 4.25105 46.7028C4.0674 46.6748 3.91879 46.645 3.80503 46.6137L3.80122 46.6126C3.67792 46.5745 3.57041 46.5244 3.4785 46.4621C3.38312 46.3973 3.30491 46.3196 3.24353 46.2288L3.23954 46.2221C3.13289 46.0417 3.05451 45.7462 3.00387 45.3358C2.9548 44.9381 2.93017 44.4263 2.93017 43.7999V43.4578H2.93069L2.98948 34.7857L2.98896 34.7749C2.98896 34.7019 3.04757 34.6425 3.11971 34.6425H3.34462V34.6428C3.39439 34.6428 3.44191 34.6722 3.46341 34.721L6.76204 42.2307L6.76621 42.2393C7.04696 42.8644 7.35355 43.5731 7.68598 44.3652C8.01789 45.1561 8.37009 46.0164 8.74327 46.9471C8.76148 46.9856 8.78073 47.0134 8.80101 47.0301C8.81367 47.0404 8.82789 47.0457 8.84385 47.0457C8.89917 47.0457 8.94339 47.0364 8.97581 47.0176C9.00287 47.0018 9.02402 46.9777 9.03841 46.9454C9.40778 46.029 9.77351 45.144 10.1352 44.2904C10.4966 43.4371 10.8509 42.6235 11.1977 41.8497H11.1981L14.3445 34.731C14.3623 34.6796 14.4107 34.6425 14.4678 34.6425H14.7027V34.6428C14.7745 34.6432 14.8328 34.7019 14.833 34.7742L14.8919 44.2666C14.8923 44.2709 14.8924 44.2749 14.8924 44.2791C14.8924 44.7747 14.8711 45.1824 14.8281 45.5025C14.7835 45.8349 14.714 46.0763 14.6191 46.2261C14.5203 46.3834 14.3264 46.5076 14.0368 46.5993C13.7699 46.6834 13.4151 46.7433 12.9721 46.7783C12.9658 46.7808 12.961 46.7852 12.9575 46.7917C12.9447 46.815 12.9383 46.8537 12.9383 46.9076C12.9383 46.9735 12.9447 47.0195 12.9572 47.0455C13.4529 47.0192 13.9156 47 14.3445 46.9872C14.8068 46.9733 15.2162 46.9668 15.5745 46.9668C15.936 46.9668 16.3595 46.9733 16.8468 46.9872C17.2992 47.0004 17.7952 47.0195 18.3348 47.0457H18.3381C18.3645 47.0457 18.3811 47.0411 18.3884 47.0315C18.4038 47.0106 18.4115 46.9696 18.4115 46.9076C18.4115 46.8605 18.4044 46.8275 18.39 46.8092C18.3778 46.7936 18.3544 46.7836 18.3192 46.7783L18.3194 46.778C18.0539 46.7541 17.8297 46.7288 17.6467 46.7024C17.4511 46.6745 17.2959 46.6448 17.1808 46.614V46.6139L17.1761 46.6126C17.0531 46.5747 16.9446 46.525 16.8508 46.4635C16.7537 46.4002 16.6716 46.3236 16.6049 46.2337L16.605 46.2335L16.5997 46.226C16.5409 46.1337 16.4908 46.0329 16.45 45.9226C16.4093 45.8121 16.3775 45.693 16.3555 45.564L16.355 45.5605C16.3319 45.397 16.3132 45.1361 16.2997 44.778C16.2865 44.4328 16.2778 43.9931 16.2744 43.4589L16.1845 35.5096C16.1842 35.5054 16.1838 35.5012 16.1838 35.4966V35.2435C16.1838 34.8482 16.2053 34.5144 16.2487 34.2421C16.2934 33.9609 16.3628 33.7439 16.4568 33.5919C16.5591 33.4256 16.7568 33.2977 17.0509 33.2063C17.3244 33.1215 17.687 33.0654 18.139 33.0377C18.1671 33.0343 18.186 33.0261 18.1959 33.0132C18.2103 32.9945 18.2176 32.9598 18.2176 32.9091C18.2176 32.8304 18.2082 32.7763 18.1893 32.7467C18.1821 32.7357 18.1682 32.7299 18.1479 32.7299C17.7327 32.7569 17.3453 32.7773 16.986 32.7912C16.6203 32.8051 16.295 32.8123 16.0101 32.8123C15.6891 32.8123 15.3697 32.8102 15.0506 32.8063L15.0502 32.8072ZM14.2666 32.6601C14.7336 32.6738 15.3111 32.6805 16.0097 32.6805C16.5907 32.6805 17.3032 32.6535 18.1472 32.5985C18.2823 32.5985 18.3477 32.7012 18.3477 32.9098C18.3477 33.0709 18.2821 33.1561 18.1472 33.1698C17.2619 33.2248 16.736 33.3853 16.5667 33.6627C16.3971 33.9366 16.3142 34.4638 16.3142 35.244C16.3142 35.3535 16.3142 35.4357 16.3142 35.4972L16.4042 43.4582C16.4112 44.5293 16.4387 45.2243 16.4837 45.5422C16.5255 45.7852 16.6016 45.9876 16.7084 46.1548C16.8227 46.3091 16.9921 46.4183 17.2134 46.487C17.4314 46.5454 17.8049 46.5998 18.3376 46.6478C18.476 46.6685 18.5414 46.7539 18.5414 46.908C18.5414 47.0893 18.4758 47.1783 18.3376 47.1783C17.217 47.1233 16.2969 47.0996 15.5739 47.0996C14.8581 47.0996 13.9832 47.1233 12.949 47.1783C12.8555 47.1783 12.807 47.0893 12.807 46.908C12.807 46.7537 12.8555 46.6685 12.949 46.6478C13.8273 46.5794 14.3464 46.4152 14.5089 46.1548C14.6781 45.8881 14.7613 45.2617 14.7613 44.2795L14.7022 34.7753H14.4672L11.3162 41.9043C10.6213 43.4547 9.90183 45.1522 9.15824 46.9969C9.10622 47.1168 8.99905 47.1783 8.8435 47.1783C8.75003 47.1783 8.6772 47.1167 8.62205 46.9969C7.87153 45.1248 7.21447 43.5573 6.64707 42.2947L3.34445 34.7753H3.11954L3.06075 43.4582C3.06075 43.6122 3.06075 43.725 3.06075 43.8002C3.06075 45.0428 3.15751 45.8265 3.35104 46.1548C3.45509 46.3091 3.61757 46.4183 3.83902 46.487C4.04989 46.5454 4.40261 46.5998 4.90411 46.6478C5.04614 46.6615 5.11516 46.7472 5.11516 46.908C5.11516 47.0893 5.04596 47.1783 4.90411 47.1783C3.89781 47.1233 3.14364 47.0996 2.64231 47.0996C1.99566 47.0996 1.21739 47.1233 0.31478 47.1783C0.190098 47.1783 0.131485 47.0893 0.131485 46.908C0.131485 46.747 0.190271 46.6615 0.31478 46.6478C1.0686 46.5794 1.5356 46.4083 1.71196 46.1346C1.86074 45.8678 1.96098 45.5563 2.01629 45.2037C2.06832 44.8411 2.10612 44.2593 2.1271 43.4583L2.3104 35.2649V35.0764C2.3104 34.3748 2.22387 33.9025 2.05444 33.6629C1.86768 33.4199 1.32802 33.2559 0.435822 33.17C0.31478 33.1563 0.252699 33.0775 0.252699 32.9305C0.252699 32.7083 0.314954 32.5986 0.435822 32.5986C1.5082 32.6536 2.25161 32.6807 2.66294 32.6807C3.34098 32.6807 3.93943 32.674 4.4685 32.6603C4.69671 33.4679 4.97348 34.2447 5.2988 34.9873L8.145 41.6545C8.3146 42.0345 8.53257 42.5376 8.79529 43.1571C9.07206 43.8208 9.25882 44.2693 9.36235 44.5124C9.94345 43.133 10.3584 42.1817 10.6074 41.6545L13.2844 35.2682C13.6338 34.4773 13.9624 33.6083 14.2668 32.6603L14.2666 32.6601Z" fill="white"/>
<path id="Vector_4" fill-rule="evenodd" clip-rule="evenodd" d="M1.75256 54.728H150.274C151.088 54.728 151.754 55.4028 151.754 56.2276V62.2274C151.754 63.0525 151.088 63.7275 150.274 63.7275H1.75256C0.938219 63.7275 0.271973 63.0525 0.271973 62.2274V56.2276C0.271973 55.4028 0.938219 54.728 1.75256 54.728Z" fill="#EC4646"/>
<path id="Vector_5" d="M44.3255 56.978L43.035 61.4778H41.9553L41.0611 58.4335H41.0418L40.1475 61.4778H39.0615L37.7773 56.978H38.9527L39.6682 59.9714H39.6875L40.4924 56.978H41.6297L42.4411 59.9714H42.4603L43.1886 56.978H44.3259H44.3255ZM53.7615 61.4778H52.5478L52.1963 60.5945H50.4459L50.1137 61.4778H48.9254L50.8229 56.978H51.8833L53.7615 61.4778ZM51.8962 59.7237L51.334 58.1795L50.7591 59.7237H51.8963H51.8962ZM61.7539 61.4778H58.9046V56.978H60.0035V60.5308H61.7541V61.4778H61.7539ZM69.8803 61.4778H67.031V56.978H68.1299V60.5308H69.8805V61.4778H69.8803ZM78.588 58.3636C78.588 58.6941 78.5016 58.9695 78.3293 59.1898C78.1569 59.4103 77.9417 59.5637 77.684 59.6506C77.4265 59.7378 77.1294 59.7811 76.7928 59.7811H76.2499V61.478H75.1574V56.9782H76.8185C77.355 56.9782 77.7842 57.0873 78.1057 57.3057C78.4272 57.5237 78.5882 57.8764 78.5882 58.3638L78.588 58.3636ZM77.4955 58.3699C77.4955 58.0268 77.2401 57.8552 76.7288 57.8552H76.2495V58.9168H76.7096C77.2335 58.9168 77.4955 58.7345 77.4955 58.3701V58.3699ZM87.909 61.4778H86.6951L86.3438 60.5945H84.5932L84.2611 61.4778H83.0729L84.9702 56.978H86.0308L87.909 61.4778ZM86.0436 59.7237L85.4814 58.1795L84.9064 59.7237H86.0438H86.0436ZM96.4827 58.3636C96.4827 58.6941 96.3963 58.9695 96.2239 59.1898C96.0516 59.4103 95.8364 59.5637 95.5787 59.6506C95.321 59.7378 95.0239 59.7811 94.6875 59.7811H94.1446V61.478H93.0521V56.9782H94.713C95.2497 56.9782 95.6787 57.0873 96.0004 57.3057C96.3219 57.5237 96.4828 57.8764 96.4828 58.3638L96.4827 58.3636ZM95.3902 58.3699C95.3902 58.0268 95.1346 57.8552 94.6233 57.8552H94.1442V58.9168H94.6043C95.128 58.9168 95.3902 58.7345 95.3902 58.3701V58.3699ZM105.063 61.4778H101.906V56.978H104.947V57.8995H102.961V58.7448H104.839V59.6155H102.961V60.5497H105.063V61.4777V61.4778ZM114.249 61.4778H112.972L111.994 59.6919H111.624V61.4778H110.55V56.978H112.275C112.505 56.978 112.718 57.0014 112.914 57.0479C113.11 57.0945 113.293 57.169 113.464 57.2705C113.634 57.3721 113.767 57.5138 113.863 57.6964C113.959 57.8784 114.007 58.0925 114.007 58.3381C114.007 58.6348 113.924 58.8891 113.758 59.1007C113.591 59.3128 113.361 59.463 113.068 59.5521L114.249 61.4778ZM112.927 58.3571C112.927 58.0226 112.684 57.855 112.199 57.855H111.617V58.9038H112.135C112.663 58.9038 112.927 58.7216 112.927 58.3571Z" fill="#1E1E1E"/>
</g>
</g>
</g>
</svg>
