<svg width="12" height="20" viewBox="0 0 12 20" fill="none" xmlns="http://www.w3.org/2000/svg">
<path id="Shape" d="M8.76558 3.46879H11.3039C11.5374 3.46879 11.727 3.29146 11.727 3.07296V0.697957C11.727 0.479457 11.5374 0.302124 11.3039 0.302124H8.76558C6.20018 0.302124 4.11198 2.25517 4.11198 4.65629V7.42712H1.15059C0.917068 7.42712 0.727539 7.60446 0.727539 7.82296V10.198C0.727539 10.4165 0.917068 10.5938 1.15059 10.5938H4.11198V18.9063C4.11198 19.1248 4.30151 19.3021 4.53503 19.3021H7.07337C7.30689 19.3021 7.49642 19.1248 7.49642 18.9063V10.5938H10.4578C10.6397 10.5938 10.8013 10.4845 10.8597 10.323L11.7058 7.94804C11.749 7.82771 11.727 7.69471 11.6474 7.591C11.5671 7.48808 11.4401 7.42712 11.3039 7.42712H7.49642V4.65629C7.49642 4.00158 8.06585 3.46879 8.76558 3.46879Z" fill="white"/>
</svg>
